%TF.GenerationSoftware,KiCad,Pcbnew,(6.0.9)*%
%TF.CreationDate,2023-02-14T12:36:13+03:00*%
%TF.ProjectId,kontrol_karti,6b6f6e74-726f-46c5-9f6b-617274692e6b,rev?*%
%TF.SameCoordinates,Original*%
%TF.FileFunction,Legend,Top*%
%TF.FilePolarity,Positive*%
%FSLAX46Y46*%
G04 Gerber Fmt 4.6, Leading zero omitted, Abs format (unit mm)*
G04 Created by KiCad (PCBNEW (6.0.9)) date 2023-02-14 12:36:13*
%MOMM*%
%LPD*%
G01*
G04 APERTURE LIST*
%ADD10C,0.150000*%
%ADD11C,0.120000*%
G04 APERTURE END LIST*
D10*
X86812380Y-58657619D02*
X85812380Y-58657619D01*
X86288571Y-58657619D02*
X86288571Y-58086190D01*
X86812380Y-58086190D02*
X85812380Y-58086190D01*
X86812380Y-57181428D02*
X86288571Y-57181428D01*
X86193333Y-57229047D01*
X86145714Y-57324285D01*
X86145714Y-57514761D01*
X86193333Y-57610000D01*
X86764761Y-57181428D02*
X86812380Y-57276666D01*
X86812380Y-57514761D01*
X86764761Y-57610000D01*
X86669523Y-57657619D01*
X86574285Y-57657619D01*
X86479047Y-57610000D01*
X86431428Y-57514761D01*
X86431428Y-57276666D01*
X86383809Y-57181428D01*
X86812380Y-56562380D02*
X86764761Y-56657619D01*
X86669523Y-56705238D01*
X85812380Y-56705238D01*
X86812380Y-56038571D02*
X86764761Y-56133809D01*
X86669523Y-56181428D01*
X85812380Y-56181428D01*
X86431428Y-55657619D02*
X86431428Y-54895714D01*
X86288571Y-54419523D02*
X86288571Y-54086190D01*
X86812380Y-53943333D02*
X86812380Y-54419523D01*
X85812380Y-54419523D01*
X85812380Y-53943333D01*
X86145714Y-53657619D02*
X86145714Y-53276666D01*
X86812380Y-53514761D02*
X85955238Y-53514761D01*
X85860000Y-53467142D01*
X85812380Y-53371904D01*
X85812380Y-53276666D01*
X86145714Y-53086190D02*
X86145714Y-52705238D01*
X86812380Y-52943333D02*
X85955238Y-52943333D01*
X85860000Y-52895714D01*
X85812380Y-52800476D01*
X85812380Y-52705238D01*
X86764761Y-51990952D02*
X86812380Y-52086190D01*
X86812380Y-52276666D01*
X86764761Y-52371904D01*
X86669523Y-52419523D01*
X86288571Y-52419523D01*
X86193333Y-52371904D01*
X86145714Y-52276666D01*
X86145714Y-52086190D01*
X86193333Y-51990952D01*
X86288571Y-51943333D01*
X86383809Y-51943333D01*
X86479047Y-52419523D01*
X86764761Y-51086190D02*
X86812380Y-51181428D01*
X86812380Y-51371904D01*
X86764761Y-51467142D01*
X86717142Y-51514761D01*
X86621904Y-51562380D01*
X86336190Y-51562380D01*
X86240952Y-51514761D01*
X86193333Y-51467142D01*
X86145714Y-51371904D01*
X86145714Y-51181428D01*
X86193333Y-51086190D01*
X86145714Y-50800476D02*
X86145714Y-50419523D01*
X85812380Y-50657619D02*
X86669523Y-50657619D01*
X86764761Y-50610000D01*
X86812380Y-50514761D01*
X86812380Y-50419523D01*
X100139523Y-75652380D02*
X99663333Y-75652380D01*
X99615714Y-76128571D01*
X99663333Y-76080952D01*
X99758571Y-76033333D01*
X99996666Y-76033333D01*
X100091904Y-76080952D01*
X100139523Y-76128571D01*
X100187142Y-76223809D01*
X100187142Y-76461904D01*
X100139523Y-76557142D01*
X100091904Y-76604761D01*
X99996666Y-76652380D01*
X99758571Y-76652380D01*
X99663333Y-76604761D01*
X99615714Y-76557142D01*
X100472857Y-75652380D02*
X100806190Y-76652380D01*
X101139523Y-75652380D01*
X61897619Y-47442380D02*
X61897619Y-46442380D01*
X62230952Y-47156666D01*
X62564285Y-46442380D01*
X62564285Y-47442380D01*
X63564285Y-47442380D02*
X62992857Y-47442380D01*
X63278571Y-47442380D02*
X63278571Y-46442380D01*
X63183333Y-46585238D01*
X63088095Y-46680476D01*
X62992857Y-46728095D01*
X64754761Y-47442380D02*
X64754761Y-46442380D01*
X65088095Y-47156666D01*
X65421428Y-46442380D01*
X65421428Y-47442380D01*
X65850000Y-46537619D02*
X65897619Y-46490000D01*
X65992857Y-46442380D01*
X66230952Y-46442380D01*
X66326190Y-46490000D01*
X66373809Y-46537619D01*
X66421428Y-46632857D01*
X66421428Y-46728095D01*
X66373809Y-46870952D01*
X65802380Y-47442380D01*
X66421428Y-47442380D01*
X67611904Y-47442380D02*
X67611904Y-46442380D01*
X67945238Y-47156666D01*
X68278571Y-46442380D01*
X68278571Y-47442380D01*
X68659523Y-46442380D02*
X69278571Y-46442380D01*
X68945238Y-46823333D01*
X69088095Y-46823333D01*
X69183333Y-46870952D01*
X69230952Y-46918571D01*
X69278571Y-47013809D01*
X69278571Y-47251904D01*
X69230952Y-47347142D01*
X69183333Y-47394761D01*
X69088095Y-47442380D01*
X68802380Y-47442380D01*
X68707142Y-47394761D01*
X68659523Y-47347142D01*
X70469047Y-47442380D02*
X70469047Y-46442380D01*
X70802380Y-47156666D01*
X71135714Y-46442380D01*
X71135714Y-47442380D01*
X72040476Y-46775714D02*
X72040476Y-47442380D01*
X71802380Y-46394761D02*
X71564285Y-47109047D01*
X72183333Y-47109047D01*
X73326190Y-47442380D02*
X73326190Y-46442380D01*
X73659523Y-47156666D01*
X73992857Y-46442380D01*
X73992857Y-47442380D01*
X74945238Y-46442380D02*
X74469047Y-46442380D01*
X74421428Y-46918571D01*
X74469047Y-46870952D01*
X74564285Y-46823333D01*
X74802380Y-46823333D01*
X74897619Y-46870952D01*
X74945238Y-46918571D01*
X74992857Y-47013809D01*
X74992857Y-47251904D01*
X74945238Y-47347142D01*
X74897619Y-47394761D01*
X74802380Y-47442380D01*
X74564285Y-47442380D01*
X74469047Y-47394761D01*
X74421428Y-47347142D01*
X76183333Y-47442380D02*
X76183333Y-46442380D01*
X76516666Y-47156666D01*
X76850000Y-46442380D01*
X76850000Y-47442380D01*
X77754761Y-46442380D02*
X77564285Y-46442380D01*
X77469047Y-46490000D01*
X77421428Y-46537619D01*
X77326190Y-46680476D01*
X77278571Y-46870952D01*
X77278571Y-47251904D01*
X77326190Y-47347142D01*
X77373809Y-47394761D01*
X77469047Y-47442380D01*
X77659523Y-47442380D01*
X77754761Y-47394761D01*
X77802380Y-47347142D01*
X77850000Y-47251904D01*
X77850000Y-47013809D01*
X77802380Y-46918571D01*
X77754761Y-46870952D01*
X77659523Y-46823333D01*
X77469047Y-46823333D01*
X77373809Y-46870952D01*
X77326190Y-46918571D01*
X77278571Y-47013809D01*
X75478095Y-94432380D02*
X75478095Y-93432380D01*
X75811428Y-94146666D01*
X76144761Y-93432380D01*
X76144761Y-94432380D01*
X76620952Y-94432380D02*
X76620952Y-93432380D01*
X77001904Y-93432380D01*
X77097142Y-93480000D01*
X77144761Y-93527619D01*
X77192380Y-93622857D01*
X77192380Y-93765714D01*
X77144761Y-93860952D01*
X77097142Y-93908571D01*
X77001904Y-93956190D01*
X76620952Y-93956190D01*
X77620952Y-93432380D02*
X77620952Y-94241904D01*
X77668571Y-94337142D01*
X77716190Y-94384761D01*
X77811428Y-94432380D01*
X78001904Y-94432380D01*
X78097142Y-94384761D01*
X78144761Y-94337142D01*
X78192380Y-94241904D01*
X78192380Y-93432380D01*
X79097142Y-93432380D02*
X78906666Y-93432380D01*
X78811428Y-93480000D01*
X78763809Y-93527619D01*
X78668571Y-93670476D01*
X78620952Y-93860952D01*
X78620952Y-94241904D01*
X78668571Y-94337142D01*
X78716190Y-94384761D01*
X78811428Y-94432380D01*
X79001904Y-94432380D01*
X79097142Y-94384761D01*
X79144761Y-94337142D01*
X79192380Y-94241904D01*
X79192380Y-94003809D01*
X79144761Y-93908571D01*
X79097142Y-93860952D01*
X79001904Y-93813333D01*
X78811428Y-93813333D01*
X78716190Y-93860952D01*
X78668571Y-93908571D01*
X78620952Y-94003809D01*
X79811428Y-93432380D02*
X79906666Y-93432380D01*
X80001904Y-93480000D01*
X80049523Y-93527619D01*
X80097142Y-93622857D01*
X80144761Y-93813333D01*
X80144761Y-94051428D01*
X80097142Y-94241904D01*
X80049523Y-94337142D01*
X80001904Y-94384761D01*
X79906666Y-94432380D01*
X79811428Y-94432380D01*
X79716190Y-94384761D01*
X79668571Y-94337142D01*
X79620952Y-94241904D01*
X79573333Y-94051428D01*
X79573333Y-93813333D01*
X79620952Y-93622857D01*
X79668571Y-93527619D01*
X79716190Y-93480000D01*
X79811428Y-93432380D01*
X81049523Y-93432380D02*
X80573333Y-93432380D01*
X80525714Y-93908571D01*
X80573333Y-93860952D01*
X80668571Y-93813333D01*
X80906666Y-93813333D01*
X81001904Y-93860952D01*
X81049523Y-93908571D01*
X81097142Y-94003809D01*
X81097142Y-94241904D01*
X81049523Y-94337142D01*
X81001904Y-94384761D01*
X80906666Y-94432380D01*
X80668571Y-94432380D01*
X80573333Y-94384761D01*
X80525714Y-94337142D01*
X81716190Y-93432380D02*
X81811428Y-93432380D01*
X81906666Y-93480000D01*
X81954285Y-93527619D01*
X82001904Y-93622857D01*
X82049523Y-93813333D01*
X82049523Y-94051428D01*
X82001904Y-94241904D01*
X81954285Y-94337142D01*
X81906666Y-94384761D01*
X81811428Y-94432380D01*
X81716190Y-94432380D01*
X81620952Y-94384761D01*
X81573333Y-94337142D01*
X81525714Y-94241904D01*
X81478095Y-94051428D01*
X81478095Y-93813333D01*
X81525714Y-93622857D01*
X81573333Y-93527619D01*
X81620952Y-93480000D01*
X81716190Y-93432380D01*
X54721428Y-93908571D02*
X54864285Y-93956190D01*
X54911904Y-94003809D01*
X54959523Y-94099047D01*
X54959523Y-94241904D01*
X54911904Y-94337142D01*
X54864285Y-94384761D01*
X54769047Y-94432380D01*
X54388095Y-94432380D01*
X54388095Y-93432380D01*
X54721428Y-93432380D01*
X54816666Y-93480000D01*
X54864285Y-93527619D01*
X54911904Y-93622857D01*
X54911904Y-93718095D01*
X54864285Y-93813333D01*
X54816666Y-93860952D01*
X54721428Y-93908571D01*
X54388095Y-93908571D01*
X55388095Y-94432380D02*
X55388095Y-93432380D01*
X55721428Y-94146666D01*
X56054761Y-93432380D01*
X56054761Y-94432380D01*
X56530952Y-94432380D02*
X56530952Y-93432380D01*
X56911904Y-93432380D01*
X57007142Y-93480000D01*
X57054761Y-93527619D01*
X57102380Y-93622857D01*
X57102380Y-93765714D01*
X57054761Y-93860952D01*
X57007142Y-93908571D01*
X56911904Y-93956190D01*
X56530952Y-93956190D01*
X58054761Y-94432380D02*
X57483333Y-94432380D01*
X57769047Y-94432380D02*
X57769047Y-93432380D01*
X57673809Y-93575238D01*
X57578571Y-93670476D01*
X57483333Y-93718095D01*
X58626190Y-93860952D02*
X58530952Y-93813333D01*
X58483333Y-93765714D01*
X58435714Y-93670476D01*
X58435714Y-93622857D01*
X58483333Y-93527619D01*
X58530952Y-93480000D01*
X58626190Y-93432380D01*
X58816666Y-93432380D01*
X58911904Y-93480000D01*
X58959523Y-93527619D01*
X59007142Y-93622857D01*
X59007142Y-93670476D01*
X58959523Y-93765714D01*
X58911904Y-93813333D01*
X58816666Y-93860952D01*
X58626190Y-93860952D01*
X58530952Y-93908571D01*
X58483333Y-93956190D01*
X58435714Y-94051428D01*
X58435714Y-94241904D01*
X58483333Y-94337142D01*
X58530952Y-94384761D01*
X58626190Y-94432380D01*
X58816666Y-94432380D01*
X58911904Y-94384761D01*
X58959523Y-94337142D01*
X59007142Y-94241904D01*
X59007142Y-94051428D01*
X58959523Y-93956190D01*
X58911904Y-93908571D01*
X58816666Y-93860952D01*
X59626190Y-93432380D02*
X59721428Y-93432380D01*
X59816666Y-93480000D01*
X59864285Y-93527619D01*
X59911904Y-93622857D01*
X59959523Y-93813333D01*
X59959523Y-94051428D01*
X59911904Y-94241904D01*
X59864285Y-94337142D01*
X59816666Y-94384761D01*
X59721428Y-94432380D01*
X59626190Y-94432380D01*
X59530952Y-94384761D01*
X59483333Y-94337142D01*
X59435714Y-94241904D01*
X59388095Y-94051428D01*
X59388095Y-93813333D01*
X59435714Y-93622857D01*
X59483333Y-93527619D01*
X59530952Y-93480000D01*
X59626190Y-93432380D01*
X99568095Y-68080000D02*
X99472857Y-68032380D01*
X99330000Y-68032380D01*
X99187142Y-68080000D01*
X99091904Y-68175238D01*
X99044285Y-68270476D01*
X98996666Y-68460952D01*
X98996666Y-68603809D01*
X99044285Y-68794285D01*
X99091904Y-68889523D01*
X99187142Y-68984761D01*
X99330000Y-69032380D01*
X99425238Y-69032380D01*
X99568095Y-68984761D01*
X99615714Y-68937142D01*
X99615714Y-68603809D01*
X99425238Y-68603809D01*
X100044285Y-69032380D02*
X100044285Y-68032380D01*
X100615714Y-69032380D01*
X100615714Y-68032380D01*
X101091904Y-69032380D02*
X101091904Y-68032380D01*
X101330000Y-68032380D01*
X101472857Y-68080000D01*
X101568095Y-68175238D01*
X101615714Y-68270476D01*
X101663333Y-68460952D01*
X101663333Y-68603809D01*
X101615714Y-68794285D01*
X101568095Y-68889523D01*
X101472857Y-68984761D01*
X101330000Y-69032380D01*
X101091904Y-69032380D01*
%TO.C,J7*%
X68246666Y-57292380D02*
X68246666Y-58006666D01*
X68199047Y-58149523D01*
X68103809Y-58244761D01*
X67960952Y-58292380D01*
X67865714Y-58292380D01*
X68627619Y-57292380D02*
X69294285Y-57292380D01*
X68865714Y-58292380D01*
%TO.C,J35*%
X65230476Y-57292380D02*
X65230476Y-58006666D01*
X65182857Y-58149523D01*
X65087619Y-58244761D01*
X64944761Y-58292380D01*
X64849523Y-58292380D01*
X65611428Y-57292380D02*
X66230476Y-57292380D01*
X65897142Y-57673333D01*
X66040000Y-57673333D01*
X66135238Y-57720952D01*
X66182857Y-57768571D01*
X66230476Y-57863809D01*
X66230476Y-58101904D01*
X66182857Y-58197142D01*
X66135238Y-58244761D01*
X66040000Y-58292380D01*
X65754285Y-58292380D01*
X65659047Y-58244761D01*
X65611428Y-58197142D01*
X67135238Y-57292380D02*
X66659047Y-57292380D01*
X66611428Y-57768571D01*
X66659047Y-57720952D01*
X66754285Y-57673333D01*
X66992380Y-57673333D01*
X67087619Y-57720952D01*
X67135238Y-57768571D01*
X67182857Y-57863809D01*
X67182857Y-58101904D01*
X67135238Y-58197142D01*
X67087619Y-58244761D01*
X66992380Y-58292380D01*
X66754285Y-58292380D01*
X66659047Y-58244761D01*
X66611428Y-58197142D01*
%TO.C,REF\u002A\u002A*%
X89622380Y-82233333D02*
X89146190Y-82566666D01*
X89622380Y-82804761D02*
X88622380Y-82804761D01*
X88622380Y-82423809D01*
X88670000Y-82328571D01*
X88717619Y-82280952D01*
X88812857Y-82233333D01*
X88955714Y-82233333D01*
X89050952Y-82280952D01*
X89098571Y-82328571D01*
X89146190Y-82423809D01*
X89146190Y-82804761D01*
X89098571Y-81804761D02*
X89098571Y-81471428D01*
X89622380Y-81328571D02*
X89622380Y-81804761D01*
X88622380Y-81804761D01*
X88622380Y-81328571D01*
X89098571Y-80566666D02*
X89098571Y-80900000D01*
X89622380Y-80900000D02*
X88622380Y-80900000D01*
X88622380Y-80423809D01*
X88622380Y-79900000D02*
X88860476Y-79900000D01*
X88765238Y-80138095D02*
X88860476Y-79900000D01*
X88765238Y-79661904D01*
X89050952Y-80042857D02*
X88860476Y-79900000D01*
X89050952Y-79757142D01*
X88622380Y-79138095D02*
X88860476Y-79138095D01*
X88765238Y-79376190D02*
X88860476Y-79138095D01*
X88765238Y-78900000D01*
X89050952Y-79280952D02*
X88860476Y-79138095D01*
X89050952Y-78995238D01*
%TO.C,J6*%
X63182380Y-91773333D02*
X63896666Y-91773333D01*
X64039523Y-91820952D01*
X64134761Y-91916190D01*
X64182380Y-92059047D01*
X64182380Y-92154285D01*
X63182380Y-90868571D02*
X63182380Y-91059047D01*
X63230000Y-91154285D01*
X63277619Y-91201904D01*
X63420476Y-91297142D01*
X63610952Y-91344761D01*
X63991904Y-91344761D01*
X64087142Y-91297142D01*
X64134761Y-91249523D01*
X64182380Y-91154285D01*
X64182380Y-90963809D01*
X64134761Y-90868571D01*
X64087142Y-90820952D01*
X63991904Y-90773333D01*
X63753809Y-90773333D01*
X63658571Y-90820952D01*
X63610952Y-90868571D01*
X63563333Y-90963809D01*
X63563333Y-91154285D01*
X63610952Y-91249523D01*
X63658571Y-91297142D01*
X63753809Y-91344761D01*
%TO.C,J4*%
X73326666Y-57307380D02*
X73326666Y-58021666D01*
X73279047Y-58164523D01*
X73183809Y-58259761D01*
X73040952Y-58307380D01*
X72945714Y-58307380D01*
X74231428Y-57640714D02*
X74231428Y-58307380D01*
X73993333Y-57259761D02*
X73755238Y-57974047D01*
X74374285Y-57974047D01*
%TO.C,J3*%
X75866666Y-57307380D02*
X75866666Y-58021666D01*
X75819047Y-58164523D01*
X75723809Y-58259761D01*
X75580952Y-58307380D01*
X75485714Y-58307380D01*
X76247619Y-57307380D02*
X76866666Y-57307380D01*
X76533333Y-57688333D01*
X76676190Y-57688333D01*
X76771428Y-57735952D01*
X76819047Y-57783571D01*
X76866666Y-57878809D01*
X76866666Y-58116904D01*
X76819047Y-58212142D01*
X76771428Y-58259761D01*
X76676190Y-58307380D01*
X76390476Y-58307380D01*
X76295238Y-58259761D01*
X76247619Y-58212142D01*
%TO.C,J1*%
X102536666Y-71842380D02*
X102536666Y-72556666D01*
X102489047Y-72699523D01*
X102393809Y-72794761D01*
X102250952Y-72842380D01*
X102155714Y-72842380D01*
X103536666Y-72842380D02*
X102965238Y-72842380D01*
X103250952Y-72842380D02*
X103250952Y-71842380D01*
X103155714Y-71985238D01*
X103060476Y-72080476D01*
X102965238Y-72128095D01*
%TO.C,J37*%
X62690476Y-57292380D02*
X62690476Y-58006666D01*
X62642857Y-58149523D01*
X62547619Y-58244761D01*
X62404761Y-58292380D01*
X62309523Y-58292380D01*
X63071428Y-57292380D02*
X63690476Y-57292380D01*
X63357142Y-57673333D01*
X63500000Y-57673333D01*
X63595238Y-57720952D01*
X63642857Y-57768571D01*
X63690476Y-57863809D01*
X63690476Y-58101904D01*
X63642857Y-58197142D01*
X63595238Y-58244761D01*
X63500000Y-58292380D01*
X63214285Y-58292380D01*
X63119047Y-58244761D01*
X63071428Y-58197142D01*
X64023809Y-57292380D02*
X64690476Y-57292380D01*
X64261904Y-58292380D01*
%TO.C,REF\u002A\u002A*%
X89582380Y-64833333D02*
X89106190Y-65166666D01*
X89582380Y-65404761D02*
X88582380Y-65404761D01*
X88582380Y-65023809D01*
X88630000Y-64928571D01*
X88677619Y-64880952D01*
X88772857Y-64833333D01*
X88915714Y-64833333D01*
X89010952Y-64880952D01*
X89058571Y-64928571D01*
X89106190Y-65023809D01*
X89106190Y-65404761D01*
X89058571Y-64404761D02*
X89058571Y-64071428D01*
X89582380Y-63928571D02*
X89582380Y-64404761D01*
X88582380Y-64404761D01*
X88582380Y-63928571D01*
X89058571Y-63166666D02*
X89058571Y-63500000D01*
X89582380Y-63500000D02*
X88582380Y-63500000D01*
X88582380Y-63023809D01*
X88582380Y-62500000D02*
X88820476Y-62500000D01*
X88725238Y-62738095D02*
X88820476Y-62500000D01*
X88725238Y-62261904D01*
X89010952Y-62642857D02*
X88820476Y-62500000D01*
X89010952Y-62357142D01*
X88582380Y-61738095D02*
X88820476Y-61738095D01*
X88725238Y-61976190D02*
X88820476Y-61738095D01*
X88725238Y-61500000D01*
X89010952Y-61880952D02*
X88820476Y-61738095D01*
X89010952Y-61595238D01*
%TO.C,J5*%
X70786666Y-57307380D02*
X70786666Y-58021666D01*
X70739047Y-58164523D01*
X70643809Y-58259761D01*
X70500952Y-58307380D01*
X70405714Y-58307380D01*
X71739047Y-57307380D02*
X71262857Y-57307380D01*
X71215238Y-57783571D01*
X71262857Y-57735952D01*
X71358095Y-57688333D01*
X71596190Y-57688333D01*
X71691428Y-57735952D01*
X71739047Y-57783571D01*
X71786666Y-57878809D01*
X71786666Y-58116904D01*
X71739047Y-58212142D01*
X71691428Y-58259761D01*
X71596190Y-58307380D01*
X71358095Y-58307380D01*
X71262857Y-58259761D01*
X71215238Y-58212142D01*
%TO.C,J36*%
X83010476Y-47392380D02*
X83010476Y-48106666D01*
X82962857Y-48249523D01*
X82867619Y-48344761D01*
X82724761Y-48392380D01*
X82629523Y-48392380D01*
X83391428Y-47392380D02*
X84010476Y-47392380D01*
X83677142Y-47773333D01*
X83820000Y-47773333D01*
X83915238Y-47820952D01*
X83962857Y-47868571D01*
X84010476Y-47963809D01*
X84010476Y-48201904D01*
X83962857Y-48297142D01*
X83915238Y-48344761D01*
X83820000Y-48392380D01*
X83534285Y-48392380D01*
X83439047Y-48344761D01*
X83391428Y-48297142D01*
X84867619Y-47392380D02*
X84677142Y-47392380D01*
X84581904Y-47440000D01*
X84534285Y-47487619D01*
X84439047Y-47630476D01*
X84391428Y-47820952D01*
X84391428Y-48201904D01*
X84439047Y-48297142D01*
X84486666Y-48344761D01*
X84581904Y-48392380D01*
X84772380Y-48392380D01*
X84867619Y-48344761D01*
X84915238Y-48297142D01*
X84962857Y-48201904D01*
X84962857Y-47963809D01*
X84915238Y-47868571D01*
X84867619Y-47820952D01*
X84772380Y-47773333D01*
X84581904Y-47773333D01*
X84486666Y-47820952D01*
X84439047Y-47868571D01*
X84391428Y-47963809D01*
%TO.C,U1*%
X94987619Y-72808095D02*
X94178095Y-72808095D01*
X94082857Y-72855714D01*
X94035238Y-72903333D01*
X93987619Y-72998571D01*
X93987619Y-73189047D01*
X94035238Y-73284285D01*
X94082857Y-73331904D01*
X94178095Y-73379523D01*
X94987619Y-73379523D01*
X93987619Y-74379523D02*
X93987619Y-73808095D01*
X93987619Y-74093809D02*
X94987619Y-74093809D01*
X94844761Y-73998571D01*
X94749523Y-73903333D01*
X94701904Y-73808095D01*
%TO.C,J2*%
X66547380Y-91748333D02*
X67261666Y-91748333D01*
X67404523Y-91795952D01*
X67499761Y-91891190D01*
X67547380Y-92034047D01*
X67547380Y-92129285D01*
X66642619Y-91319761D02*
X66595000Y-91272142D01*
X66547380Y-91176904D01*
X66547380Y-90938809D01*
X66595000Y-90843571D01*
X66642619Y-90795952D01*
X66737857Y-90748333D01*
X66833095Y-90748333D01*
X66975952Y-90795952D01*
X67547380Y-91367380D01*
X67547380Y-90748333D01*
D11*
%TO.C,J7*%
X69910000Y-49100000D02*
X67250000Y-49100000D01*
X69910000Y-54240000D02*
X67250000Y-54240000D01*
X69910000Y-56840000D02*
X68580000Y-56840000D01*
X67250000Y-54240000D02*
X67250000Y-49100000D01*
X69910000Y-54240000D02*
X69910000Y-49100000D01*
X69910000Y-55510000D02*
X69910000Y-56840000D01*
%TO.C,J35*%
X67370000Y-49100000D02*
X64710000Y-49100000D01*
X67370000Y-54240000D02*
X64710000Y-54240000D01*
X67370000Y-55510000D02*
X67370000Y-56840000D01*
X67370000Y-56840000D02*
X66040000Y-56840000D01*
X64710000Y-54240000D02*
X64710000Y-49100000D01*
X67370000Y-54240000D02*
X67370000Y-49100000D01*
%TO.C,REF\u002A\u002A*%
X87730000Y-80900000D02*
X87730000Y-82230000D01*
X85130000Y-79570000D02*
X57130000Y-79570000D01*
X87730000Y-82230000D02*
X86400000Y-82230000D01*
X85130000Y-82230000D02*
X57130000Y-82230000D01*
X57130000Y-79570000D02*
X57130000Y-82230000D01*
X85130000Y-79570000D02*
X85130000Y-82230000D01*
%TO.C,J6*%
X62290000Y-91440000D02*
X62290000Y-92770000D01*
X59690000Y-92770000D02*
X52010000Y-92770000D01*
X52010000Y-90110000D02*
X52010000Y-92770000D01*
X59690000Y-90110000D02*
X52010000Y-90110000D01*
X62290000Y-92770000D02*
X60960000Y-92770000D01*
X59690000Y-90110000D02*
X59690000Y-92770000D01*
%TO.C,J4*%
X74990000Y-56855000D02*
X73660000Y-56855000D01*
X74990000Y-54255000D02*
X74990000Y-49115000D01*
X74990000Y-49115000D02*
X72330000Y-49115000D01*
X74990000Y-54255000D02*
X72330000Y-54255000D01*
X74990000Y-55525000D02*
X74990000Y-56855000D01*
X72330000Y-54255000D02*
X72330000Y-49115000D01*
%TO.C,J3*%
X77530000Y-55525000D02*
X77530000Y-56855000D01*
X74870000Y-54255000D02*
X74870000Y-49115000D01*
X77530000Y-56855000D02*
X76200000Y-56855000D01*
X77530000Y-54255000D02*
X74870000Y-54255000D01*
X77530000Y-49115000D02*
X74870000Y-49115000D01*
X77530000Y-54255000D02*
X77530000Y-49115000D01*
%TO.C,J1*%
X101660000Y-73660000D02*
X101660000Y-74990000D01*
X101660000Y-74990000D02*
X100330000Y-74990000D01*
X101660000Y-72390000D02*
X99000000Y-72390000D01*
X101660000Y-69790000D02*
X99000000Y-69790000D01*
X99000000Y-72390000D02*
X99000000Y-69790000D01*
X101660000Y-72390000D02*
X101660000Y-69790000D01*
%TO.C,J37*%
X64830000Y-56840000D02*
X63500000Y-56840000D01*
X64830000Y-49100000D02*
X62170000Y-49100000D01*
X64830000Y-54240000D02*
X64830000Y-49100000D01*
X64830000Y-55510000D02*
X64830000Y-56840000D01*
X62170000Y-54240000D02*
X62170000Y-49100000D01*
X64830000Y-54240000D02*
X62170000Y-54240000D01*
%TO.C,REF\u002A\u002A*%
X85090000Y-62170000D02*
X85090000Y-64830000D01*
X87690000Y-64830000D02*
X86360000Y-64830000D01*
X85090000Y-64830000D02*
X49470000Y-64830000D01*
X85090000Y-62170000D02*
X49470000Y-62170000D01*
X87690000Y-63500000D02*
X87690000Y-64830000D01*
X49470000Y-62170000D02*
X49470000Y-64830000D01*
%TO.C,J5*%
X69790000Y-54255000D02*
X69790000Y-49115000D01*
X72450000Y-54255000D02*
X69790000Y-54255000D01*
X72450000Y-54255000D02*
X72450000Y-49115000D01*
X72450000Y-56855000D02*
X71120000Y-56855000D01*
X72450000Y-55525000D02*
X72450000Y-56855000D01*
X72450000Y-49115000D02*
X69790000Y-49115000D01*
%TO.C,J36*%
X82490000Y-51980000D02*
X85150000Y-51980000D01*
X83820000Y-49380000D02*
X85150000Y-49380000D01*
X85150000Y-49380000D02*
X85150000Y-50710000D01*
X85150000Y-51980000D02*
X85150000Y-59660000D01*
X82490000Y-59660000D02*
X85150000Y-59660000D01*
X82490000Y-51980000D02*
X82490000Y-59660000D01*
%TO.C,U1*%
X88860000Y-60870000D02*
X48260000Y-60870000D01*
X48260000Y-60870000D02*
X48260000Y-83910000D01*
X48260000Y-83910000D02*
X88860000Y-83910000D01*
X88860000Y-83910000D02*
X88860000Y-60870000D01*
%TO.C,J2*%
X71135000Y-92745000D02*
X71135000Y-90085000D01*
X68535000Y-91415000D02*
X68535000Y-90085000D01*
X68535000Y-90085000D02*
X69865000Y-90085000D01*
X71135000Y-92745000D02*
X88975000Y-92745000D01*
X88975000Y-92745000D02*
X88975000Y-90085000D01*
X71135000Y-90085000D02*
X88975000Y-90085000D01*
%TD*%
M02*
