%TF.GenerationSoftware,KiCad,Pcbnew,(6.0.9)*%
%TF.CreationDate,2023-02-14T12:36:16+03:00*%
%TF.ProjectId,kontrol_karti,6b6f6e74-726f-46c5-9f6b-617274692e6b,rev?*%
%TF.SameCoordinates,Original*%
%TF.FileFunction,Drillmap*%
%TF.FilePolarity,Positive*%
%FSLAX45Y45*%
G04 Gerber Fmt 4.5, Leading zero omitted, Abs format (unit mm)*
G04 Created by KiCad (PCBNEW (6.0.9)) date 2023-02-14 12:36:16*
%MOMM*%
%LPD*%
G01*
G04 APERTURE LIST*
%ADD10C,0.100000*%
%ADD11C,0.200000*%
G04 APERTURE END LIST*
D10*
X2000000Y-4300000D02*
X12000000Y-4300000D01*
X12000000Y-4300000D02*
X12000000Y-10300000D01*
X12000000Y-10300000D02*
X2000000Y-10300000D01*
X2000000Y-10300000D02*
X2000000Y-4300000D01*
D11*
X2252619Y-10615476D02*
X2252619Y-10415476D01*
X2300238Y-10415476D01*
X2328810Y-10425000D01*
X2347857Y-10444048D01*
X2357381Y-10463095D01*
X2366905Y-10501190D01*
X2366905Y-10529762D01*
X2357381Y-10567857D01*
X2347857Y-10586905D01*
X2328810Y-10605952D01*
X2300238Y-10615476D01*
X2252619Y-10615476D01*
X2452619Y-10615476D02*
X2452619Y-10482143D01*
X2452619Y-10520238D02*
X2462143Y-10501190D01*
X2471667Y-10491667D01*
X2490714Y-10482143D01*
X2509762Y-10482143D01*
X2576429Y-10615476D02*
X2576429Y-10482143D01*
X2576429Y-10415476D02*
X2566905Y-10425000D01*
X2576429Y-10434524D01*
X2585952Y-10425000D01*
X2576429Y-10415476D01*
X2576429Y-10434524D01*
X2700238Y-10615476D02*
X2681190Y-10605952D01*
X2671667Y-10586905D01*
X2671667Y-10415476D01*
X2805000Y-10615476D02*
X2785952Y-10605952D01*
X2776429Y-10586905D01*
X2776429Y-10415476D01*
X3033571Y-10615476D02*
X3033571Y-10415476D01*
X3100238Y-10558333D01*
X3166905Y-10415476D01*
X3166905Y-10615476D01*
X3347857Y-10615476D02*
X3347857Y-10510714D01*
X3338333Y-10491667D01*
X3319286Y-10482143D01*
X3281190Y-10482143D01*
X3262143Y-10491667D01*
X3347857Y-10605952D02*
X3328809Y-10615476D01*
X3281190Y-10615476D01*
X3262143Y-10605952D01*
X3252619Y-10586905D01*
X3252619Y-10567857D01*
X3262143Y-10548810D01*
X3281190Y-10539286D01*
X3328809Y-10539286D01*
X3347857Y-10529762D01*
X3443095Y-10482143D02*
X3443095Y-10682143D01*
X3443095Y-10491667D02*
X3462143Y-10482143D01*
X3500238Y-10482143D01*
X3519286Y-10491667D01*
X3528809Y-10501190D01*
X3538333Y-10520238D01*
X3538333Y-10577381D01*
X3528809Y-10596429D01*
X3519286Y-10605952D01*
X3500238Y-10615476D01*
X3462143Y-10615476D01*
X3443095Y-10605952D01*
X3624048Y-10596429D02*
X3633571Y-10605952D01*
X3624048Y-10615476D01*
X3614524Y-10605952D01*
X3624048Y-10596429D01*
X3624048Y-10615476D01*
X3624048Y-10491667D02*
X3633571Y-10501190D01*
X3624048Y-10510714D01*
X3614524Y-10501190D01*
X3624048Y-10491667D01*
X3624048Y-10510714D01*
M02*
