%TF.GenerationSoftware,KiCad,Pcbnew,(6.0.9)*%
%TF.CreationDate,2023-02-14T12:36:12+03:00*%
%TF.ProjectId,kontrol_karti,6b6f6e74-726f-46c5-9f6b-617274692e6b,rev?*%
%TF.SameCoordinates,Original*%
%TF.FileFunction,Copper,L1,Top*%
%TF.FilePolarity,Positive*%
%FSLAX46Y46*%
G04 Gerber Fmt 4.6, Leading zero omitted, Abs format (unit mm)*
G04 Created by KiCad (PCBNEW (6.0.9)) date 2023-02-14 12:36:12*
%MOMM*%
%LPD*%
G01*
G04 APERTURE LIST*
%ADD10C,0.300000*%
%TA.AperFunction,NonConductor*%
%ADD11C,0.300000*%
%TD*%
%TA.AperFunction,ComponentPad*%
%ADD12R,1.700000X1.700000*%
%TD*%
%TA.AperFunction,ComponentPad*%
%ADD13O,1.700000X1.700000*%
%TD*%
%TA.AperFunction,ComponentPad*%
%ADD14R,1.600000X1.600000*%
%TD*%
%TA.AperFunction,ComponentPad*%
%ADD15O,1.600000X1.600000*%
%TD*%
%TA.AperFunction,ComponentPad*%
%ADD16C,1.600000*%
%TD*%
%TA.AperFunction,Conductor*%
%ADD17C,1.500000*%
%TD*%
G04 APERTURE END LIST*
D10*
D11*
X24075714Y-96546785D02*
X24075714Y-97261071D01*
X23575714Y-95761071D02*
X24075714Y-96546785D01*
X24575714Y-95761071D01*
X25718571Y-97261071D02*
X25718571Y-96475357D01*
X25647142Y-96332500D01*
X25504285Y-96261071D01*
X25218571Y-96261071D01*
X25075714Y-96332500D01*
X25718571Y-97189642D02*
X25575714Y-97261071D01*
X25218571Y-97261071D01*
X25075714Y-97189642D01*
X25004285Y-97046785D01*
X25004285Y-96903928D01*
X25075714Y-96761071D01*
X25218571Y-96689642D01*
X25575714Y-96689642D01*
X25718571Y-96618214D01*
X26432857Y-97261071D02*
X26432857Y-95761071D01*
X26575714Y-96689642D02*
X27004285Y-97261071D01*
X27004285Y-96261071D02*
X26432857Y-96832500D01*
X28290000Y-97261071D02*
X28290000Y-96475357D01*
X28218571Y-96332500D01*
X28075714Y-96261071D01*
X27790000Y-96261071D01*
X27647142Y-96332500D01*
X28290000Y-97189642D02*
X28147142Y-97261071D01*
X27790000Y-97261071D01*
X27647142Y-97189642D01*
X27575714Y-97046785D01*
X27575714Y-96903928D01*
X27647142Y-96761071D01*
X27790000Y-96689642D01*
X28147142Y-96689642D01*
X28290000Y-96618214D01*
X29004285Y-97261071D02*
X29004285Y-96261071D01*
X29004285Y-96403928D02*
X29075714Y-96332500D01*
X29218571Y-96261071D01*
X29432857Y-96261071D01*
X29575714Y-96332500D01*
X29647142Y-96475357D01*
X29647142Y-97261071D01*
X29647142Y-96475357D02*
X29718571Y-96332500D01*
X29861428Y-96261071D01*
X30075714Y-96261071D01*
X30218571Y-96332500D01*
X30290000Y-96475357D01*
X30290000Y-97261071D01*
X31218571Y-97261071D02*
X31075714Y-97189642D01*
X31004285Y-97118214D01*
X30932857Y-96975357D01*
X30932857Y-96546785D01*
X31004285Y-96403928D01*
X31075714Y-96332500D01*
X31218571Y-96261071D01*
X31432857Y-96261071D01*
X31575714Y-96332500D01*
X31647142Y-96403928D01*
X31718571Y-96546785D01*
X31718571Y-96975357D01*
X31647142Y-97118214D01*
X31575714Y-97189642D01*
X31432857Y-97261071D01*
X31218571Y-97261071D01*
X32218571Y-96261071D02*
X33004285Y-96261071D01*
X32218571Y-97261071D01*
X33004285Y-97261071D01*
X35575714Y-97261071D02*
X35075714Y-96546785D01*
X34718571Y-97261071D02*
X34718571Y-95761071D01*
X35290000Y-95761071D01*
X35432857Y-95832500D01*
X35504285Y-95903928D01*
X35575714Y-96046785D01*
X35575714Y-96261071D01*
X35504285Y-96403928D01*
X35432857Y-96475357D01*
X35290000Y-96546785D01*
X34718571Y-96546785D01*
X36432857Y-97261071D02*
X36290000Y-97189642D01*
X36218571Y-97118214D01*
X36147142Y-96975357D01*
X36147142Y-96546785D01*
X36218571Y-96403928D01*
X36290000Y-96332500D01*
X36432857Y-96261071D01*
X36647142Y-96261071D01*
X36790000Y-96332500D01*
X36861428Y-96403928D01*
X36932857Y-96546785D01*
X36932857Y-96975357D01*
X36861428Y-97118214D01*
X36790000Y-97189642D01*
X36647142Y-97261071D01*
X36432857Y-97261071D01*
X37575714Y-97261071D02*
X37575714Y-95761071D01*
X37575714Y-96332500D02*
X37718571Y-96261071D01*
X38004285Y-96261071D01*
X38147142Y-96332500D01*
X38218571Y-96403928D01*
X38290000Y-96546785D01*
X38290000Y-96975357D01*
X38218571Y-97118214D01*
X38147142Y-97189642D01*
X38004285Y-97261071D01*
X37718571Y-97261071D01*
X37575714Y-97189642D01*
X39147142Y-97261071D02*
X39004285Y-97189642D01*
X38932857Y-97118214D01*
X38861428Y-96975357D01*
X38861428Y-96546785D01*
X38932857Y-96403928D01*
X39004285Y-96332500D01*
X39147142Y-96261071D01*
X39361428Y-96261071D01*
X39504285Y-96332500D01*
X39575714Y-96403928D01*
X39647142Y-96546785D01*
X39647142Y-96975357D01*
X39575714Y-97118214D01*
X39504285Y-97189642D01*
X39361428Y-97261071D01*
X39147142Y-97261071D01*
X40075714Y-96261071D02*
X40647142Y-96261071D01*
X40290000Y-95761071D02*
X40290000Y-97046785D01*
X40361428Y-97189642D01*
X40504285Y-97261071D01*
X40647142Y-97261071D01*
X41147142Y-97261071D02*
X41147142Y-96261071D01*
X41147142Y-95761071D02*
X41075714Y-95832500D01*
X41147142Y-95903928D01*
X41218571Y-95832500D01*
X41147142Y-95761071D01*
X41147142Y-95903928D01*
X42504285Y-97189642D02*
X42361428Y-97261071D01*
X42075714Y-97261071D01*
X41932857Y-97189642D01*
X41861428Y-97118214D01*
X41790000Y-96975357D01*
X41790000Y-96546785D01*
X41861428Y-96403928D01*
X41932857Y-96332500D01*
X42075714Y-96261071D01*
X42361428Y-96261071D01*
X42504285Y-96332500D01*
X43075714Y-97189642D02*
X43218571Y-97261071D01*
X43504285Y-97261071D01*
X43647142Y-97189642D01*
X43718571Y-97046785D01*
X43718571Y-96975357D01*
X43647142Y-96832500D01*
X43504285Y-96761071D01*
X43290000Y-96761071D01*
X43147142Y-96689642D01*
X43075714Y-96546785D01*
X43075714Y-96475357D01*
X43147142Y-96332500D01*
X43290000Y-96261071D01*
X43504285Y-96261071D01*
X43647142Y-96332500D01*
X30468571Y-99676071D02*
X30468571Y-98176071D01*
X31325714Y-99676071D02*
X30682857Y-98818928D01*
X31325714Y-98176071D02*
X30468571Y-99033214D01*
X32611428Y-99676071D02*
X32611428Y-98890357D01*
X32540000Y-98747500D01*
X32397142Y-98676071D01*
X32111428Y-98676071D01*
X31968571Y-98747500D01*
X32611428Y-99604642D02*
X32468571Y-99676071D01*
X32111428Y-99676071D01*
X31968571Y-99604642D01*
X31897142Y-99461785D01*
X31897142Y-99318928D01*
X31968571Y-99176071D01*
X32111428Y-99104642D01*
X32468571Y-99104642D01*
X32611428Y-99033214D01*
X33325714Y-99676071D02*
X33325714Y-98676071D01*
X33325714Y-98961785D02*
X33397142Y-98818928D01*
X33468571Y-98747500D01*
X33611428Y-98676071D01*
X33754285Y-98676071D01*
X34040000Y-98676071D02*
X34611428Y-98676071D01*
X34254285Y-98176071D02*
X34254285Y-99461785D01*
X34325714Y-99604642D01*
X34468571Y-99676071D01*
X34611428Y-99676071D01*
X36111428Y-98676071D02*
X36468571Y-99676071D01*
X36825714Y-98676071D01*
X38182857Y-99676071D02*
X37325714Y-99676071D01*
X37754285Y-99676071D02*
X37754285Y-98176071D01*
X37611428Y-98390357D01*
X37468571Y-98533214D01*
X37325714Y-98604642D01*
D12*
%TO.P,J7,1,Pin_1*%
%TO.N,A6*%
X68580000Y-55510000D03*
D13*
%TO.P,J7,2,Pin_2*%
%TO.N,GND*%
X68580000Y-52970000D03*
%TO.P,J7,3,Pin_3*%
%TO.N,+5V*%
X68580000Y-50430000D03*
%TD*%
D12*
%TO.P,J35,1,Pin_1*%
%TO.N,DA0*%
X66040000Y-55510000D03*
D13*
%TO.P,J35,2,Pin_2*%
%TO.N,GND*%
X66040000Y-52970000D03*
%TO.P,J35,3,Pin_3*%
%TO.N,+5V*%
X66040000Y-50430000D03*
%TD*%
D12*
%TO.P,REF\u002A\u002A,1*%
%TO.N,N/C*%
X86400000Y-80900000D03*
D13*
%TO.P,REF\u002A\u002A,2*%
X83860000Y-80900000D03*
%TO.P,REF\u002A\u002A,3*%
X81320000Y-80900000D03*
%TO.P,REF\u002A\u002A,4*%
X78780000Y-80900000D03*
%TO.P,REF\u002A\u002A,5*%
X76240000Y-80900000D03*
%TO.P,REF\u002A\u002A,6*%
X73700000Y-80900000D03*
%TO.P,REF\u002A\u002A,7*%
X71160000Y-80900000D03*
%TO.P,REF\u002A\u002A,8*%
X68620000Y-80900000D03*
%TO.P,REF\u002A\u002A,9*%
X66080000Y-80900000D03*
%TO.P,REF\u002A\u002A,10*%
X63540000Y-80900000D03*
%TO.P,REF\u002A\u002A,11*%
X61000000Y-80900000D03*
%TO.P,REF\u002A\u002A,12*%
X58460000Y-80900000D03*
%TD*%
D12*
%TO.P,J6,1,Pin_1*%
%TO.N,+3.3V*%
X60960000Y-91440000D03*
D13*
%TO.P,J6,2,Pin_2*%
%TO.N,GND*%
X58420000Y-91440000D03*
%TO.P,J6,3,Pin_3*%
%TO.N,SCL*%
X55880000Y-91440000D03*
%TO.P,J6,4,Pin_4*%
%TO.N,SDA*%
X53340000Y-91440000D03*
%TD*%
D12*
%TO.P,J4,1,Pin_1*%
%TO.N,A4*%
X73660000Y-55525000D03*
D13*
%TO.P,J4,2,Pin_2*%
%TO.N,GND*%
X73660000Y-52985000D03*
%TO.P,J4,3,Pin_3*%
%TO.N,+5V*%
X73660000Y-50445000D03*
%TD*%
D12*
%TO.P,J3,1,Pin_1*%
%TO.N,A3*%
X76200000Y-55525000D03*
D13*
%TO.P,J3,2,Pin_2*%
%TO.N,GND*%
X76200000Y-52985000D03*
%TO.P,J3,3,Pin_3*%
%TO.N,+5V*%
X76200000Y-50445000D03*
%TD*%
D12*
%TO.P,J1,1,Pin_1*%
%TO.N,+5V*%
X100330000Y-73660000D03*
D13*
%TO.P,J1,2,Pin_2*%
%TO.N,GND*%
X100330000Y-71120000D03*
%TD*%
D12*
%TO.P,J37,1,Pin_1*%
%TO.N,DA1*%
X63500000Y-55510000D03*
D13*
%TO.P,J37,2,Pin_2*%
%TO.N,GND*%
X63500000Y-52970000D03*
%TO.P,J37,3,Pin_3*%
%TO.N,+5V*%
X63500000Y-50430000D03*
%TD*%
D12*
%TO.P,REF\u002A\u002A,1*%
%TO.N,N/C*%
X86360000Y-63500000D03*
D13*
%TO.P,REF\u002A\u002A,2*%
X83820000Y-63500000D03*
%TO.P,REF\u002A\u002A,3*%
X81280000Y-63500000D03*
%TO.P,REF\u002A\u002A,4*%
X78740000Y-63500000D03*
%TO.P,REF\u002A\u002A,5*%
X76200000Y-63500000D03*
%TO.P,REF\u002A\u002A,6*%
X73660000Y-63500000D03*
%TO.P,REF\u002A\u002A,7*%
X71120000Y-63500000D03*
%TO.P,REF\u002A\u002A,8*%
X68580000Y-63500000D03*
%TO.P,REF\u002A\u002A,9*%
X66040000Y-63500000D03*
%TO.P,REF\u002A\u002A,10*%
X63500000Y-63500000D03*
%TO.P,REF\u002A\u002A,11*%
X60960000Y-63500000D03*
%TO.P,REF\u002A\u002A,12*%
X58420000Y-63500000D03*
%TO.P,REF\u002A\u002A,13*%
X55880000Y-63500000D03*
%TO.P,REF\u002A\u002A,14*%
X53340000Y-63500000D03*
%TO.P,REF\u002A\u002A,15*%
X50800000Y-63500000D03*
%TD*%
D12*
%TO.P,J5,1,Pin_1*%
%TO.N,A5*%
X71120000Y-55525000D03*
D13*
%TO.P,J5,2,Pin_2*%
%TO.N,GND*%
X71120000Y-52985000D03*
%TO.P,J5,3,Pin_3*%
%TO.N,+5V*%
X71120000Y-50445000D03*
%TD*%
D12*
%TO.P,J36,1,Pin_1*%
%TO.N,unconnected-(J36-Pad1)*%
X83820000Y-50710000D03*
D13*
%TO.P,J36,2,Pin_2*%
%TO.N,+3.3V*%
X83820000Y-53250000D03*
%TO.P,J36,3,Pin_3*%
%TO.N,GND*%
X83820000Y-55790000D03*
%TO.P,J36,4,Pin_4*%
%TO.N,A0*%
X83820000Y-58330000D03*
%TD*%
D14*
%TO.P,U1,1,BOOT/D13*%
%TO.N,Net-(J22-Pad1)*%
X86360000Y-63410000D03*
D15*
%TO.P,U1,2,A0*%
%TO.N,A0*%
X83820000Y-63410000D03*
%TO.P,U1,3,A1*%
%TO.N,Net-(J11-Pad1)*%
X81280000Y-63410000D03*
%TO.P,U1,4,A2*%
%TO.N,Net-(J13-Pad1)*%
X78740000Y-63410000D03*
%TO.P,U1,5,A3*%
%TO.N,A3*%
X76200000Y-63410000D03*
%TO.P,U1,6,A4*%
%TO.N,A4*%
X73660000Y-63410000D03*
D16*
%TO.P,U1,7,A5*%
%TO.N,A5*%
X71120000Y-63410000D03*
%TO.P,U1,8,A6*%
%TO.N,A6*%
X68580000Y-63410000D03*
%TO.P,U1,9,DA0/D12*%
%TO.N,DA0*%
X66040000Y-63410000D03*
%TO.P,U1,10,DA1/D11*%
%TO.N,DA1*%
X63500000Y-63410000D03*
%TO.P,U1,11,D10*%
%TO.N,Net-(J26-Pad1)*%
X60960000Y-63410000D03*
%TO.P,U1,12,D9*%
%TO.N,Net-(J28-Pad1)*%
X58420000Y-63410000D03*
%TO.P,U1,13,GND*%
%TO.N,GND*%
X55880000Y-63410000D03*
%TO.P,U1,14,3.3V*%
%TO.N,+3.3V*%
X53340000Y-63410000D03*
%TO.P,U1,15,5V*%
%TO.N,+5V*%
X50800000Y-63410000D03*
%TO.P,U1,16,GND*%
%TO.N,GND*%
X58420000Y-80910000D03*
%TO.P,U1,17,3.3V*%
%TO.N,+3.3V*%
X60960000Y-80910000D03*
%TO.P,U1,18,SD/D8*%
%TO.N,SDA*%
X63500000Y-80910000D03*
%TO.P,U1,19,SC/D7*%
%TO.N,SCL*%
X66040000Y-80910000D03*
%TO.P,U1,20,MC/D6*%
%TO.N,Net-(J16-Pad1)*%
X68580000Y-80910000D03*
%TO.P,U1,21,MI/D5*%
%TO.N,Net-(J14-Pad1)*%
X71120000Y-80910000D03*
%TO.P,U1,22,MO/D4*%
%TO.N,Net-(J12-Pad1)*%
X73660000Y-80910000D03*
%TO.P,U1,23*%
%TO.N,N/C*%
X76200000Y-80910000D03*
%TO.P,U1,24,D2/P0*%
%TO.N,Net-(J8-Pad1)*%
X78740000Y-80910000D03*
%TO.P,U1,25,D3/P1*%
%TO.N,Net-(J10-Pad1)*%
X81280000Y-80910000D03*
%TO.P,U1,26,D0/TX*%
%TO.N,Net-(J31-Pad1)*%
X83820000Y-80910000D03*
D14*
%TO.P,U1,27,EN*%
%TO.N,Net-(J30-Pad1)*%
X86360000Y-80910000D03*
%TD*%
D12*
%TO.P,J2,1,Pin_1*%
%TO.N,unconnected-(J2-Pad1)*%
X69865000Y-91415000D03*
D13*
%TO.P,J2,2,Pin_2*%
%TO.N,unconnected-(J2-Pad2)*%
X72405000Y-91415000D03*
%TO.P,J2,3,Pin_3*%
%TO.N,unconnected-(J2-Pad3)*%
X74945000Y-91415000D03*
%TO.P,J2,4,Pin_4*%
%TO.N,unconnected-(J2-Pad4)*%
X77485000Y-91415000D03*
%TO.P,J2,5,Pin_5*%
%TO.N,SDA*%
X80025000Y-91415000D03*
%TO.P,J2,6,Pin_6*%
%TO.N,SCL*%
X82565000Y-91415000D03*
%TO.P,J2,7,Pin_7*%
%TO.N,GND*%
X85105000Y-91415000D03*
%TO.P,J2,8,Pin_8*%
%TO.N,+5V*%
X87645000Y-91415000D03*
%TD*%
D17*
%TO.N,A0*%
X83820000Y-58330000D02*
X83820000Y-63410000D01*
%TO.N,A3*%
X76200000Y-55525000D02*
X76200000Y-63410000D01*
%TO.N,A4*%
X73660000Y-55525000D02*
X73660000Y-63410000D01*
%TO.N,A5*%
X71120000Y-55525000D02*
X71120000Y-63410000D01*
%TO.N,A6*%
X68580000Y-55510000D02*
X68580000Y-63410000D01*
%TO.N,DA0*%
X66040000Y-55510000D02*
X66040000Y-63410000D01*
%TO.N,DA1*%
X63500000Y-55510000D02*
X63500000Y-63410000D01*
%TO.N,GND*%
X67600000Y-88900000D02*
X59757919Y-88900000D01*
X83100000Y-88200000D02*
X68300000Y-88200000D01*
X59757919Y-88900000D02*
X58420000Y-90237919D01*
X79485000Y-52985000D02*
X76200000Y-52985000D01*
X85105000Y-90205000D02*
X83100000Y-88200000D01*
X68300000Y-88200000D02*
X67600000Y-88900000D01*
X83820000Y-55790000D02*
X82290000Y-55790000D01*
X85105000Y-91415000D02*
X85105000Y-90205000D01*
X58420000Y-90237919D02*
X58420000Y-91440000D01*
X82290000Y-55790000D02*
X79485000Y-52985000D01*
%TO.N,+5V*%
X87645000Y-91415000D02*
X91465000Y-91415000D01*
X71105000Y-50430000D02*
X71120000Y-50445000D01*
X71120000Y-50445000D02*
X73660000Y-50445000D01*
X66040000Y-50430000D02*
X68580000Y-50430000D01*
X100330000Y-82550000D02*
X100330000Y-73660000D01*
X50800000Y-58300000D02*
X58670000Y-50430000D01*
X50800000Y-63410000D02*
X50800000Y-58300000D01*
X58670000Y-50430000D02*
X63500000Y-50430000D01*
X73660000Y-50445000D02*
X76200000Y-50445000D01*
X91465000Y-91415000D02*
X100330000Y-82550000D01*
X63500000Y-50430000D02*
X66040000Y-50430000D01*
X68580000Y-50430000D02*
X71105000Y-50430000D01*
%TO.N,SDA*%
X63500000Y-82900000D02*
X63500000Y-80910000D01*
X53340000Y-89860000D02*
X58100000Y-85100000D01*
X58100000Y-85100000D02*
X61300000Y-85100000D01*
X53340000Y-91440000D02*
X53340000Y-89860000D01*
X61300000Y-85100000D02*
X63500000Y-82900000D01*
%TO.N,SCL*%
X66040000Y-84260000D02*
X66040000Y-80910000D01*
X59000000Y-87100000D02*
X63200000Y-87100000D01*
X63200000Y-87100000D02*
X66040000Y-84260000D01*
X55880000Y-91440000D02*
X55880000Y-90220000D01*
X55880000Y-90220000D02*
X59000000Y-87100000D01*
%TD*%
%TA.AperFunction,Conductor*%
%TO.N,GND*%
G36*
X119433621Y-43528502D02*
G01*
X119480114Y-43582158D01*
X119491500Y-43634500D01*
X119491500Y-102365500D01*
X119471498Y-102433621D01*
X119417842Y-102480114D01*
X119365500Y-102491500D01*
X20634500Y-102491500D01*
X20566379Y-102471498D01*
X20519886Y-102417842D01*
X20508500Y-102365500D01*
X20508500Y-100938500D01*
X22774357Y-100938500D01*
X45805643Y-100938500D01*
X45805643Y-94641500D01*
X22774357Y-94641500D01*
X22774357Y-100938500D01*
X20508500Y-100938500D01*
X20508500Y-91406695D01*
X51977251Y-91406695D01*
X51977548Y-91411848D01*
X51977548Y-91411851D01*
X51989812Y-91624547D01*
X51990110Y-91629715D01*
X51991247Y-91634761D01*
X51991248Y-91634767D01*
X52006641Y-91703069D01*
X52039222Y-91847639D01*
X52123266Y-92054616D01*
X52161384Y-92116819D01*
X52237291Y-92240688D01*
X52239987Y-92245088D01*
X52386250Y-92413938D01*
X52558126Y-92556632D01*
X52751000Y-92669338D01*
X52755825Y-92671180D01*
X52755826Y-92671181D01*
X52828612Y-92698975D01*
X52959692Y-92749030D01*
X52964760Y-92750061D01*
X52964763Y-92750062D01*
X53059862Y-92769410D01*
X53178597Y-92793567D01*
X53183772Y-92793757D01*
X53183774Y-92793757D01*
X53396673Y-92801564D01*
X53396677Y-92801564D01*
X53401837Y-92801753D01*
X53406957Y-92801097D01*
X53406959Y-92801097D01*
X53618288Y-92774025D01*
X53618289Y-92774025D01*
X53623416Y-92773368D01*
X53628366Y-92771883D01*
X53832429Y-92710661D01*
X53832434Y-92710659D01*
X53837384Y-92709174D01*
X54037994Y-92610896D01*
X54219860Y-92481173D01*
X54242320Y-92458792D01*
X54312418Y-92388938D01*
X54378096Y-92323489D01*
X54393673Y-92301812D01*
X54508453Y-92142077D01*
X54509776Y-92143028D01*
X54556645Y-92099857D01*
X54626580Y-92087625D01*
X54692026Y-92115144D01*
X54719875Y-92146994D01*
X54779987Y-92245088D01*
X54926250Y-92413938D01*
X55098126Y-92556632D01*
X55291000Y-92669338D01*
X55295825Y-92671180D01*
X55295826Y-92671181D01*
X55368612Y-92698975D01*
X55499692Y-92749030D01*
X55504760Y-92750061D01*
X55504763Y-92750062D01*
X55599862Y-92769410D01*
X55718597Y-92793567D01*
X55723772Y-92793757D01*
X55723774Y-92793757D01*
X55936673Y-92801564D01*
X55936677Y-92801564D01*
X55941837Y-92801753D01*
X55946957Y-92801097D01*
X55946959Y-92801097D01*
X56158288Y-92774025D01*
X56158289Y-92774025D01*
X56163416Y-92773368D01*
X56168366Y-92771883D01*
X56372429Y-92710661D01*
X56372434Y-92710659D01*
X56377384Y-92709174D01*
X56577994Y-92610896D01*
X56759860Y-92481173D01*
X56782320Y-92458792D01*
X56852418Y-92388938D01*
X56918096Y-92323489D01*
X56933673Y-92301812D01*
X57048453Y-92142077D01*
X57049640Y-92142930D01*
X57096960Y-92099362D01*
X57166897Y-92087145D01*
X57232338Y-92114678D01*
X57260166Y-92146511D01*
X57317694Y-92240388D01*
X57323777Y-92248699D01*
X57463213Y-92409667D01*
X57470580Y-92416883D01*
X57634434Y-92552916D01*
X57642881Y-92558831D01*
X57826756Y-92666279D01*
X57836042Y-92670729D01*
X58035001Y-92746703D01*
X58044899Y-92749579D01*
X58148250Y-92770606D01*
X58162299Y-92769410D01*
X58166000Y-92759065D01*
X58166000Y-92758517D01*
X58674000Y-92758517D01*
X58678064Y-92772359D01*
X58691478Y-92774393D01*
X58698184Y-92773534D01*
X58708262Y-92771392D01*
X58912255Y-92710191D01*
X58921842Y-92706433D01*
X59113095Y-92612739D01*
X59121945Y-92607464D01*
X59295328Y-92483792D01*
X59303193Y-92477145D01*
X59407897Y-92372805D01*
X59470268Y-92338889D01*
X59541075Y-92344077D01*
X59597837Y-92386723D01*
X59614819Y-92417826D01*
X59629195Y-92456173D01*
X59659385Y-92536705D01*
X59746739Y-92653261D01*
X59863295Y-92740615D01*
X59999684Y-92791745D01*
X60061866Y-92798500D01*
X61858134Y-92798500D01*
X61920316Y-92791745D01*
X62056705Y-92740615D01*
X62173261Y-92653261D01*
X62260615Y-92536705D01*
X62311745Y-92400316D01*
X62318500Y-92338134D01*
X62318500Y-92313134D01*
X68506500Y-92313134D01*
X68513255Y-92375316D01*
X68564385Y-92511705D01*
X68651739Y-92628261D01*
X68768295Y-92715615D01*
X68904684Y-92766745D01*
X68966866Y-92773500D01*
X70763134Y-92773500D01*
X70825316Y-92766745D01*
X70961705Y-92715615D01*
X71078261Y-92628261D01*
X71165615Y-92511705D01*
X71186433Y-92456173D01*
X71209598Y-92394382D01*
X71252240Y-92337618D01*
X71318802Y-92312918D01*
X71388150Y-92328126D01*
X71422817Y-92356114D01*
X71451250Y-92388938D01*
X71565959Y-92484171D01*
X71601938Y-92514041D01*
X71623126Y-92531632D01*
X71816000Y-92644338D01*
X71820825Y-92646180D01*
X71820826Y-92646181D01*
X71885679Y-92670946D01*
X72024692Y-92724030D01*
X72029760Y-92725061D01*
X72029763Y-92725062D01*
X72106209Y-92740615D01*
X72243597Y-92768567D01*
X72248772Y-92768757D01*
X72248774Y-92768757D01*
X72461673Y-92776564D01*
X72461677Y-92776564D01*
X72466837Y-92776753D01*
X72471957Y-92776097D01*
X72471959Y-92776097D01*
X72683288Y-92749025D01*
X72683289Y-92749025D01*
X72688416Y-92748368D01*
X72693966Y-92746703D01*
X72897429Y-92685661D01*
X72897434Y-92685659D01*
X72902384Y-92684174D01*
X73102994Y-92585896D01*
X73284860Y-92456173D01*
X73443096Y-92298489D01*
X73478665Y-92248990D01*
X73573453Y-92117077D01*
X73574776Y-92118028D01*
X73621645Y-92074857D01*
X73691580Y-92062625D01*
X73757026Y-92090144D01*
X73784875Y-92121994D01*
X73844987Y-92220088D01*
X73991250Y-92388938D01*
X74105959Y-92484171D01*
X74141938Y-92514041D01*
X74163126Y-92531632D01*
X74356000Y-92644338D01*
X74360825Y-92646180D01*
X74360826Y-92646181D01*
X74425679Y-92670946D01*
X74564692Y-92724030D01*
X74569760Y-92725061D01*
X74569763Y-92725062D01*
X74646209Y-92740615D01*
X74783597Y-92768567D01*
X74788772Y-92768757D01*
X74788774Y-92768757D01*
X75001673Y-92776564D01*
X75001677Y-92776564D01*
X75006837Y-92776753D01*
X75011957Y-92776097D01*
X75011959Y-92776097D01*
X75223288Y-92749025D01*
X75223289Y-92749025D01*
X75228416Y-92748368D01*
X75233966Y-92746703D01*
X75437429Y-92685661D01*
X75437434Y-92685659D01*
X75442384Y-92684174D01*
X75642994Y-92585896D01*
X75824860Y-92456173D01*
X75983096Y-92298489D01*
X76018665Y-92248990D01*
X76113453Y-92117077D01*
X76114776Y-92118028D01*
X76161645Y-92074857D01*
X76231580Y-92062625D01*
X76297026Y-92090144D01*
X76324875Y-92121994D01*
X76384987Y-92220088D01*
X76531250Y-92388938D01*
X76645959Y-92484171D01*
X76681938Y-92514041D01*
X76703126Y-92531632D01*
X76896000Y-92644338D01*
X76900825Y-92646180D01*
X76900826Y-92646181D01*
X76965679Y-92670946D01*
X77104692Y-92724030D01*
X77109760Y-92725061D01*
X77109763Y-92725062D01*
X77186209Y-92740615D01*
X77323597Y-92768567D01*
X77328772Y-92768757D01*
X77328774Y-92768757D01*
X77541673Y-92776564D01*
X77541677Y-92776564D01*
X77546837Y-92776753D01*
X77551957Y-92776097D01*
X77551959Y-92776097D01*
X77763288Y-92749025D01*
X77763289Y-92749025D01*
X77768416Y-92748368D01*
X77773966Y-92746703D01*
X77977429Y-92685661D01*
X77977434Y-92685659D01*
X77982384Y-92684174D01*
X78182994Y-92585896D01*
X78364860Y-92456173D01*
X78523096Y-92298489D01*
X78558665Y-92248990D01*
X78653453Y-92117077D01*
X78654776Y-92118028D01*
X78701645Y-92074857D01*
X78771580Y-92062625D01*
X78837026Y-92090144D01*
X78864875Y-92121994D01*
X78924987Y-92220088D01*
X79071250Y-92388938D01*
X79185959Y-92484171D01*
X79221938Y-92514041D01*
X79243126Y-92531632D01*
X79436000Y-92644338D01*
X79440825Y-92646180D01*
X79440826Y-92646181D01*
X79505679Y-92670946D01*
X79644692Y-92724030D01*
X79649760Y-92725061D01*
X79649763Y-92725062D01*
X79726209Y-92740615D01*
X79863597Y-92768567D01*
X79868772Y-92768757D01*
X79868774Y-92768757D01*
X80081673Y-92776564D01*
X80081677Y-92776564D01*
X80086837Y-92776753D01*
X80091957Y-92776097D01*
X80091959Y-92776097D01*
X80303288Y-92749025D01*
X80303289Y-92749025D01*
X80308416Y-92748368D01*
X80313966Y-92746703D01*
X80517429Y-92685661D01*
X80517434Y-92685659D01*
X80522384Y-92684174D01*
X80722994Y-92585896D01*
X80904860Y-92456173D01*
X81063096Y-92298489D01*
X81098665Y-92248990D01*
X81193453Y-92117077D01*
X81194776Y-92118028D01*
X81241645Y-92074857D01*
X81311580Y-92062625D01*
X81377026Y-92090144D01*
X81404875Y-92121994D01*
X81464987Y-92220088D01*
X81611250Y-92388938D01*
X81725959Y-92484171D01*
X81761938Y-92514041D01*
X81783126Y-92531632D01*
X81976000Y-92644338D01*
X81980825Y-92646180D01*
X81980826Y-92646181D01*
X82045679Y-92670946D01*
X82184692Y-92724030D01*
X82189760Y-92725061D01*
X82189763Y-92725062D01*
X82266209Y-92740615D01*
X82403597Y-92768567D01*
X82408772Y-92768757D01*
X82408774Y-92768757D01*
X82621673Y-92776564D01*
X82621677Y-92776564D01*
X82626837Y-92776753D01*
X82631957Y-92776097D01*
X82631959Y-92776097D01*
X82843288Y-92749025D01*
X82843289Y-92749025D01*
X82848416Y-92748368D01*
X82853966Y-92746703D01*
X83057429Y-92685661D01*
X83057434Y-92685659D01*
X83062384Y-92684174D01*
X83262994Y-92585896D01*
X83444860Y-92456173D01*
X83603096Y-92298489D01*
X83638665Y-92248990D01*
X83733453Y-92117077D01*
X83734640Y-92117930D01*
X83781960Y-92074362D01*
X83851897Y-92062145D01*
X83917338Y-92089678D01*
X83945166Y-92121511D01*
X84002694Y-92215388D01*
X84008777Y-92223699D01*
X84148213Y-92384667D01*
X84155580Y-92391883D01*
X84319434Y-92527916D01*
X84327881Y-92533831D01*
X84511756Y-92641279D01*
X84521042Y-92645729D01*
X84720001Y-92721703D01*
X84729899Y-92724579D01*
X84833250Y-92745606D01*
X84847299Y-92744410D01*
X84851000Y-92734065D01*
X84851000Y-92733517D01*
X85359000Y-92733517D01*
X85363064Y-92747359D01*
X85376478Y-92749393D01*
X85383184Y-92748534D01*
X85393262Y-92746392D01*
X85597255Y-92685191D01*
X85606842Y-92681433D01*
X85798095Y-92587739D01*
X85806945Y-92582464D01*
X85980328Y-92458792D01*
X85988200Y-92452139D01*
X86139052Y-92301812D01*
X86145730Y-92293965D01*
X86273022Y-92116819D01*
X86274279Y-92117722D01*
X86321373Y-92074362D01*
X86391311Y-92062145D01*
X86456751Y-92089678D01*
X86484579Y-92121511D01*
X86544987Y-92220088D01*
X86691250Y-92388938D01*
X86805959Y-92484171D01*
X86841938Y-92514041D01*
X86863126Y-92531632D01*
X87056000Y-92644338D01*
X87060825Y-92646180D01*
X87060826Y-92646181D01*
X87125679Y-92670946D01*
X87264692Y-92724030D01*
X87269760Y-92725061D01*
X87269763Y-92725062D01*
X87346209Y-92740615D01*
X87483597Y-92768567D01*
X87488772Y-92768757D01*
X87488774Y-92768757D01*
X87701673Y-92776564D01*
X87701677Y-92776564D01*
X87706837Y-92776753D01*
X87711957Y-92776097D01*
X87711959Y-92776097D01*
X87923288Y-92749025D01*
X87923289Y-92749025D01*
X87928416Y-92748368D01*
X87933966Y-92746703D01*
X88137432Y-92685660D01*
X88137435Y-92685659D01*
X88142384Y-92684174D01*
X88146531Y-92682143D01*
X88192268Y-92673500D01*
X91373604Y-92673500D01*
X91390051Y-92674578D01*
X91406516Y-92676746D01*
X91406520Y-92676746D01*
X91412086Y-92677479D01*
X91493489Y-92673640D01*
X91499424Y-92673500D01*
X91521999Y-92673500D01*
X91547989Y-92671181D01*
X91553248Y-92670822D01*
X91636488Y-92666896D01*
X91641947Y-92665646D01*
X91641952Y-92665645D01*
X91653970Y-92662892D01*
X91670899Y-92660211D01*
X91688762Y-92658617D01*
X91694178Y-92657135D01*
X91694180Y-92657135D01*
X91769133Y-92636630D01*
X91774251Y-92635344D01*
X91850000Y-92617995D01*
X91850002Y-92617994D01*
X91855470Y-92616742D01*
X91865970Y-92612263D01*
X91871967Y-92609706D01*
X91888142Y-92604073D01*
X91900039Y-92600818D01*
X91900043Y-92600817D01*
X91905451Y-92599337D01*
X91980667Y-92563461D01*
X91985476Y-92561290D01*
X92056949Y-92530804D01*
X92056950Y-92530804D01*
X92062109Y-92528603D01*
X92077110Y-92518749D01*
X92092025Y-92510346D01*
X92108218Y-92502622D01*
X92112769Y-92499352D01*
X92112772Y-92499350D01*
X92145996Y-92475476D01*
X92175892Y-92453994D01*
X92180232Y-92451011D01*
X92246010Y-92407804D01*
X92246018Y-92407798D01*
X92249874Y-92405265D01*
X92270662Y-92386743D01*
X92280939Y-92378510D01*
X92290654Y-92371529D01*
X92365063Y-92294745D01*
X92366452Y-92293335D01*
X101155263Y-83504525D01*
X101167654Y-83493657D01*
X101180848Y-83483533D01*
X101185292Y-83480123D01*
X101240158Y-83419826D01*
X101244257Y-83415531D01*
X101260198Y-83399590D01*
X101276942Y-83379564D01*
X101280401Y-83375599D01*
X101332708Y-83318115D01*
X101332709Y-83318114D01*
X101336485Y-83313964D01*
X101346016Y-83298770D01*
X101356085Y-83284910D01*
X101367593Y-83271147D01*
X101408869Y-83198782D01*
X101411579Y-83194253D01*
X101452885Y-83128405D01*
X101455864Y-83123656D01*
X101462553Y-83107017D01*
X101470012Y-83091587D01*
X101476119Y-83080881D01*
X101476123Y-83080872D01*
X101478898Y-83076007D01*
X101506715Y-82997454D01*
X101508576Y-82992529D01*
X101537564Y-82920420D01*
X101539656Y-82915217D01*
X101543294Y-82897650D01*
X101547899Y-82881156D01*
X101553889Y-82864241D01*
X101567359Y-82781990D01*
X101568319Y-82776811D01*
X101584276Y-82699758D01*
X101584276Y-82699757D01*
X101585213Y-82695233D01*
X101586815Y-82667452D01*
X101588262Y-82654347D01*
X101589286Y-82648090D01*
X101589286Y-82648086D01*
X101590194Y-82642543D01*
X101588516Y-82535736D01*
X101588500Y-82533757D01*
X101588500Y-74854874D01*
X101608502Y-74786753D01*
X101613661Y-74779327D01*
X101630615Y-74756705D01*
X101681745Y-74620316D01*
X101688500Y-74558134D01*
X101688500Y-72761866D01*
X101681745Y-72699684D01*
X101630615Y-72563295D01*
X101543261Y-72446739D01*
X101426705Y-72359385D01*
X101307687Y-72314767D01*
X101250923Y-72272125D01*
X101226223Y-72205564D01*
X101241430Y-72136215D01*
X101262977Y-72107535D01*
X101364052Y-72006812D01*
X101370730Y-71998965D01*
X101495003Y-71826020D01*
X101500313Y-71817183D01*
X101594670Y-71626267D01*
X101598469Y-71616672D01*
X101660377Y-71412910D01*
X101662555Y-71402837D01*
X101663986Y-71391962D01*
X101661775Y-71377778D01*
X101648617Y-71374000D01*
X99013225Y-71374000D01*
X98999694Y-71377973D01*
X98998257Y-71387966D01*
X99028565Y-71522446D01*
X99031645Y-71532275D01*
X99111770Y-71729603D01*
X99116413Y-71738794D01*
X99227694Y-71920388D01*
X99233777Y-71928699D01*
X99373213Y-72089667D01*
X99380577Y-72096879D01*
X99385522Y-72100985D01*
X99425156Y-72159889D01*
X99426653Y-72230870D01*
X99389537Y-72291392D01*
X99349264Y-72315910D01*
X99241705Y-72356232D01*
X99241704Y-72356233D01*
X99233295Y-72359385D01*
X99116739Y-72446739D01*
X99029385Y-72563295D01*
X98978255Y-72699684D01*
X98971500Y-72761866D01*
X98971500Y-74558134D01*
X98978255Y-74620316D01*
X99029385Y-74756705D01*
X99046327Y-74779311D01*
X99071174Y-74845815D01*
X99071500Y-74854874D01*
X99071500Y-81976522D01*
X99051498Y-82044643D01*
X99034595Y-82065617D01*
X90980617Y-90119595D01*
X90918305Y-90153621D01*
X90891522Y-90156500D01*
X88182692Y-90156500D01*
X88140632Y-90149273D01*
X87998087Y-90098795D01*
X87998083Y-90098794D01*
X87993212Y-90097069D01*
X87988119Y-90096162D01*
X87988116Y-90096161D01*
X87778373Y-90058800D01*
X87778367Y-90058799D01*
X87773284Y-90057894D01*
X87699452Y-90056992D01*
X87555081Y-90055228D01*
X87555079Y-90055228D01*
X87549911Y-90055165D01*
X87329091Y-90088955D01*
X87116756Y-90158357D01*
X86918607Y-90261507D01*
X86914474Y-90264610D01*
X86914471Y-90264612D01*
X86744100Y-90392530D01*
X86739965Y-90395635D01*
X86736393Y-90399373D01*
X86603470Y-90538469D01*
X86585629Y-90557138D01*
X86478204Y-90714618D01*
X86477898Y-90715066D01*
X86422987Y-90760069D01*
X86352462Y-90768240D01*
X86288715Y-90736986D01*
X86268018Y-90712502D01*
X86187426Y-90587926D01*
X86181136Y-90579757D01*
X86037806Y-90422240D01*
X86030273Y-90415215D01*
X85863139Y-90283222D01*
X85854552Y-90277517D01*
X85668117Y-90174599D01*
X85658705Y-90170369D01*
X85457959Y-90099280D01*
X85447988Y-90096646D01*
X85376837Y-90083972D01*
X85363540Y-90085432D01*
X85359000Y-90099989D01*
X85359000Y-92733517D01*
X84851000Y-92733517D01*
X84851000Y-90098102D01*
X84847082Y-90084758D01*
X84832806Y-90082771D01*
X84794324Y-90088660D01*
X84784288Y-90091051D01*
X84581868Y-90157212D01*
X84572359Y-90161209D01*
X84383463Y-90259542D01*
X84374738Y-90265036D01*
X84204433Y-90392905D01*
X84196726Y-90399748D01*
X84049590Y-90553717D01*
X84043109Y-90561722D01*
X83938498Y-90715074D01*
X83883587Y-90760076D01*
X83813062Y-90768247D01*
X83749315Y-90736993D01*
X83728618Y-90712509D01*
X83647822Y-90587617D01*
X83647820Y-90587614D01*
X83645014Y-90583277D01*
X83494670Y-90418051D01*
X83490619Y-90414852D01*
X83490615Y-90414848D01*
X83323414Y-90282800D01*
X83323410Y-90282798D01*
X83319359Y-90279598D01*
X83283028Y-90259542D01*
X83236611Y-90233919D01*
X83123789Y-90171638D01*
X83118920Y-90169914D01*
X83118916Y-90169912D01*
X82918087Y-90098795D01*
X82918083Y-90098794D01*
X82913212Y-90097069D01*
X82908119Y-90096162D01*
X82908116Y-90096161D01*
X82698373Y-90058800D01*
X82698367Y-90058799D01*
X82693284Y-90057894D01*
X82619452Y-90056992D01*
X82475081Y-90055228D01*
X82475079Y-90055228D01*
X82469911Y-90055165D01*
X82249091Y-90088955D01*
X82036756Y-90158357D01*
X81838607Y-90261507D01*
X81834474Y-90264610D01*
X81834471Y-90264612D01*
X81664100Y-90392530D01*
X81659965Y-90395635D01*
X81656393Y-90399373D01*
X81523470Y-90538469D01*
X81505629Y-90557138D01*
X81398201Y-90714621D01*
X81343293Y-90759621D01*
X81272768Y-90767792D01*
X81209021Y-90736538D01*
X81188324Y-90712054D01*
X81107822Y-90587617D01*
X81107820Y-90587614D01*
X81105014Y-90583277D01*
X80954670Y-90418051D01*
X80950619Y-90414852D01*
X80950615Y-90414848D01*
X80783414Y-90282800D01*
X80783410Y-90282798D01*
X80779359Y-90279598D01*
X80743028Y-90259542D01*
X80696611Y-90233919D01*
X80583789Y-90171638D01*
X80578920Y-90169914D01*
X80578916Y-90169912D01*
X80378087Y-90098795D01*
X80378083Y-90098794D01*
X80373212Y-90097069D01*
X80368119Y-90096162D01*
X80368116Y-90096161D01*
X80158373Y-90058800D01*
X80158367Y-90058799D01*
X80153284Y-90057894D01*
X80079452Y-90056992D01*
X79935081Y-90055228D01*
X79935079Y-90055228D01*
X79929911Y-90055165D01*
X79709091Y-90088955D01*
X79496756Y-90158357D01*
X79298607Y-90261507D01*
X79294474Y-90264610D01*
X79294471Y-90264612D01*
X79124100Y-90392530D01*
X79119965Y-90395635D01*
X79116393Y-90399373D01*
X78983470Y-90538469D01*
X78965629Y-90557138D01*
X78858201Y-90714621D01*
X78803293Y-90759621D01*
X78732768Y-90767792D01*
X78669021Y-90736538D01*
X78648324Y-90712054D01*
X78567822Y-90587617D01*
X78567820Y-90587614D01*
X78565014Y-90583277D01*
X78414670Y-90418051D01*
X78410619Y-90414852D01*
X78410615Y-90414848D01*
X78243414Y-90282800D01*
X78243410Y-90282798D01*
X78239359Y-90279598D01*
X78203028Y-90259542D01*
X78156611Y-90233919D01*
X78043789Y-90171638D01*
X78038920Y-90169914D01*
X78038916Y-90169912D01*
X77838087Y-90098795D01*
X77838083Y-90098794D01*
X77833212Y-90097069D01*
X77828119Y-90096162D01*
X77828116Y-90096161D01*
X77618373Y-90058800D01*
X77618367Y-90058799D01*
X77613284Y-90057894D01*
X77539452Y-90056992D01*
X77395081Y-90055228D01*
X77395079Y-90055228D01*
X77389911Y-90055165D01*
X77169091Y-90088955D01*
X76956756Y-90158357D01*
X76758607Y-90261507D01*
X76754474Y-90264610D01*
X76754471Y-90264612D01*
X76584100Y-90392530D01*
X76579965Y-90395635D01*
X76576393Y-90399373D01*
X76443470Y-90538469D01*
X76425629Y-90557138D01*
X76318201Y-90714621D01*
X76263293Y-90759621D01*
X76192768Y-90767792D01*
X76129021Y-90736538D01*
X76108324Y-90712054D01*
X76027822Y-90587617D01*
X76027820Y-90587614D01*
X76025014Y-90583277D01*
X75874670Y-90418051D01*
X75870619Y-90414852D01*
X75870615Y-90414848D01*
X75703414Y-90282800D01*
X75703410Y-90282798D01*
X75699359Y-90279598D01*
X75663028Y-90259542D01*
X75616611Y-90233919D01*
X75503789Y-90171638D01*
X75498920Y-90169914D01*
X75498916Y-90169912D01*
X75298087Y-90098795D01*
X75298083Y-90098794D01*
X75293212Y-90097069D01*
X75288119Y-90096162D01*
X75288116Y-90096161D01*
X75078373Y-90058800D01*
X75078367Y-90058799D01*
X75073284Y-90057894D01*
X74999452Y-90056992D01*
X74855081Y-90055228D01*
X74855079Y-90055228D01*
X74849911Y-90055165D01*
X74629091Y-90088955D01*
X74416756Y-90158357D01*
X74218607Y-90261507D01*
X74214474Y-90264610D01*
X74214471Y-90264612D01*
X74044100Y-90392530D01*
X74039965Y-90395635D01*
X74036393Y-90399373D01*
X73903470Y-90538469D01*
X73885629Y-90557138D01*
X73778201Y-90714621D01*
X73723293Y-90759621D01*
X73652768Y-90767792D01*
X73589021Y-90736538D01*
X73568324Y-90712054D01*
X73487822Y-90587617D01*
X73487820Y-90587614D01*
X73485014Y-90583277D01*
X73334670Y-90418051D01*
X73330619Y-90414852D01*
X73330615Y-90414848D01*
X73163414Y-90282800D01*
X73163410Y-90282798D01*
X73159359Y-90279598D01*
X73123028Y-90259542D01*
X73076611Y-90233919D01*
X72963789Y-90171638D01*
X72958920Y-90169914D01*
X72958916Y-90169912D01*
X72758087Y-90098795D01*
X72758083Y-90098794D01*
X72753212Y-90097069D01*
X72748119Y-90096162D01*
X72748116Y-90096161D01*
X72538373Y-90058800D01*
X72538367Y-90058799D01*
X72533284Y-90057894D01*
X72459452Y-90056992D01*
X72315081Y-90055228D01*
X72315079Y-90055228D01*
X72309911Y-90055165D01*
X72089091Y-90088955D01*
X71876756Y-90158357D01*
X71678607Y-90261507D01*
X71674474Y-90264610D01*
X71674471Y-90264612D01*
X71504100Y-90392530D01*
X71499965Y-90395635D01*
X71426717Y-90472285D01*
X71419283Y-90480064D01*
X71357759Y-90515494D01*
X71286846Y-90512037D01*
X71229060Y-90470791D01*
X71210207Y-90437243D01*
X71168767Y-90326703D01*
X71165615Y-90318295D01*
X71078261Y-90201739D01*
X70961705Y-90114385D01*
X70825316Y-90063255D01*
X70763134Y-90056500D01*
X68966866Y-90056500D01*
X68904684Y-90063255D01*
X68768295Y-90114385D01*
X68651739Y-90201739D01*
X68564385Y-90318295D01*
X68513255Y-90454684D01*
X68506500Y-90516866D01*
X68506500Y-92313134D01*
X62318500Y-92313134D01*
X62318500Y-90541866D01*
X62311745Y-90479684D01*
X62260615Y-90343295D01*
X62173261Y-90226739D01*
X62056705Y-90139385D01*
X61920316Y-90088255D01*
X61858134Y-90081500D01*
X60061866Y-90081500D01*
X59999684Y-90088255D01*
X59863295Y-90139385D01*
X59746739Y-90226739D01*
X59659385Y-90343295D01*
X59656233Y-90351703D01*
X59656232Y-90351705D01*
X59614722Y-90462433D01*
X59572081Y-90519198D01*
X59505519Y-90543898D01*
X59436170Y-90528691D01*
X59403546Y-90503004D01*
X59352799Y-90447234D01*
X59345273Y-90440215D01*
X59178139Y-90308222D01*
X59169552Y-90302517D01*
X58983117Y-90199599D01*
X58973705Y-90195369D01*
X58772959Y-90124280D01*
X58762988Y-90121646D01*
X58691837Y-90108972D01*
X58678540Y-90110432D01*
X58674000Y-90124989D01*
X58674000Y-92758517D01*
X58166000Y-92758517D01*
X58166000Y-90123102D01*
X58162082Y-90109758D01*
X58147806Y-90107771D01*
X58109324Y-90113660D01*
X58094264Y-90117248D01*
X58093856Y-90115537D01*
X58030610Y-90117446D01*
X57969752Y-90080883D01*
X57938324Y-90017222D01*
X57946302Y-89946675D01*
X57973348Y-89906439D01*
X58334029Y-89545759D01*
X59484383Y-88395405D01*
X59546695Y-88361379D01*
X59573478Y-88358500D01*
X63108604Y-88358500D01*
X63125051Y-88359578D01*
X63141516Y-88361746D01*
X63141520Y-88361746D01*
X63147086Y-88362479D01*
X63228489Y-88358640D01*
X63234424Y-88358500D01*
X63256999Y-88358500D01*
X63282989Y-88356181D01*
X63288248Y-88355822D01*
X63371488Y-88351896D01*
X63376947Y-88350646D01*
X63376952Y-88350645D01*
X63388970Y-88347892D01*
X63405899Y-88345211D01*
X63423762Y-88343617D01*
X63429178Y-88342135D01*
X63429180Y-88342135D01*
X63504133Y-88321630D01*
X63509251Y-88320344D01*
X63585000Y-88302995D01*
X63585002Y-88302994D01*
X63590470Y-88301742D01*
X63600970Y-88297263D01*
X63606967Y-88294706D01*
X63623142Y-88289073D01*
X63635039Y-88285818D01*
X63635043Y-88285817D01*
X63640451Y-88284337D01*
X63715667Y-88248461D01*
X63720476Y-88246290D01*
X63791949Y-88215804D01*
X63791950Y-88215804D01*
X63797109Y-88213603D01*
X63812110Y-88203749D01*
X63827025Y-88195346D01*
X63843218Y-88187622D01*
X63847769Y-88184352D01*
X63847772Y-88184350D01*
X63910881Y-88139001D01*
X63915232Y-88136011D01*
X63981010Y-88092804D01*
X63981018Y-88092798D01*
X63984874Y-88090265D01*
X64005662Y-88071743D01*
X64015939Y-88063510D01*
X64025654Y-88056529D01*
X64100063Y-87979746D01*
X64101451Y-87978337D01*
X66865263Y-85214525D01*
X66877654Y-85203657D01*
X66890848Y-85193533D01*
X66895292Y-85190123D01*
X66950158Y-85129826D01*
X66954257Y-85125531D01*
X66970199Y-85109589D01*
X66971996Y-85107440D01*
X66986933Y-85089576D01*
X66990401Y-85085601D01*
X67042712Y-85028112D01*
X67042719Y-85028103D01*
X67046485Y-85023964D01*
X67056014Y-85008773D01*
X67066089Y-84994907D01*
X67073993Y-84985454D01*
X67073998Y-84985447D01*
X67077594Y-84981146D01*
X67118901Y-84908727D01*
X67121585Y-84904244D01*
X67162883Y-84838408D01*
X67165864Y-84833656D01*
X67167954Y-84828456D01*
X67167957Y-84828451D01*
X67172553Y-84817017D01*
X67180012Y-84801588D01*
X67186117Y-84790885D01*
X67186120Y-84790877D01*
X67188899Y-84786006D01*
X67216713Y-84707463D01*
X67218578Y-84702527D01*
X67247566Y-84630416D01*
X67249656Y-84625217D01*
X67253294Y-84607650D01*
X67257899Y-84591156D01*
X67263889Y-84574241D01*
X67277355Y-84492009D01*
X67278317Y-84486819D01*
X67294277Y-84409754D01*
X67294278Y-84409750D01*
X67295213Y-84405233D01*
X67296815Y-84377452D01*
X67298262Y-84364347D01*
X67299286Y-84358090D01*
X67299286Y-84358083D01*
X67300194Y-84352542D01*
X67298516Y-84245705D01*
X67298500Y-84243727D01*
X67298500Y-81787244D01*
X67318502Y-81719123D01*
X67372158Y-81672630D01*
X67442432Y-81662526D01*
X67507012Y-81692020D01*
X67519461Y-81705544D01*
X67519987Y-81705088D01*
X67666250Y-81873938D01*
X67838126Y-82016632D01*
X68031000Y-82129338D01*
X68239692Y-82209030D01*
X68244760Y-82210061D01*
X68244763Y-82210062D01*
X68352017Y-82231883D01*
X68458597Y-82253567D01*
X68463772Y-82253757D01*
X68463774Y-82253757D01*
X68676673Y-82261564D01*
X68676677Y-82261564D01*
X68681837Y-82261753D01*
X68686957Y-82261097D01*
X68686959Y-82261097D01*
X68898288Y-82234025D01*
X68898289Y-82234025D01*
X68903416Y-82233368D01*
X68908366Y-82231883D01*
X69112429Y-82170661D01*
X69112434Y-82170659D01*
X69117384Y-82169174D01*
X69317994Y-82070896D01*
X69499860Y-81941173D01*
X69658096Y-81783489D01*
X69670479Y-81766257D01*
X69788453Y-81602077D01*
X69789776Y-81603028D01*
X69836645Y-81559857D01*
X69906580Y-81547625D01*
X69972026Y-81575144D01*
X69999875Y-81606994D01*
X70059987Y-81705088D01*
X70206250Y-81873938D01*
X70378126Y-82016632D01*
X70571000Y-82129338D01*
X70779692Y-82209030D01*
X70784760Y-82210061D01*
X70784763Y-82210062D01*
X70892017Y-82231883D01*
X70998597Y-82253567D01*
X71003772Y-82253757D01*
X71003774Y-82253757D01*
X71216673Y-82261564D01*
X71216677Y-82261564D01*
X71221837Y-82261753D01*
X71226957Y-82261097D01*
X71226959Y-82261097D01*
X71438288Y-82234025D01*
X71438289Y-82234025D01*
X71443416Y-82233368D01*
X71448366Y-82231883D01*
X71652429Y-82170661D01*
X71652434Y-82170659D01*
X71657384Y-82169174D01*
X71857994Y-82070896D01*
X72039860Y-81941173D01*
X72198096Y-81783489D01*
X72210479Y-81766257D01*
X72328453Y-81602077D01*
X72329776Y-81603028D01*
X72376645Y-81559857D01*
X72446580Y-81547625D01*
X72512026Y-81575144D01*
X72539875Y-81606994D01*
X72599987Y-81705088D01*
X72746250Y-81873938D01*
X72918126Y-82016632D01*
X73111000Y-82129338D01*
X73319692Y-82209030D01*
X73324760Y-82210061D01*
X73324763Y-82210062D01*
X73432017Y-82231883D01*
X73538597Y-82253567D01*
X73543772Y-82253757D01*
X73543774Y-82253757D01*
X73756673Y-82261564D01*
X73756677Y-82261564D01*
X73761837Y-82261753D01*
X73766957Y-82261097D01*
X73766959Y-82261097D01*
X73978288Y-82234025D01*
X73978289Y-82234025D01*
X73983416Y-82233368D01*
X73988366Y-82231883D01*
X74192429Y-82170661D01*
X74192434Y-82170659D01*
X74197384Y-82169174D01*
X74397994Y-82070896D01*
X74579860Y-81941173D01*
X74738096Y-81783489D01*
X74750479Y-81766257D01*
X74868453Y-81602077D01*
X74869776Y-81603028D01*
X74916645Y-81559857D01*
X74986580Y-81547625D01*
X75052026Y-81575144D01*
X75079875Y-81606994D01*
X75139987Y-81705088D01*
X75286250Y-81873938D01*
X75458126Y-82016632D01*
X75651000Y-82129338D01*
X75859692Y-82209030D01*
X75864760Y-82210061D01*
X75864763Y-82210062D01*
X75972017Y-82231883D01*
X76078597Y-82253567D01*
X76083772Y-82253757D01*
X76083774Y-82253757D01*
X76296673Y-82261564D01*
X76296677Y-82261564D01*
X76301837Y-82261753D01*
X76306957Y-82261097D01*
X76306959Y-82261097D01*
X76518288Y-82234025D01*
X76518289Y-82234025D01*
X76523416Y-82233368D01*
X76528366Y-82231883D01*
X76732429Y-82170661D01*
X76732434Y-82170659D01*
X76737384Y-82169174D01*
X76937994Y-82070896D01*
X77119860Y-81941173D01*
X77278096Y-81783489D01*
X77290479Y-81766257D01*
X77408453Y-81602077D01*
X77409776Y-81603028D01*
X77456645Y-81559857D01*
X77526580Y-81547625D01*
X77592026Y-81575144D01*
X77619875Y-81606994D01*
X77679987Y-81705088D01*
X77826250Y-81873938D01*
X77998126Y-82016632D01*
X78191000Y-82129338D01*
X78399692Y-82209030D01*
X78404760Y-82210061D01*
X78404763Y-82210062D01*
X78512017Y-82231883D01*
X78618597Y-82253567D01*
X78623772Y-82253757D01*
X78623774Y-82253757D01*
X78836673Y-82261564D01*
X78836677Y-82261564D01*
X78841837Y-82261753D01*
X78846957Y-82261097D01*
X78846959Y-82261097D01*
X79058288Y-82234025D01*
X79058289Y-82234025D01*
X79063416Y-82233368D01*
X79068366Y-82231883D01*
X79272429Y-82170661D01*
X79272434Y-82170659D01*
X79277384Y-82169174D01*
X79477994Y-82070896D01*
X79659860Y-81941173D01*
X79818096Y-81783489D01*
X79830479Y-81766257D01*
X79948453Y-81602077D01*
X79949776Y-81603028D01*
X79996645Y-81559857D01*
X80066580Y-81547625D01*
X80132026Y-81575144D01*
X80159875Y-81606994D01*
X80219987Y-81705088D01*
X80366250Y-81873938D01*
X80538126Y-82016632D01*
X80731000Y-82129338D01*
X80939692Y-82209030D01*
X80944760Y-82210061D01*
X80944763Y-82210062D01*
X81052017Y-82231883D01*
X81158597Y-82253567D01*
X81163772Y-82253757D01*
X81163774Y-82253757D01*
X81376673Y-82261564D01*
X81376677Y-82261564D01*
X81381837Y-82261753D01*
X81386957Y-82261097D01*
X81386959Y-82261097D01*
X81598288Y-82234025D01*
X81598289Y-82234025D01*
X81603416Y-82233368D01*
X81608366Y-82231883D01*
X81812429Y-82170661D01*
X81812434Y-82170659D01*
X81817384Y-82169174D01*
X82017994Y-82070896D01*
X82199860Y-81941173D01*
X82358096Y-81783489D01*
X82370479Y-81766257D01*
X82488453Y-81602077D01*
X82489776Y-81603028D01*
X82536645Y-81559857D01*
X82606580Y-81547625D01*
X82672026Y-81575144D01*
X82699875Y-81606994D01*
X82759987Y-81705088D01*
X82906250Y-81873938D01*
X83078126Y-82016632D01*
X83271000Y-82129338D01*
X83479692Y-82209030D01*
X83484760Y-82210061D01*
X83484763Y-82210062D01*
X83592017Y-82231883D01*
X83698597Y-82253567D01*
X83703772Y-82253757D01*
X83703774Y-82253757D01*
X83916673Y-82261564D01*
X83916677Y-82261564D01*
X83921837Y-82261753D01*
X83926957Y-82261097D01*
X83926959Y-82261097D01*
X84138288Y-82234025D01*
X84138289Y-82234025D01*
X84143416Y-82233368D01*
X84148366Y-82231883D01*
X84352429Y-82170661D01*
X84352434Y-82170659D01*
X84357384Y-82169174D01*
X84557994Y-82070896D01*
X84739860Y-81941173D01*
X84848091Y-81833319D01*
X84910462Y-81799404D01*
X84981268Y-81804592D01*
X85038030Y-81847238D01*
X85055012Y-81878341D01*
X85099385Y-81996705D01*
X85186739Y-82113261D01*
X85303295Y-82200615D01*
X85439684Y-82251745D01*
X85501866Y-82258500D01*
X87298134Y-82258500D01*
X87360316Y-82251745D01*
X87496705Y-82200615D01*
X87613261Y-82113261D01*
X87700615Y-81996705D01*
X87751745Y-81860316D01*
X87758500Y-81798134D01*
X87758500Y-80001866D01*
X87751745Y-79939684D01*
X87700615Y-79803295D01*
X87613261Y-79686739D01*
X87496705Y-79599385D01*
X87360316Y-79548255D01*
X87298134Y-79541500D01*
X85501866Y-79541500D01*
X85439684Y-79548255D01*
X85303295Y-79599385D01*
X85186739Y-79686739D01*
X85099385Y-79803295D01*
X85096233Y-79811703D01*
X85054919Y-79921907D01*
X85012277Y-79978671D01*
X84945716Y-80003371D01*
X84876367Y-79988163D01*
X84843743Y-79962476D01*
X84793151Y-79906875D01*
X84793142Y-79906866D01*
X84789670Y-79903051D01*
X84785619Y-79899852D01*
X84785615Y-79899848D01*
X84618414Y-79767800D01*
X84618410Y-79767798D01*
X84614359Y-79764598D01*
X84418789Y-79656638D01*
X84413920Y-79654914D01*
X84413916Y-79654912D01*
X84213087Y-79583795D01*
X84213083Y-79583794D01*
X84208212Y-79582069D01*
X84203119Y-79581162D01*
X84203116Y-79581161D01*
X83993373Y-79543800D01*
X83993367Y-79543799D01*
X83988284Y-79542894D01*
X83914452Y-79541992D01*
X83770081Y-79540228D01*
X83770079Y-79540228D01*
X83764911Y-79540165D01*
X83544091Y-79573955D01*
X83331756Y-79643357D01*
X83133607Y-79746507D01*
X83129474Y-79749610D01*
X83129471Y-79749612D01*
X82959100Y-79877530D01*
X82954965Y-79880635D01*
X82915525Y-79921907D01*
X82861280Y-79978671D01*
X82800629Y-80042138D01*
X82693201Y-80199621D01*
X82638293Y-80244621D01*
X82567768Y-80252792D01*
X82504021Y-80221538D01*
X82483324Y-80197054D01*
X82402822Y-80072617D01*
X82402820Y-80072614D01*
X82400014Y-80068277D01*
X82249670Y-79903051D01*
X82245619Y-79899852D01*
X82245615Y-79899848D01*
X82078414Y-79767800D01*
X82078410Y-79767798D01*
X82074359Y-79764598D01*
X81878789Y-79656638D01*
X81873920Y-79654914D01*
X81873916Y-79654912D01*
X81673087Y-79583795D01*
X81673083Y-79583794D01*
X81668212Y-79582069D01*
X81663119Y-79581162D01*
X81663116Y-79581161D01*
X81453373Y-79543800D01*
X81453367Y-79543799D01*
X81448284Y-79542894D01*
X81374452Y-79541992D01*
X81230081Y-79540228D01*
X81230079Y-79540228D01*
X81224911Y-79540165D01*
X81004091Y-79573955D01*
X80791756Y-79643357D01*
X80593607Y-79746507D01*
X80589474Y-79749610D01*
X80589471Y-79749612D01*
X80419100Y-79877530D01*
X80414965Y-79880635D01*
X80375525Y-79921907D01*
X80321280Y-79978671D01*
X80260629Y-80042138D01*
X80153201Y-80199621D01*
X80098293Y-80244621D01*
X80027768Y-80252792D01*
X79964021Y-80221538D01*
X79943324Y-80197054D01*
X79862822Y-80072617D01*
X79862820Y-80072614D01*
X79860014Y-80068277D01*
X79709670Y-79903051D01*
X79705619Y-79899852D01*
X79705615Y-79899848D01*
X79538414Y-79767800D01*
X79538410Y-79767798D01*
X79534359Y-79764598D01*
X79338789Y-79656638D01*
X79333920Y-79654914D01*
X79333916Y-79654912D01*
X79133087Y-79583795D01*
X79133083Y-79583794D01*
X79128212Y-79582069D01*
X79123119Y-79581162D01*
X79123116Y-79581161D01*
X78913373Y-79543800D01*
X78913367Y-79543799D01*
X78908284Y-79542894D01*
X78834452Y-79541992D01*
X78690081Y-79540228D01*
X78690079Y-79540228D01*
X78684911Y-79540165D01*
X78464091Y-79573955D01*
X78251756Y-79643357D01*
X78053607Y-79746507D01*
X78049474Y-79749610D01*
X78049471Y-79749612D01*
X77879100Y-79877530D01*
X77874965Y-79880635D01*
X77835525Y-79921907D01*
X77781280Y-79978671D01*
X77720629Y-80042138D01*
X77613201Y-80199621D01*
X77558293Y-80244621D01*
X77487768Y-80252792D01*
X77424021Y-80221538D01*
X77403324Y-80197054D01*
X77322822Y-80072617D01*
X77322820Y-80072614D01*
X77320014Y-80068277D01*
X77169670Y-79903051D01*
X77165619Y-79899852D01*
X77165615Y-79899848D01*
X76998414Y-79767800D01*
X76998410Y-79767798D01*
X76994359Y-79764598D01*
X76798789Y-79656638D01*
X76793920Y-79654914D01*
X76793916Y-79654912D01*
X76593087Y-79583795D01*
X76593083Y-79583794D01*
X76588212Y-79582069D01*
X76583119Y-79581162D01*
X76583116Y-79581161D01*
X76373373Y-79543800D01*
X76373367Y-79543799D01*
X76368284Y-79542894D01*
X76294452Y-79541992D01*
X76150081Y-79540228D01*
X76150079Y-79540228D01*
X76144911Y-79540165D01*
X75924091Y-79573955D01*
X75711756Y-79643357D01*
X75513607Y-79746507D01*
X75509474Y-79749610D01*
X75509471Y-79749612D01*
X75339100Y-79877530D01*
X75334965Y-79880635D01*
X75295525Y-79921907D01*
X75241280Y-79978671D01*
X75180629Y-80042138D01*
X75073201Y-80199621D01*
X75018293Y-80244621D01*
X74947768Y-80252792D01*
X74884021Y-80221538D01*
X74863324Y-80197054D01*
X74782822Y-80072617D01*
X74782820Y-80072614D01*
X74780014Y-80068277D01*
X74629670Y-79903051D01*
X74625619Y-79899852D01*
X74625615Y-79899848D01*
X74458414Y-79767800D01*
X74458410Y-79767798D01*
X74454359Y-79764598D01*
X74258789Y-79656638D01*
X74253920Y-79654914D01*
X74253916Y-79654912D01*
X74053087Y-79583795D01*
X74053083Y-79583794D01*
X74048212Y-79582069D01*
X74043119Y-79581162D01*
X74043116Y-79581161D01*
X73833373Y-79543800D01*
X73833367Y-79543799D01*
X73828284Y-79542894D01*
X73754452Y-79541992D01*
X73610081Y-79540228D01*
X73610079Y-79540228D01*
X73604911Y-79540165D01*
X73384091Y-79573955D01*
X73171756Y-79643357D01*
X72973607Y-79746507D01*
X72969474Y-79749610D01*
X72969471Y-79749612D01*
X72799100Y-79877530D01*
X72794965Y-79880635D01*
X72755525Y-79921907D01*
X72701280Y-79978671D01*
X72640629Y-80042138D01*
X72533201Y-80199621D01*
X72478293Y-80244621D01*
X72407768Y-80252792D01*
X72344021Y-80221538D01*
X72323324Y-80197054D01*
X72242822Y-80072617D01*
X72242820Y-80072614D01*
X72240014Y-80068277D01*
X72089670Y-79903051D01*
X72085619Y-79899852D01*
X72085615Y-79899848D01*
X71918414Y-79767800D01*
X71918410Y-79767798D01*
X71914359Y-79764598D01*
X71718789Y-79656638D01*
X71713920Y-79654914D01*
X71713916Y-79654912D01*
X71513087Y-79583795D01*
X71513083Y-79583794D01*
X71508212Y-79582069D01*
X71503119Y-79581162D01*
X71503116Y-79581161D01*
X71293373Y-79543800D01*
X71293367Y-79543799D01*
X71288284Y-79542894D01*
X71214452Y-79541992D01*
X71070081Y-79540228D01*
X71070079Y-79540228D01*
X71064911Y-79540165D01*
X70844091Y-79573955D01*
X70631756Y-79643357D01*
X70433607Y-79746507D01*
X70429474Y-79749610D01*
X70429471Y-79749612D01*
X70259100Y-79877530D01*
X70254965Y-79880635D01*
X70215525Y-79921907D01*
X70161280Y-79978671D01*
X70100629Y-80042138D01*
X69993201Y-80199621D01*
X69938293Y-80244621D01*
X69867768Y-80252792D01*
X69804021Y-80221538D01*
X69783324Y-80197054D01*
X69702822Y-80072617D01*
X69702820Y-80072614D01*
X69700014Y-80068277D01*
X69549670Y-79903051D01*
X69545619Y-79899852D01*
X69545615Y-79899848D01*
X69378414Y-79767800D01*
X69378410Y-79767798D01*
X69374359Y-79764598D01*
X69178789Y-79656638D01*
X69173920Y-79654914D01*
X69173916Y-79654912D01*
X68973087Y-79583795D01*
X68973083Y-79583794D01*
X68968212Y-79582069D01*
X68963119Y-79581162D01*
X68963116Y-79581161D01*
X68753373Y-79543800D01*
X68753367Y-79543799D01*
X68748284Y-79542894D01*
X68674452Y-79541992D01*
X68530081Y-79540228D01*
X68530079Y-79540228D01*
X68524911Y-79540165D01*
X68304091Y-79573955D01*
X68091756Y-79643357D01*
X67893607Y-79746507D01*
X67889474Y-79749610D01*
X67889471Y-79749612D01*
X67719100Y-79877530D01*
X67714965Y-79880635D01*
X67675525Y-79921907D01*
X67621280Y-79978671D01*
X67560629Y-80042138D01*
X67453201Y-80199621D01*
X67398293Y-80244621D01*
X67327768Y-80252792D01*
X67264021Y-80221538D01*
X67243324Y-80197054D01*
X67162822Y-80072617D01*
X67162820Y-80072614D01*
X67160014Y-80068277D01*
X67009670Y-79903051D01*
X67005619Y-79899852D01*
X67005615Y-79899848D01*
X66838414Y-79767800D01*
X66838410Y-79767798D01*
X66834359Y-79764598D01*
X66638789Y-79656638D01*
X66633920Y-79654914D01*
X66633916Y-79654912D01*
X66433087Y-79583795D01*
X66433083Y-79583794D01*
X66428212Y-79582069D01*
X66423119Y-79581162D01*
X66423116Y-79581161D01*
X66213373Y-79543800D01*
X66213367Y-79543799D01*
X66208284Y-79542894D01*
X66134452Y-79541992D01*
X65990081Y-79540228D01*
X65990079Y-79540228D01*
X65984911Y-79540165D01*
X65764091Y-79573955D01*
X65551756Y-79643357D01*
X65353607Y-79746507D01*
X65349474Y-79749610D01*
X65349471Y-79749612D01*
X65179100Y-79877530D01*
X65174965Y-79880635D01*
X65135525Y-79921907D01*
X65081280Y-79978671D01*
X65020629Y-80042138D01*
X64913201Y-80199621D01*
X64858293Y-80244621D01*
X64787768Y-80252792D01*
X64724021Y-80221538D01*
X64703324Y-80197054D01*
X64622822Y-80072617D01*
X64622820Y-80072614D01*
X64620014Y-80068277D01*
X64469670Y-79903051D01*
X64465619Y-79899852D01*
X64465615Y-79899848D01*
X64298414Y-79767800D01*
X64298410Y-79767798D01*
X64294359Y-79764598D01*
X64098789Y-79656638D01*
X64093920Y-79654914D01*
X64093916Y-79654912D01*
X63893087Y-79583795D01*
X63893083Y-79583794D01*
X63888212Y-79582069D01*
X63883119Y-79581162D01*
X63883116Y-79581161D01*
X63673373Y-79543800D01*
X63673367Y-79543799D01*
X63668284Y-79542894D01*
X63594452Y-79541992D01*
X63450081Y-79540228D01*
X63450079Y-79540228D01*
X63444911Y-79540165D01*
X63224091Y-79573955D01*
X63011756Y-79643357D01*
X62813607Y-79746507D01*
X62809474Y-79749610D01*
X62809471Y-79749612D01*
X62639100Y-79877530D01*
X62634965Y-79880635D01*
X62595525Y-79921907D01*
X62541280Y-79978671D01*
X62480629Y-80042138D01*
X62373201Y-80199621D01*
X62318293Y-80244621D01*
X62247768Y-80252792D01*
X62184021Y-80221538D01*
X62163324Y-80197054D01*
X62082822Y-80072617D01*
X62082820Y-80072614D01*
X62080014Y-80068277D01*
X61929670Y-79903051D01*
X61925619Y-79899852D01*
X61925615Y-79899848D01*
X61758414Y-79767800D01*
X61758410Y-79767798D01*
X61754359Y-79764598D01*
X61558789Y-79656638D01*
X61553920Y-79654914D01*
X61553916Y-79654912D01*
X61353087Y-79583795D01*
X61353083Y-79583794D01*
X61348212Y-79582069D01*
X61343119Y-79581162D01*
X61343116Y-79581161D01*
X61133373Y-79543800D01*
X61133367Y-79543799D01*
X61128284Y-79542894D01*
X61054452Y-79541992D01*
X60910081Y-79540228D01*
X60910079Y-79540228D01*
X60904911Y-79540165D01*
X60684091Y-79573955D01*
X60471756Y-79643357D01*
X60273607Y-79746507D01*
X60269474Y-79749610D01*
X60269471Y-79749612D01*
X60099100Y-79877530D01*
X60094965Y-79880635D01*
X60055525Y-79921907D01*
X60001280Y-79978671D01*
X59940629Y-80042138D01*
X59833201Y-80199621D01*
X59778293Y-80244621D01*
X59707768Y-80252792D01*
X59644021Y-80221538D01*
X59623324Y-80197054D01*
X59542822Y-80072617D01*
X59542820Y-80072614D01*
X59540014Y-80068277D01*
X59389670Y-79903051D01*
X59385619Y-79899852D01*
X59385615Y-79899848D01*
X59218414Y-79767800D01*
X59218410Y-79767798D01*
X59214359Y-79764598D01*
X59018789Y-79656638D01*
X59013920Y-79654914D01*
X59013916Y-79654912D01*
X58813087Y-79583795D01*
X58813083Y-79583794D01*
X58808212Y-79582069D01*
X58803119Y-79581162D01*
X58803116Y-79581161D01*
X58593373Y-79543800D01*
X58593367Y-79543799D01*
X58588284Y-79542894D01*
X58514452Y-79541992D01*
X58370081Y-79540228D01*
X58370079Y-79540228D01*
X58364911Y-79540165D01*
X58144091Y-79573955D01*
X57931756Y-79643357D01*
X57733607Y-79746507D01*
X57729474Y-79749610D01*
X57729471Y-79749612D01*
X57559100Y-79877530D01*
X57554965Y-79880635D01*
X57515525Y-79921907D01*
X57461280Y-79978671D01*
X57400629Y-80042138D01*
X57274743Y-80226680D01*
X57180688Y-80429305D01*
X57120989Y-80644570D01*
X57097251Y-80866695D01*
X57110110Y-81089715D01*
X57111247Y-81094761D01*
X57111248Y-81094767D01*
X57135304Y-81201508D01*
X57159222Y-81307639D01*
X57191723Y-81387680D01*
X57237662Y-81500814D01*
X57243266Y-81514616D01*
X57280685Y-81575678D01*
X57357291Y-81700688D01*
X57359987Y-81705088D01*
X57506250Y-81873938D01*
X57678126Y-82016632D01*
X57871000Y-82129338D01*
X58079692Y-82209030D01*
X58084760Y-82210061D01*
X58084763Y-82210062D01*
X58192017Y-82231883D01*
X58298597Y-82253567D01*
X58303772Y-82253757D01*
X58303774Y-82253757D01*
X58516673Y-82261564D01*
X58516677Y-82261564D01*
X58521837Y-82261753D01*
X58526957Y-82261097D01*
X58526959Y-82261097D01*
X58738288Y-82234025D01*
X58738289Y-82234025D01*
X58743416Y-82233368D01*
X58748366Y-82231883D01*
X58952429Y-82170661D01*
X58952434Y-82170659D01*
X58957384Y-82169174D01*
X59157994Y-82070896D01*
X59339860Y-81941173D01*
X59498096Y-81783489D01*
X59510479Y-81766257D01*
X59628453Y-81602077D01*
X59629776Y-81603028D01*
X59676645Y-81559857D01*
X59746580Y-81547625D01*
X59812026Y-81575144D01*
X59839875Y-81606994D01*
X59899987Y-81705088D01*
X60046250Y-81873938D01*
X60218126Y-82016632D01*
X60411000Y-82129338D01*
X60619692Y-82209030D01*
X60624760Y-82210061D01*
X60624763Y-82210062D01*
X60732017Y-82231883D01*
X60838597Y-82253567D01*
X60843772Y-82253757D01*
X60843774Y-82253757D01*
X61056673Y-82261564D01*
X61056677Y-82261564D01*
X61061837Y-82261753D01*
X61066957Y-82261097D01*
X61066959Y-82261097D01*
X61278288Y-82234025D01*
X61278289Y-82234025D01*
X61283416Y-82233368D01*
X61288366Y-82231883D01*
X61492429Y-82170661D01*
X61492434Y-82170659D01*
X61497384Y-82169174D01*
X61697994Y-82070896D01*
X61879860Y-81941173D01*
X61883517Y-81937529D01*
X62026560Y-81794985D01*
X62088932Y-81761069D01*
X62159739Y-81766257D01*
X62216500Y-81808903D01*
X62241194Y-81875467D01*
X62241500Y-81884236D01*
X62241500Y-82326523D01*
X62221498Y-82394644D01*
X62204595Y-82415618D01*
X60815617Y-83804595D01*
X60753305Y-83838621D01*
X60726522Y-83841500D01*
X58191396Y-83841500D01*
X58174949Y-83840422D01*
X58174270Y-83840333D01*
X58152914Y-83837521D01*
X58147314Y-83837785D01*
X58147313Y-83837785D01*
X58071504Y-83841360D01*
X58065569Y-83841500D01*
X58043001Y-83841500D01*
X58040218Y-83841748D01*
X58040204Y-83841749D01*
X58017023Y-83843818D01*
X58011760Y-83844177D01*
X57982342Y-83845564D01*
X57928512Y-83848103D01*
X57911023Y-83852108D01*
X57894104Y-83854788D01*
X57889618Y-83855189D01*
X57876238Y-83856383D01*
X57870830Y-83857862D01*
X57870827Y-83857863D01*
X57795870Y-83878369D01*
X57790752Y-83879655D01*
X57733946Y-83892666D01*
X57709530Y-83898258D01*
X57693037Y-83905293D01*
X57676855Y-83910928D01*
X57664967Y-83914180D01*
X57664958Y-83914183D01*
X57659549Y-83915663D01*
X57654486Y-83918078D01*
X57654475Y-83918082D01*
X57584343Y-83951534D01*
X57579542Y-83953702D01*
X57502892Y-83986396D01*
X57498204Y-83989475D01*
X57498203Y-83989476D01*
X57487900Y-83996244D01*
X57472971Y-84004656D01*
X57456782Y-84012378D01*
X57452226Y-84015652D01*
X57452224Y-84015653D01*
X57389122Y-84060997D01*
X57384771Y-84063987D01*
X57318992Y-84107195D01*
X57318987Y-84107199D01*
X57315126Y-84109735D01*
X57311675Y-84112810D01*
X57294346Y-84128249D01*
X57284055Y-84136494D01*
X57278907Y-84140193D01*
X57278903Y-84140197D01*
X57274346Y-84143471D01*
X57270439Y-84147503D01*
X57199968Y-84220223D01*
X57198579Y-84221633D01*
X52514737Y-88905475D01*
X52502347Y-88916342D01*
X52484708Y-88929877D01*
X52430188Y-88989794D01*
X52429842Y-88990174D01*
X52425743Y-88994469D01*
X52409802Y-89010410D01*
X52408007Y-89012557D01*
X52408005Y-89012559D01*
X52393068Y-89030423D01*
X52389600Y-89034398D01*
X52337288Y-89091888D01*
X52337281Y-89091897D01*
X52333515Y-89096036D01*
X52330538Y-89100782D01*
X52330537Y-89100783D01*
X52323987Y-89111225D01*
X52313911Y-89125093D01*
X52306004Y-89134549D01*
X52305997Y-89134559D01*
X52302406Y-89138854D01*
X52261118Y-89211240D01*
X52258413Y-89215759D01*
X52214136Y-89286344D01*
X52212043Y-89291549D01*
X52212042Y-89291552D01*
X52207448Y-89302979D01*
X52199988Y-89318411D01*
X52193880Y-89329119D01*
X52193876Y-89329128D01*
X52191101Y-89333993D01*
X52189232Y-89339270D01*
X52189230Y-89339275D01*
X52163285Y-89412542D01*
X52161420Y-89417478D01*
X52130344Y-89494783D01*
X52129208Y-89500270D01*
X52129207Y-89500272D01*
X52126706Y-89512349D01*
X52122101Y-89528844D01*
X52116111Y-89545759D01*
X52115204Y-89551298D01*
X52102643Y-89628001D01*
X52101683Y-89633180D01*
X52084787Y-89714767D01*
X52084521Y-89719379D01*
X52084521Y-89719380D01*
X52083185Y-89742548D01*
X52081738Y-89755653D01*
X52080714Y-89761910D01*
X52079806Y-89767457D01*
X52079894Y-89773070D01*
X52079894Y-89773072D01*
X52081484Y-89874264D01*
X52081500Y-89876243D01*
X52081500Y-90896651D01*
X52069787Y-90949702D01*
X52062869Y-90964605D01*
X52062867Y-90964612D01*
X52060688Y-90969305D01*
X52000989Y-91184570D01*
X51977251Y-91406695D01*
X20508500Y-91406695D01*
X20508500Y-70854183D01*
X98994389Y-70854183D01*
X98995912Y-70862607D01*
X99008292Y-70866000D01*
X100057885Y-70866000D01*
X100073124Y-70861525D01*
X100074329Y-70860135D01*
X100076000Y-70852452D01*
X100076000Y-70847885D01*
X100584000Y-70847885D01*
X100588475Y-70863124D01*
X100589865Y-70864329D01*
X100597548Y-70866000D01*
X101648344Y-70866000D01*
X101661875Y-70862027D01*
X101663180Y-70852947D01*
X101621214Y-70685875D01*
X101617894Y-70676124D01*
X101532972Y-70480814D01*
X101528105Y-70471739D01*
X101412426Y-70292926D01*
X101406136Y-70284757D01*
X101262806Y-70127240D01*
X101255273Y-70120215D01*
X101088139Y-69988222D01*
X101079552Y-69982517D01*
X100893117Y-69879599D01*
X100883705Y-69875369D01*
X100682959Y-69804280D01*
X100672988Y-69801646D01*
X100601837Y-69788972D01*
X100588540Y-69790432D01*
X100584000Y-69804989D01*
X100584000Y-70847885D01*
X100076000Y-70847885D01*
X100076000Y-69803102D01*
X100072082Y-69789758D01*
X100057806Y-69787771D01*
X100019324Y-69793660D01*
X100009288Y-69796051D01*
X99806868Y-69862212D01*
X99797359Y-69866209D01*
X99608463Y-69964542D01*
X99599738Y-69970036D01*
X99429433Y-70097905D01*
X99421726Y-70104748D01*
X99274590Y-70258717D01*
X99268104Y-70266727D01*
X99148098Y-70442649D01*
X99143000Y-70451623D01*
X99053338Y-70644783D01*
X99049775Y-70654470D01*
X98994389Y-70854183D01*
X20508500Y-70854183D01*
X20508500Y-63466695D01*
X49437251Y-63466695D01*
X49450110Y-63689715D01*
X49451247Y-63694761D01*
X49451248Y-63694767D01*
X49475304Y-63801508D01*
X49499222Y-63907639D01*
X49583266Y-64114616D01*
X49620685Y-64175678D01*
X49697291Y-64300688D01*
X49699987Y-64305088D01*
X49846250Y-64473938D01*
X50018126Y-64616632D01*
X50211000Y-64729338D01*
X50419692Y-64809030D01*
X50424760Y-64810061D01*
X50424763Y-64810062D01*
X50532017Y-64831883D01*
X50638597Y-64853567D01*
X50643772Y-64853757D01*
X50643774Y-64853757D01*
X50856673Y-64861564D01*
X50856677Y-64861564D01*
X50861837Y-64861753D01*
X50866957Y-64861097D01*
X50866959Y-64861097D01*
X51078288Y-64834025D01*
X51078289Y-64834025D01*
X51083416Y-64833368D01*
X51088366Y-64831883D01*
X51292429Y-64770661D01*
X51292434Y-64770659D01*
X51297384Y-64769174D01*
X51497994Y-64670896D01*
X51679860Y-64541173D01*
X51838096Y-64383489D01*
X51897594Y-64300689D01*
X51968453Y-64202077D01*
X51969776Y-64203028D01*
X52016645Y-64159857D01*
X52086580Y-64147625D01*
X52152026Y-64175144D01*
X52179875Y-64206994D01*
X52239987Y-64305088D01*
X52386250Y-64473938D01*
X52558126Y-64616632D01*
X52751000Y-64729338D01*
X52959692Y-64809030D01*
X52964760Y-64810061D01*
X52964763Y-64810062D01*
X53072017Y-64831883D01*
X53178597Y-64853567D01*
X53183772Y-64853757D01*
X53183774Y-64853757D01*
X53396673Y-64861564D01*
X53396677Y-64861564D01*
X53401837Y-64861753D01*
X53406957Y-64861097D01*
X53406959Y-64861097D01*
X53618288Y-64834025D01*
X53618289Y-64834025D01*
X53623416Y-64833368D01*
X53628366Y-64831883D01*
X53832429Y-64770661D01*
X53832434Y-64770659D01*
X53837384Y-64769174D01*
X54037994Y-64670896D01*
X54219860Y-64541173D01*
X54378096Y-64383489D01*
X54437594Y-64300689D01*
X54508453Y-64202077D01*
X54509776Y-64203028D01*
X54556645Y-64159857D01*
X54626580Y-64147625D01*
X54692026Y-64175144D01*
X54719875Y-64206994D01*
X54779987Y-64305088D01*
X54926250Y-64473938D01*
X55098126Y-64616632D01*
X55291000Y-64729338D01*
X55499692Y-64809030D01*
X55504760Y-64810061D01*
X55504763Y-64810062D01*
X55612017Y-64831883D01*
X55718597Y-64853567D01*
X55723772Y-64853757D01*
X55723774Y-64853757D01*
X55936673Y-64861564D01*
X55936677Y-64861564D01*
X55941837Y-64861753D01*
X55946957Y-64861097D01*
X55946959Y-64861097D01*
X56158288Y-64834025D01*
X56158289Y-64834025D01*
X56163416Y-64833368D01*
X56168366Y-64831883D01*
X56372429Y-64770661D01*
X56372434Y-64770659D01*
X56377384Y-64769174D01*
X56577994Y-64670896D01*
X56759860Y-64541173D01*
X56918096Y-64383489D01*
X56977594Y-64300689D01*
X57048453Y-64202077D01*
X57049776Y-64203028D01*
X57096645Y-64159857D01*
X57166580Y-64147625D01*
X57232026Y-64175144D01*
X57259875Y-64206994D01*
X57319987Y-64305088D01*
X57466250Y-64473938D01*
X57638126Y-64616632D01*
X57831000Y-64729338D01*
X58039692Y-64809030D01*
X58044760Y-64810061D01*
X58044763Y-64810062D01*
X58152017Y-64831883D01*
X58258597Y-64853567D01*
X58263772Y-64853757D01*
X58263774Y-64853757D01*
X58476673Y-64861564D01*
X58476677Y-64861564D01*
X58481837Y-64861753D01*
X58486957Y-64861097D01*
X58486959Y-64861097D01*
X58698288Y-64834025D01*
X58698289Y-64834025D01*
X58703416Y-64833368D01*
X58708366Y-64831883D01*
X58912429Y-64770661D01*
X58912434Y-64770659D01*
X58917384Y-64769174D01*
X59117994Y-64670896D01*
X59299860Y-64541173D01*
X59458096Y-64383489D01*
X59517594Y-64300689D01*
X59588453Y-64202077D01*
X59589776Y-64203028D01*
X59636645Y-64159857D01*
X59706580Y-64147625D01*
X59772026Y-64175144D01*
X59799875Y-64206994D01*
X59859987Y-64305088D01*
X60006250Y-64473938D01*
X60178126Y-64616632D01*
X60371000Y-64729338D01*
X60579692Y-64809030D01*
X60584760Y-64810061D01*
X60584763Y-64810062D01*
X60692017Y-64831883D01*
X60798597Y-64853567D01*
X60803772Y-64853757D01*
X60803774Y-64853757D01*
X61016673Y-64861564D01*
X61016677Y-64861564D01*
X61021837Y-64861753D01*
X61026957Y-64861097D01*
X61026959Y-64861097D01*
X61238288Y-64834025D01*
X61238289Y-64834025D01*
X61243416Y-64833368D01*
X61248366Y-64831883D01*
X61452429Y-64770661D01*
X61452434Y-64770659D01*
X61457384Y-64769174D01*
X61657994Y-64670896D01*
X61839860Y-64541173D01*
X61998096Y-64383489D01*
X62057594Y-64300689D01*
X62128453Y-64202077D01*
X62129776Y-64203028D01*
X62176645Y-64159857D01*
X62246580Y-64147625D01*
X62312026Y-64175144D01*
X62339875Y-64206994D01*
X62399987Y-64305088D01*
X62546250Y-64473938D01*
X62718126Y-64616632D01*
X62911000Y-64729338D01*
X63119692Y-64809030D01*
X63124760Y-64810061D01*
X63124763Y-64810062D01*
X63232017Y-64831883D01*
X63338597Y-64853567D01*
X63343772Y-64853757D01*
X63343774Y-64853757D01*
X63556673Y-64861564D01*
X63556677Y-64861564D01*
X63561837Y-64861753D01*
X63566957Y-64861097D01*
X63566959Y-64861097D01*
X63778288Y-64834025D01*
X63778289Y-64834025D01*
X63783416Y-64833368D01*
X63788366Y-64831883D01*
X63992429Y-64770661D01*
X63992434Y-64770659D01*
X63997384Y-64769174D01*
X64197994Y-64670896D01*
X64379860Y-64541173D01*
X64538096Y-64383489D01*
X64597594Y-64300689D01*
X64668453Y-64202077D01*
X64669776Y-64203028D01*
X64716645Y-64159857D01*
X64786580Y-64147625D01*
X64852026Y-64175144D01*
X64879875Y-64206994D01*
X64939987Y-64305088D01*
X65086250Y-64473938D01*
X65258126Y-64616632D01*
X65451000Y-64729338D01*
X65659692Y-64809030D01*
X65664760Y-64810061D01*
X65664763Y-64810062D01*
X65772017Y-64831883D01*
X65878597Y-64853567D01*
X65883772Y-64853757D01*
X65883774Y-64853757D01*
X66096673Y-64861564D01*
X66096677Y-64861564D01*
X66101837Y-64861753D01*
X66106957Y-64861097D01*
X66106959Y-64861097D01*
X66318288Y-64834025D01*
X66318289Y-64834025D01*
X66323416Y-64833368D01*
X66328366Y-64831883D01*
X66532429Y-64770661D01*
X66532434Y-64770659D01*
X66537384Y-64769174D01*
X66737994Y-64670896D01*
X66919860Y-64541173D01*
X67078096Y-64383489D01*
X67137594Y-64300689D01*
X67208453Y-64202077D01*
X67209776Y-64203028D01*
X67256645Y-64159857D01*
X67326580Y-64147625D01*
X67392026Y-64175144D01*
X67419875Y-64206994D01*
X67479987Y-64305088D01*
X67626250Y-64473938D01*
X67798126Y-64616632D01*
X67991000Y-64729338D01*
X68199692Y-64809030D01*
X68204760Y-64810061D01*
X68204763Y-64810062D01*
X68312017Y-64831883D01*
X68418597Y-64853567D01*
X68423772Y-64853757D01*
X68423774Y-64853757D01*
X68636673Y-64861564D01*
X68636677Y-64861564D01*
X68641837Y-64861753D01*
X68646957Y-64861097D01*
X68646959Y-64861097D01*
X68858288Y-64834025D01*
X68858289Y-64834025D01*
X68863416Y-64833368D01*
X68868366Y-64831883D01*
X69072429Y-64770661D01*
X69072434Y-64770659D01*
X69077384Y-64769174D01*
X69277994Y-64670896D01*
X69459860Y-64541173D01*
X69618096Y-64383489D01*
X69677594Y-64300689D01*
X69748453Y-64202077D01*
X69749776Y-64203028D01*
X69796645Y-64159857D01*
X69866580Y-64147625D01*
X69932026Y-64175144D01*
X69959875Y-64206994D01*
X70019987Y-64305088D01*
X70166250Y-64473938D01*
X70338126Y-64616632D01*
X70531000Y-64729338D01*
X70739692Y-64809030D01*
X70744760Y-64810061D01*
X70744763Y-64810062D01*
X70852017Y-64831883D01*
X70958597Y-64853567D01*
X70963772Y-64853757D01*
X70963774Y-64853757D01*
X71176673Y-64861564D01*
X71176677Y-64861564D01*
X71181837Y-64861753D01*
X71186957Y-64861097D01*
X71186959Y-64861097D01*
X71398288Y-64834025D01*
X71398289Y-64834025D01*
X71403416Y-64833368D01*
X71408366Y-64831883D01*
X71612429Y-64770661D01*
X71612434Y-64770659D01*
X71617384Y-64769174D01*
X71817994Y-64670896D01*
X71999860Y-64541173D01*
X72158096Y-64383489D01*
X72217594Y-64300689D01*
X72288453Y-64202077D01*
X72289776Y-64203028D01*
X72336645Y-64159857D01*
X72406580Y-64147625D01*
X72472026Y-64175144D01*
X72499875Y-64206994D01*
X72559987Y-64305088D01*
X72706250Y-64473938D01*
X72878126Y-64616632D01*
X73071000Y-64729338D01*
X73279692Y-64809030D01*
X73284760Y-64810061D01*
X73284763Y-64810062D01*
X73392017Y-64831883D01*
X73498597Y-64853567D01*
X73503772Y-64853757D01*
X73503774Y-64853757D01*
X73716673Y-64861564D01*
X73716677Y-64861564D01*
X73721837Y-64861753D01*
X73726957Y-64861097D01*
X73726959Y-64861097D01*
X73938288Y-64834025D01*
X73938289Y-64834025D01*
X73943416Y-64833368D01*
X73948366Y-64831883D01*
X74152429Y-64770661D01*
X74152434Y-64770659D01*
X74157384Y-64769174D01*
X74357994Y-64670896D01*
X74539860Y-64541173D01*
X74698096Y-64383489D01*
X74757594Y-64300689D01*
X74828453Y-64202077D01*
X74829776Y-64203028D01*
X74876645Y-64159857D01*
X74946580Y-64147625D01*
X75012026Y-64175144D01*
X75039875Y-64206994D01*
X75099987Y-64305088D01*
X75246250Y-64473938D01*
X75418126Y-64616632D01*
X75611000Y-64729338D01*
X75819692Y-64809030D01*
X75824760Y-64810061D01*
X75824763Y-64810062D01*
X75932017Y-64831883D01*
X76038597Y-64853567D01*
X76043772Y-64853757D01*
X76043774Y-64853757D01*
X76256673Y-64861564D01*
X76256677Y-64861564D01*
X76261837Y-64861753D01*
X76266957Y-64861097D01*
X76266959Y-64861097D01*
X76478288Y-64834025D01*
X76478289Y-64834025D01*
X76483416Y-64833368D01*
X76488366Y-64831883D01*
X76692429Y-64770661D01*
X76692434Y-64770659D01*
X76697384Y-64769174D01*
X76897994Y-64670896D01*
X77079860Y-64541173D01*
X77238096Y-64383489D01*
X77297594Y-64300689D01*
X77368453Y-64202077D01*
X77369776Y-64203028D01*
X77416645Y-64159857D01*
X77486580Y-64147625D01*
X77552026Y-64175144D01*
X77579875Y-64206994D01*
X77639987Y-64305088D01*
X77786250Y-64473938D01*
X77958126Y-64616632D01*
X78151000Y-64729338D01*
X78359692Y-64809030D01*
X78364760Y-64810061D01*
X78364763Y-64810062D01*
X78472017Y-64831883D01*
X78578597Y-64853567D01*
X78583772Y-64853757D01*
X78583774Y-64853757D01*
X78796673Y-64861564D01*
X78796677Y-64861564D01*
X78801837Y-64861753D01*
X78806957Y-64861097D01*
X78806959Y-64861097D01*
X79018288Y-64834025D01*
X79018289Y-64834025D01*
X79023416Y-64833368D01*
X79028366Y-64831883D01*
X79232429Y-64770661D01*
X79232434Y-64770659D01*
X79237384Y-64769174D01*
X79437994Y-64670896D01*
X79619860Y-64541173D01*
X79778096Y-64383489D01*
X79837594Y-64300689D01*
X79908453Y-64202077D01*
X79909776Y-64203028D01*
X79956645Y-64159857D01*
X80026580Y-64147625D01*
X80092026Y-64175144D01*
X80119875Y-64206994D01*
X80179987Y-64305088D01*
X80326250Y-64473938D01*
X80498126Y-64616632D01*
X80691000Y-64729338D01*
X80899692Y-64809030D01*
X80904760Y-64810061D01*
X80904763Y-64810062D01*
X81012017Y-64831883D01*
X81118597Y-64853567D01*
X81123772Y-64853757D01*
X81123774Y-64853757D01*
X81336673Y-64861564D01*
X81336677Y-64861564D01*
X81341837Y-64861753D01*
X81346957Y-64861097D01*
X81346959Y-64861097D01*
X81558288Y-64834025D01*
X81558289Y-64834025D01*
X81563416Y-64833368D01*
X81568366Y-64831883D01*
X81772429Y-64770661D01*
X81772434Y-64770659D01*
X81777384Y-64769174D01*
X81977994Y-64670896D01*
X82159860Y-64541173D01*
X82318096Y-64383489D01*
X82377594Y-64300689D01*
X82448453Y-64202077D01*
X82449776Y-64203028D01*
X82496645Y-64159857D01*
X82566580Y-64147625D01*
X82632026Y-64175144D01*
X82659875Y-64206994D01*
X82719987Y-64305088D01*
X82866250Y-64473938D01*
X83038126Y-64616632D01*
X83231000Y-64729338D01*
X83439692Y-64809030D01*
X83444760Y-64810061D01*
X83444763Y-64810062D01*
X83552017Y-64831883D01*
X83658597Y-64853567D01*
X83663772Y-64853757D01*
X83663774Y-64853757D01*
X83876673Y-64861564D01*
X83876677Y-64861564D01*
X83881837Y-64861753D01*
X83886957Y-64861097D01*
X83886959Y-64861097D01*
X84098288Y-64834025D01*
X84098289Y-64834025D01*
X84103416Y-64833368D01*
X84108366Y-64831883D01*
X84312429Y-64770661D01*
X84312434Y-64770659D01*
X84317384Y-64769174D01*
X84517994Y-64670896D01*
X84699860Y-64541173D01*
X84808091Y-64433319D01*
X84870462Y-64399404D01*
X84941268Y-64404592D01*
X84998030Y-64447238D01*
X85015012Y-64478341D01*
X85059385Y-64596705D01*
X85146739Y-64713261D01*
X85263295Y-64800615D01*
X85399684Y-64851745D01*
X85461866Y-64858500D01*
X87258134Y-64858500D01*
X87320316Y-64851745D01*
X87456705Y-64800615D01*
X87573261Y-64713261D01*
X87660615Y-64596705D01*
X87711745Y-64460316D01*
X87718500Y-64398134D01*
X87718500Y-62601866D01*
X87711745Y-62539684D01*
X87660615Y-62403295D01*
X87592575Y-62312509D01*
X87578645Y-62293922D01*
X87578642Y-62293919D01*
X87573261Y-62286739D01*
X87554232Y-62272477D01*
X87533344Y-62256822D01*
X87526131Y-62250568D01*
X87523261Y-62246739D01*
X87406705Y-62159385D01*
X87270316Y-62108255D01*
X87208134Y-62101500D01*
X85511866Y-62101500D01*
X85449684Y-62108255D01*
X85313295Y-62159385D01*
X85306110Y-62164770D01*
X85306108Y-62164771D01*
X85280066Y-62184289D01*
X85213560Y-62209138D01*
X85144177Y-62194086D01*
X85093947Y-62143912D01*
X85078500Y-62083464D01*
X85078500Y-58877250D01*
X85087003Y-58832674D01*
X85087430Y-58831811D01*
X85152370Y-58618069D01*
X85181529Y-58396590D01*
X85183156Y-58330000D01*
X85164852Y-58107361D01*
X85110431Y-57890702D01*
X85021354Y-57685840D01*
X84934268Y-57551225D01*
X84902822Y-57502617D01*
X84902820Y-57502614D01*
X84900014Y-57498277D01*
X84749670Y-57333051D01*
X84745619Y-57329852D01*
X84745615Y-57329848D01*
X84578414Y-57197800D01*
X84578410Y-57197798D01*
X84574359Y-57194598D01*
X84532569Y-57171529D01*
X84482598Y-57121097D01*
X84467826Y-57051654D01*
X84492942Y-56985248D01*
X84520294Y-56958641D01*
X84695328Y-56833792D01*
X84703200Y-56827139D01*
X84854052Y-56676812D01*
X84860730Y-56668965D01*
X84985003Y-56496020D01*
X84990313Y-56487183D01*
X85084670Y-56296267D01*
X85088469Y-56286672D01*
X85150377Y-56082910D01*
X85152555Y-56072837D01*
X85153986Y-56061962D01*
X85151775Y-56047778D01*
X85138617Y-56044000D01*
X82503225Y-56044000D01*
X82489694Y-56047973D01*
X82488257Y-56057966D01*
X82518565Y-56192446D01*
X82521645Y-56202275D01*
X82601770Y-56399603D01*
X82606413Y-56408794D01*
X82717694Y-56590388D01*
X82723777Y-56598699D01*
X82863213Y-56759667D01*
X82870580Y-56766883D01*
X83034434Y-56902916D01*
X83042881Y-56908831D01*
X83111969Y-56949203D01*
X83160693Y-57000842D01*
X83173764Y-57070625D01*
X83147033Y-57136396D01*
X83106584Y-57169752D01*
X83093607Y-57176507D01*
X83089474Y-57179610D01*
X83089471Y-57179612D01*
X83065247Y-57197800D01*
X82914965Y-57310635D01*
X82871285Y-57356343D01*
X82783292Y-57448423D01*
X82760629Y-57472138D01*
X82757715Y-57476410D01*
X82757714Y-57476411D01*
X82701713Y-57558505D01*
X82634743Y-57656680D01*
X82619003Y-57690590D01*
X82577837Y-57779275D01*
X82540688Y-57859305D01*
X82480989Y-58074570D01*
X82457251Y-58296695D01*
X82457548Y-58301848D01*
X82457548Y-58301851D01*
X82463011Y-58396590D01*
X82470110Y-58519715D01*
X82471247Y-58524761D01*
X82471248Y-58524767D01*
X82491119Y-58612939D01*
X82519222Y-58737639D01*
X82538202Y-58784382D01*
X82552243Y-58818961D01*
X82561500Y-58866365D01*
X82561500Y-62559251D01*
X82541498Y-62627372D01*
X82487842Y-62673865D01*
X82417568Y-62683969D01*
X82352988Y-62654475D01*
X82332287Y-62631522D01*
X82289357Y-62570211D01*
X82289355Y-62570208D01*
X82286198Y-62565700D01*
X82124300Y-62403802D01*
X82119792Y-62400645D01*
X82119789Y-62400643D01*
X81993085Y-62311924D01*
X81936749Y-62272477D01*
X81931767Y-62270154D01*
X81931762Y-62270151D01*
X81734225Y-62178039D01*
X81734224Y-62178039D01*
X81729243Y-62175716D01*
X81723935Y-62174294D01*
X81723933Y-62174293D01*
X81513402Y-62117881D01*
X81513400Y-62117881D01*
X81508087Y-62116457D01*
X81280000Y-62096502D01*
X81051913Y-62116457D01*
X81046600Y-62117881D01*
X81046598Y-62117881D01*
X80836067Y-62174293D01*
X80836065Y-62174294D01*
X80830757Y-62175716D01*
X80825776Y-62178039D01*
X80825775Y-62178039D01*
X80628238Y-62270151D01*
X80628233Y-62270154D01*
X80623251Y-62272477D01*
X80566915Y-62311924D01*
X80440211Y-62400643D01*
X80440208Y-62400645D01*
X80435700Y-62403802D01*
X80273802Y-62565700D01*
X80270645Y-62570208D01*
X80270643Y-62570211D01*
X80220279Y-62642138D01*
X80142477Y-62753251D01*
X80140152Y-62758236D01*
X80137401Y-62763002D01*
X80137170Y-62762868D01*
X80131613Y-62772631D01*
X80117149Y-62793834D01*
X80113202Y-62799620D01*
X80058290Y-62844622D01*
X79987765Y-62852792D01*
X79924018Y-62821536D01*
X79903322Y-62797052D01*
X79888799Y-62774602D01*
X79880398Y-62759415D01*
X79879850Y-62758240D01*
X79879846Y-62758234D01*
X79877523Y-62753251D01*
X79845506Y-62707526D01*
X79842927Y-62703695D01*
X79820014Y-62668277D01*
X79816533Y-62664452D01*
X79815728Y-62663406D01*
X79806768Y-62652202D01*
X79749357Y-62570211D01*
X79749355Y-62570208D01*
X79746198Y-62565700D01*
X79584300Y-62403802D01*
X79579792Y-62400645D01*
X79579789Y-62400643D01*
X79453085Y-62311924D01*
X79396749Y-62272477D01*
X79391767Y-62270154D01*
X79391762Y-62270151D01*
X79194225Y-62178039D01*
X79194224Y-62178039D01*
X79189243Y-62175716D01*
X79183935Y-62174294D01*
X79183933Y-62174293D01*
X78973402Y-62117881D01*
X78973400Y-62117881D01*
X78968087Y-62116457D01*
X78740000Y-62096502D01*
X78511913Y-62116457D01*
X78506600Y-62117881D01*
X78506598Y-62117881D01*
X78296067Y-62174293D01*
X78296065Y-62174294D01*
X78290757Y-62175716D01*
X78285776Y-62178039D01*
X78285775Y-62178039D01*
X78088238Y-62270151D01*
X78088233Y-62270154D01*
X78083251Y-62272477D01*
X78026915Y-62311924D01*
X77900211Y-62400643D01*
X77900208Y-62400645D01*
X77895700Y-62403802D01*
X77733802Y-62565700D01*
X77730645Y-62570208D01*
X77730643Y-62570211D01*
X77687713Y-62631522D01*
X77632256Y-62675850D01*
X77561637Y-62683159D01*
X77498276Y-62651128D01*
X77462291Y-62589927D01*
X77458500Y-62559251D01*
X77458500Y-56719874D01*
X77478502Y-56651753D01*
X77483661Y-56644327D01*
X77500615Y-56621705D01*
X77551745Y-56485316D01*
X77558500Y-56423134D01*
X77558500Y-54626866D01*
X77551745Y-54564684D01*
X77500615Y-54428295D01*
X77413261Y-54311739D01*
X77296705Y-54224385D01*
X77177687Y-54179767D01*
X77120923Y-54137125D01*
X77096223Y-54070564D01*
X77111430Y-54001215D01*
X77132977Y-53972535D01*
X77234052Y-53871812D01*
X77240730Y-53863965D01*
X77365003Y-53691020D01*
X77370313Y-53682183D01*
X77464670Y-53491267D01*
X77468469Y-53481672D01*
X77530377Y-53277910D01*
X77532555Y-53267837D01*
X77533986Y-53256962D01*
X77531775Y-53242778D01*
X77518617Y-53239000D01*
X69778513Y-53239000D01*
X69748090Y-53230067D01*
X69747559Y-53232507D01*
X69708452Y-53224000D01*
X62183225Y-53224000D01*
X62169694Y-53227973D01*
X62168257Y-53237966D01*
X62198565Y-53372446D01*
X62201645Y-53382275D01*
X62281770Y-53579603D01*
X62286413Y-53588794D01*
X62397694Y-53770388D01*
X62403777Y-53778699D01*
X62543213Y-53939667D01*
X62550577Y-53946879D01*
X62555522Y-53950985D01*
X62595156Y-54009889D01*
X62596653Y-54080870D01*
X62559537Y-54141392D01*
X62519264Y-54165910D01*
X62411705Y-54206232D01*
X62411704Y-54206233D01*
X62403295Y-54209385D01*
X62286739Y-54296739D01*
X62199385Y-54413295D01*
X62148255Y-54549684D01*
X62141500Y-54611866D01*
X62141500Y-56408134D01*
X62148255Y-56470316D01*
X62199385Y-56606705D01*
X62216327Y-56629311D01*
X62241174Y-56695815D01*
X62241500Y-56704874D01*
X62241500Y-62559251D01*
X62221498Y-62627372D01*
X62167842Y-62673865D01*
X62097568Y-62683969D01*
X62032988Y-62654475D01*
X62012287Y-62631522D01*
X61969357Y-62570211D01*
X61969355Y-62570208D01*
X61966198Y-62565700D01*
X61804300Y-62403802D01*
X61799792Y-62400645D01*
X61799789Y-62400643D01*
X61673085Y-62311924D01*
X61616749Y-62272477D01*
X61611767Y-62270154D01*
X61611762Y-62270151D01*
X61414225Y-62178039D01*
X61414224Y-62178039D01*
X61409243Y-62175716D01*
X61403935Y-62174294D01*
X61403933Y-62174293D01*
X61193402Y-62117881D01*
X61193400Y-62117881D01*
X61188087Y-62116457D01*
X60960000Y-62096502D01*
X60731913Y-62116457D01*
X60726600Y-62117881D01*
X60726598Y-62117881D01*
X60516067Y-62174293D01*
X60516065Y-62174294D01*
X60510757Y-62175716D01*
X60505776Y-62178039D01*
X60505775Y-62178039D01*
X60308238Y-62270151D01*
X60308233Y-62270154D01*
X60303251Y-62272477D01*
X60246915Y-62311924D01*
X60120211Y-62400643D01*
X60120208Y-62400645D01*
X60115700Y-62403802D01*
X59953802Y-62565700D01*
X59950645Y-62570208D01*
X59950643Y-62570211D01*
X59900279Y-62642138D01*
X59822477Y-62753251D01*
X59820152Y-62758236D01*
X59817401Y-62763002D01*
X59817170Y-62762868D01*
X59811613Y-62772631D01*
X59797149Y-62793834D01*
X59793202Y-62799620D01*
X59738290Y-62844622D01*
X59667765Y-62852792D01*
X59604018Y-62821536D01*
X59583322Y-62797052D01*
X59568799Y-62774602D01*
X59560398Y-62759415D01*
X59559850Y-62758240D01*
X59559846Y-62758234D01*
X59557523Y-62753251D01*
X59525506Y-62707526D01*
X59522927Y-62703695D01*
X59500014Y-62668277D01*
X59496533Y-62664452D01*
X59495728Y-62663406D01*
X59486768Y-62652202D01*
X59429357Y-62570211D01*
X59429355Y-62570208D01*
X59426198Y-62565700D01*
X59264300Y-62403802D01*
X59259792Y-62400645D01*
X59259789Y-62400643D01*
X59133085Y-62311924D01*
X59076749Y-62272477D01*
X59071767Y-62270154D01*
X59071762Y-62270151D01*
X58874225Y-62178039D01*
X58874224Y-62178039D01*
X58869243Y-62175716D01*
X58863935Y-62174294D01*
X58863933Y-62174293D01*
X58653402Y-62117881D01*
X58653400Y-62117881D01*
X58648087Y-62116457D01*
X58420000Y-62096502D01*
X58191913Y-62116457D01*
X58186600Y-62117881D01*
X58186598Y-62117881D01*
X57976067Y-62174293D01*
X57976065Y-62174294D01*
X57970757Y-62175716D01*
X57965776Y-62178039D01*
X57965775Y-62178039D01*
X57768238Y-62270151D01*
X57768233Y-62270154D01*
X57763251Y-62272477D01*
X57706915Y-62311924D01*
X57580211Y-62400643D01*
X57580208Y-62400645D01*
X57575700Y-62403802D01*
X57413802Y-62565700D01*
X57410645Y-62570208D01*
X57410643Y-62570211D01*
X57360279Y-62642138D01*
X57282477Y-62753251D01*
X57280152Y-62758236D01*
X57277401Y-62763002D01*
X57277170Y-62762868D01*
X57271613Y-62772631D01*
X57257149Y-62793834D01*
X57253202Y-62799620D01*
X57198290Y-62844622D01*
X57127765Y-62852792D01*
X57064018Y-62821536D01*
X57043322Y-62797052D01*
X57026822Y-62771546D01*
X57022218Y-62763223D01*
X57022165Y-62763254D01*
X57013934Y-62748998D01*
X56992921Y-62718988D01*
X56990342Y-62715157D01*
X56962822Y-62672617D01*
X56962820Y-62672614D01*
X56960014Y-62668277D01*
X56809670Y-62503051D01*
X56805619Y-62499852D01*
X56805615Y-62499848D01*
X56688934Y-62407699D01*
X56642887Y-62371333D01*
X56621323Y-62349552D01*
X56592213Y-62311924D01*
X56541006Y-62276069D01*
X56531511Y-62270586D01*
X56334053Y-62178510D01*
X56323761Y-62174764D01*
X56113312Y-62118375D01*
X56102519Y-62116472D01*
X55885475Y-62097483D01*
X55874525Y-62097483D01*
X55657481Y-62116472D01*
X55646688Y-62118375D01*
X55436239Y-62174764D01*
X55425947Y-62178510D01*
X55228489Y-62270586D01*
X55218994Y-62276069D01*
X55166952Y-62312509D01*
X55135609Y-62351721D01*
X55133653Y-62356497D01*
X55110888Y-62378581D01*
X55072107Y-62407699D01*
X54974965Y-62480635D01*
X54820629Y-62642138D01*
X54794726Y-62680110D01*
X54792865Y-62682086D01*
X54792901Y-62682111D01*
X54746069Y-62748994D01*
X54739241Y-62760820D01*
X54734217Y-62768813D01*
X54714954Y-62797052D01*
X54713203Y-62799619D01*
X54658291Y-62844622D01*
X54587766Y-62852792D01*
X54524019Y-62821537D01*
X54503322Y-62797052D01*
X54488799Y-62774602D01*
X54480398Y-62759415D01*
X54479850Y-62758240D01*
X54479846Y-62758234D01*
X54477523Y-62753251D01*
X54445506Y-62707526D01*
X54442927Y-62703695D01*
X54420014Y-62668277D01*
X54416533Y-62664452D01*
X54415728Y-62663406D01*
X54406768Y-62652202D01*
X54349357Y-62570211D01*
X54349355Y-62570208D01*
X54346198Y-62565700D01*
X54184300Y-62403802D01*
X54179792Y-62400645D01*
X54179789Y-62400643D01*
X54053085Y-62311924D01*
X53996749Y-62272477D01*
X53991767Y-62270154D01*
X53991762Y-62270151D01*
X53794225Y-62178039D01*
X53794224Y-62178039D01*
X53789243Y-62175716D01*
X53783935Y-62174294D01*
X53783933Y-62174293D01*
X53573402Y-62117881D01*
X53573400Y-62117881D01*
X53568087Y-62116457D01*
X53340000Y-62096502D01*
X53111913Y-62116457D01*
X53106600Y-62117881D01*
X53106598Y-62117881D01*
X52896067Y-62174293D01*
X52896065Y-62174294D01*
X52890757Y-62175716D01*
X52885776Y-62178039D01*
X52885775Y-62178039D01*
X52688238Y-62270151D01*
X52688233Y-62270154D01*
X52683251Y-62272477D01*
X52626915Y-62311924D01*
X52500211Y-62400643D01*
X52500208Y-62400645D01*
X52495700Y-62403802D01*
X52333802Y-62565700D01*
X52330645Y-62570208D01*
X52330643Y-62570211D01*
X52287713Y-62631522D01*
X52232256Y-62675850D01*
X52161637Y-62683159D01*
X52098276Y-62651128D01*
X52062291Y-62589927D01*
X52058500Y-62559251D01*
X52058500Y-58873477D01*
X52078502Y-58805356D01*
X52095405Y-58784382D01*
X57663092Y-53216695D01*
X82457251Y-53216695D01*
X82457548Y-53221848D01*
X82457548Y-53221851D01*
X82463011Y-53316590D01*
X82470110Y-53439715D01*
X82471247Y-53444761D01*
X82471248Y-53444767D01*
X82481728Y-53491267D01*
X82519222Y-53657639D01*
X82603266Y-53864616D01*
X82719987Y-54055088D01*
X82866250Y-54223938D01*
X83038126Y-54366632D01*
X83073745Y-54387446D01*
X83111955Y-54409774D01*
X83160679Y-54461412D01*
X83173750Y-54531195D01*
X83147019Y-54596967D01*
X83106562Y-54630327D01*
X83098457Y-54634546D01*
X83089738Y-54640036D01*
X82919433Y-54767905D01*
X82911726Y-54774748D01*
X82764590Y-54928717D01*
X82758104Y-54936727D01*
X82638098Y-55112649D01*
X82633000Y-55121623D01*
X82543338Y-55314783D01*
X82539775Y-55324470D01*
X82484389Y-55524183D01*
X82485912Y-55532607D01*
X82498292Y-55536000D01*
X85138344Y-55536000D01*
X85151875Y-55532027D01*
X85153180Y-55522947D01*
X85111214Y-55355875D01*
X85107894Y-55346124D01*
X85022972Y-55150814D01*
X85018105Y-55141739D01*
X84902426Y-54962926D01*
X84896136Y-54954757D01*
X84752806Y-54797240D01*
X84745273Y-54790215D01*
X84578139Y-54658222D01*
X84569556Y-54652520D01*
X84532602Y-54632120D01*
X84482631Y-54581687D01*
X84467859Y-54512245D01*
X84492975Y-54445839D01*
X84520327Y-54419232D01*
X84585919Y-54372446D01*
X84699860Y-54291173D01*
X84858096Y-54133489D01*
X84914091Y-54055564D01*
X84985435Y-53956277D01*
X84988453Y-53952077D01*
X84994587Y-53939667D01*
X85085136Y-53756453D01*
X85085137Y-53756451D01*
X85087430Y-53751811D01*
X85123862Y-53631900D01*
X85150865Y-53543023D01*
X85150865Y-53543021D01*
X85152370Y-53538069D01*
X85181529Y-53316590D01*
X85183156Y-53250000D01*
X85164852Y-53027361D01*
X85110431Y-52810702D01*
X85021354Y-52605840D01*
X84900014Y-52418277D01*
X84896532Y-52414450D01*
X84752798Y-52256488D01*
X84721746Y-52192642D01*
X84730141Y-52122143D01*
X84775317Y-52067375D01*
X84801761Y-52053706D01*
X84908297Y-52013767D01*
X84916705Y-52010615D01*
X85033261Y-51923261D01*
X85120615Y-51806705D01*
X85171745Y-51670316D01*
X85178500Y-51608134D01*
X85178500Y-49811866D01*
X85171745Y-49749684D01*
X85120615Y-49613295D01*
X85033261Y-49496739D01*
X84916705Y-49409385D01*
X84780316Y-49358255D01*
X84718134Y-49351500D01*
X82921866Y-49351500D01*
X82859684Y-49358255D01*
X82723295Y-49409385D01*
X82606739Y-49496739D01*
X82519385Y-49613295D01*
X82468255Y-49749684D01*
X82461500Y-49811866D01*
X82461500Y-51608134D01*
X82468255Y-51670316D01*
X82519385Y-51806705D01*
X82606739Y-51923261D01*
X82723295Y-52010615D01*
X82731704Y-52013767D01*
X82731705Y-52013768D01*
X82840451Y-52054535D01*
X82897216Y-52097176D01*
X82921916Y-52163738D01*
X82906709Y-52233087D01*
X82887316Y-52259568D01*
X82813570Y-52336739D01*
X82760629Y-52392138D01*
X82634743Y-52576680D01*
X82619003Y-52610590D01*
X82564955Y-52727027D01*
X82540688Y-52779305D01*
X82480989Y-52994570D01*
X82457251Y-53216695D01*
X57663092Y-53216695D01*
X59154382Y-51725405D01*
X59216694Y-51691379D01*
X59243477Y-51688500D01*
X62567259Y-51688500D01*
X62635380Y-51708502D01*
X62681873Y-51762158D01*
X62691977Y-51832432D01*
X62662483Y-51897012D01*
X62642912Y-51915260D01*
X62599433Y-51947905D01*
X62591726Y-51954748D01*
X62444590Y-52108717D01*
X62438104Y-52116727D01*
X62318098Y-52292649D01*
X62313000Y-52301623D01*
X62223338Y-52494783D01*
X62219775Y-52504470D01*
X62164389Y-52704183D01*
X62165912Y-52712607D01*
X62178292Y-52716000D01*
X69921487Y-52716000D01*
X69951910Y-52724933D01*
X69952441Y-52722493D01*
X69991548Y-52731000D01*
X77518344Y-52731000D01*
X77531875Y-52727027D01*
X77533180Y-52717947D01*
X77491214Y-52550875D01*
X77487894Y-52541124D01*
X77402972Y-52345814D01*
X77398105Y-52336739D01*
X77282426Y-52157926D01*
X77276136Y-52149757D01*
X77132806Y-51992240D01*
X77125273Y-51985215D01*
X76958139Y-51853222D01*
X76949556Y-51847520D01*
X76912602Y-51827120D01*
X76862631Y-51776687D01*
X76847859Y-51707245D01*
X76872975Y-51640839D01*
X76900327Y-51614232D01*
X76923797Y-51597491D01*
X77079860Y-51486173D01*
X77238096Y-51328489D01*
X77368453Y-51147077D01*
X77467430Y-50946811D01*
X77532370Y-50733069D01*
X77561529Y-50511590D01*
X77563156Y-50445000D01*
X77544852Y-50222361D01*
X77490431Y-50005702D01*
X77401354Y-49800840D01*
X77280014Y-49613277D01*
X77129670Y-49448051D01*
X77125619Y-49444852D01*
X77125615Y-49444848D01*
X76958414Y-49312800D01*
X76958410Y-49312798D01*
X76954359Y-49309598D01*
X76758789Y-49201638D01*
X76753920Y-49199914D01*
X76753916Y-49199912D01*
X76553087Y-49128795D01*
X76553083Y-49128794D01*
X76548212Y-49127069D01*
X76543119Y-49126162D01*
X76543116Y-49126161D01*
X76333373Y-49088800D01*
X76333367Y-49088799D01*
X76328284Y-49087894D01*
X76254452Y-49086992D01*
X76110081Y-49085228D01*
X76110079Y-49085228D01*
X76104911Y-49085165D01*
X75884091Y-49118955D01*
X75734696Y-49167785D01*
X75696513Y-49180265D01*
X75657368Y-49186500D01*
X74197692Y-49186500D01*
X74155632Y-49179273D01*
X74013087Y-49128795D01*
X74013083Y-49128794D01*
X74008212Y-49127069D01*
X74003119Y-49126162D01*
X74003116Y-49126161D01*
X73793373Y-49088800D01*
X73793367Y-49088799D01*
X73788284Y-49087894D01*
X73714452Y-49086992D01*
X73570081Y-49085228D01*
X73570079Y-49085228D01*
X73564911Y-49085165D01*
X73344091Y-49118955D01*
X73194696Y-49167785D01*
X73156513Y-49180265D01*
X73117368Y-49186500D01*
X71657692Y-49186500D01*
X71615632Y-49179273D01*
X71473087Y-49128795D01*
X71473083Y-49128794D01*
X71468212Y-49127069D01*
X71463119Y-49126162D01*
X71463116Y-49126161D01*
X71253373Y-49088800D01*
X71253367Y-49088799D01*
X71248284Y-49087894D01*
X71174452Y-49086992D01*
X71030081Y-49085228D01*
X71030079Y-49085228D01*
X71024911Y-49085165D01*
X70804091Y-49118955D01*
X70665441Y-49164273D01*
X70662406Y-49165265D01*
X70623261Y-49171500D01*
X69117692Y-49171500D01*
X69075632Y-49164273D01*
X68933087Y-49113795D01*
X68933083Y-49113794D01*
X68928212Y-49112069D01*
X68923119Y-49111162D01*
X68923116Y-49111161D01*
X68713373Y-49073800D01*
X68713367Y-49073799D01*
X68708284Y-49072894D01*
X68634452Y-49071992D01*
X68490081Y-49070228D01*
X68490079Y-49070228D01*
X68484911Y-49070165D01*
X68264091Y-49103955D01*
X68079548Y-49164273D01*
X68076513Y-49165265D01*
X68037368Y-49171500D01*
X66577692Y-49171500D01*
X66535632Y-49164273D01*
X66393087Y-49113795D01*
X66393083Y-49113794D01*
X66388212Y-49112069D01*
X66383119Y-49111162D01*
X66383116Y-49111161D01*
X66173373Y-49073800D01*
X66173367Y-49073799D01*
X66168284Y-49072894D01*
X66094452Y-49071992D01*
X65950081Y-49070228D01*
X65950079Y-49070228D01*
X65944911Y-49070165D01*
X65724091Y-49103955D01*
X65539548Y-49164273D01*
X65536513Y-49165265D01*
X65497368Y-49171500D01*
X64037692Y-49171500D01*
X63995632Y-49164273D01*
X63853087Y-49113795D01*
X63853083Y-49113794D01*
X63848212Y-49112069D01*
X63843119Y-49111162D01*
X63843116Y-49111161D01*
X63633373Y-49073800D01*
X63633367Y-49073799D01*
X63628284Y-49072894D01*
X63554452Y-49071992D01*
X63410081Y-49070228D01*
X63410079Y-49070228D01*
X63404911Y-49070165D01*
X63184091Y-49103955D01*
X62999548Y-49164273D01*
X62996513Y-49165265D01*
X62957368Y-49171500D01*
X58761396Y-49171500D01*
X58744949Y-49170422D01*
X58744270Y-49170333D01*
X58722914Y-49167521D01*
X58717314Y-49167785D01*
X58717313Y-49167785D01*
X58641504Y-49171360D01*
X58635569Y-49171500D01*
X58613001Y-49171500D01*
X58610218Y-49171748D01*
X58610204Y-49171749D01*
X58587023Y-49173818D01*
X58581760Y-49174177D01*
X58552342Y-49175564D01*
X58498512Y-49178103D01*
X58481023Y-49182108D01*
X58464104Y-49184788D01*
X58459618Y-49185189D01*
X58446238Y-49186383D01*
X58440830Y-49187862D01*
X58440827Y-49187863D01*
X58365870Y-49208369D01*
X58360752Y-49209655D01*
X58303946Y-49222666D01*
X58279530Y-49228258D01*
X58263037Y-49235293D01*
X58246855Y-49240928D01*
X58234967Y-49244180D01*
X58234958Y-49244183D01*
X58229549Y-49245663D01*
X58224486Y-49248078D01*
X58224475Y-49248082D01*
X58154343Y-49281534D01*
X58149542Y-49283702D01*
X58072892Y-49316396D01*
X58068204Y-49319475D01*
X58068203Y-49319476D01*
X58057900Y-49326244D01*
X58042971Y-49334656D01*
X58026782Y-49342378D01*
X58022226Y-49345652D01*
X58022224Y-49345653D01*
X57959122Y-49390997D01*
X57954771Y-49393987D01*
X57888992Y-49437195D01*
X57888987Y-49437199D01*
X57885126Y-49439735D01*
X57875792Y-49448051D01*
X57864346Y-49458249D01*
X57854055Y-49466494D01*
X57848907Y-49470193D01*
X57848903Y-49470197D01*
X57844346Y-49473471D01*
X57840439Y-49477503D01*
X57769968Y-49550223D01*
X57768579Y-49551633D01*
X49974737Y-57345475D01*
X49962347Y-57356342D01*
X49944708Y-57369877D01*
X49890188Y-57429794D01*
X49889842Y-57430174D01*
X49885743Y-57434469D01*
X49869802Y-57450410D01*
X49868007Y-57452557D01*
X49868005Y-57452559D01*
X49853068Y-57470423D01*
X49849600Y-57474398D01*
X49797288Y-57531888D01*
X49797281Y-57531897D01*
X49793515Y-57536036D01*
X49790538Y-57540782D01*
X49790537Y-57540783D01*
X49783987Y-57551225D01*
X49773911Y-57565093D01*
X49766004Y-57574549D01*
X49765997Y-57574559D01*
X49762406Y-57578854D01*
X49721118Y-57651240D01*
X49718413Y-57655759D01*
X49674136Y-57726344D01*
X49672043Y-57731549D01*
X49672042Y-57731552D01*
X49667448Y-57742979D01*
X49659988Y-57758411D01*
X49653880Y-57769119D01*
X49653876Y-57769128D01*
X49651101Y-57773993D01*
X49649232Y-57779270D01*
X49649230Y-57779275D01*
X49623285Y-57852542D01*
X49621420Y-57857478D01*
X49590344Y-57934783D01*
X49589208Y-57940270D01*
X49589207Y-57940272D01*
X49586706Y-57952349D01*
X49582101Y-57968844D01*
X49576111Y-57985759D01*
X49575204Y-57991298D01*
X49562643Y-58068001D01*
X49561683Y-58073180D01*
X49544787Y-58154767D01*
X49544521Y-58159379D01*
X49544521Y-58159380D01*
X49543185Y-58182548D01*
X49541738Y-58195653D01*
X49540714Y-58201910D01*
X49539806Y-58207457D01*
X49539894Y-58213070D01*
X49539894Y-58213072D01*
X49541484Y-58314264D01*
X49541500Y-58316243D01*
X49541500Y-62956651D01*
X49529787Y-63009702D01*
X49522869Y-63024605D01*
X49522867Y-63024612D01*
X49520688Y-63029305D01*
X49460989Y-63244570D01*
X49437251Y-63466695D01*
X20508500Y-63466695D01*
X20508500Y-43634500D01*
X20528502Y-43566379D01*
X20582158Y-43519886D01*
X20634500Y-43508500D01*
X119365500Y-43508500D01*
X119433621Y-43528502D01*
G37*
%TD.AperFunction*%
%TD*%
M02*
