%TF.GenerationSoftware,KiCad,Pcbnew,(6.0.9)*%
%TF.CreationDate,2023-02-14T12:36:16+03:00*%
%TF.ProjectId,kontrol_karti,6b6f6e74-726f-46c5-9f6b-617274692e6b,rev?*%
%TF.SameCoordinates,Original*%
%TF.FileFunction,Drillmap*%
%TF.FilePolarity,Positive*%
%FSLAX45Y45*%
G04 Gerber Fmt 4.5, Leading zero omitted, Abs format (unit mm)*
G04 Created by KiCad (PCBNEW (6.0.9)) date 2023-02-14 12:36:16*
%MOMM*%
%LPD*%
G01*
G04 APERTURE LIST*
%ADD10C,0.100000*%
%ADD11C,0.200000*%
G04 APERTURE END LIST*
D10*
X2000000Y-4300000D02*
X12000000Y-4300000D01*
X12000000Y-4300000D02*
X12000000Y-10300000D01*
X12000000Y-10300000D02*
X2000000Y-10300000D01*
X2000000Y-10300000D02*
X2000000Y-4300000D01*
D11*
D10*
X5030000Y-6291000D02*
X5130000Y-6391000D01*
X5130000Y-6291000D02*
X5030000Y-6391000D01*
X5030000Y-6300000D02*
X5130000Y-6400000D01*
X5130000Y-6300000D02*
X5030000Y-6400000D01*
X5284000Y-6291000D02*
X5384000Y-6391000D01*
X5384000Y-6291000D02*
X5284000Y-6391000D01*
X5284000Y-6300000D02*
X5384000Y-6400000D01*
X5384000Y-6300000D02*
X5284000Y-6400000D01*
X5284000Y-9094000D02*
X5384000Y-9194000D01*
X5384000Y-9094000D02*
X5284000Y-9194000D01*
X5538000Y-6291000D02*
X5638000Y-6391000D01*
X5638000Y-6291000D02*
X5538000Y-6391000D01*
X5538000Y-6300000D02*
X5638000Y-6400000D01*
X5638000Y-6300000D02*
X5538000Y-6400000D01*
X5538000Y-9094000D02*
X5638000Y-9194000D01*
X5638000Y-9094000D02*
X5538000Y-9194000D01*
X5792000Y-6291000D02*
X5892000Y-6391000D01*
X5892000Y-6291000D02*
X5792000Y-6391000D01*
X5792000Y-6300000D02*
X5892000Y-6400000D01*
X5892000Y-6300000D02*
X5792000Y-6400000D01*
X5792000Y-8041000D02*
X5892000Y-8141000D01*
X5892000Y-8041000D02*
X5792000Y-8141000D01*
X5792000Y-9094000D02*
X5892000Y-9194000D01*
X5892000Y-9094000D02*
X5792000Y-9194000D01*
X5796000Y-8040000D02*
X5896000Y-8140000D01*
X5896000Y-8040000D02*
X5796000Y-8140000D01*
X6046000Y-6291000D02*
X6146000Y-6391000D01*
X6146000Y-6291000D02*
X6046000Y-6391000D01*
X6046000Y-6300000D02*
X6146000Y-6400000D01*
X6146000Y-6300000D02*
X6046000Y-6400000D01*
X6046000Y-8041000D02*
X6146000Y-8141000D01*
X6146000Y-8041000D02*
X6046000Y-8141000D01*
X6046000Y-9094000D02*
X6146000Y-9194000D01*
X6146000Y-9094000D02*
X6046000Y-9194000D01*
X6050000Y-8040000D02*
X6150000Y-8140000D01*
X6150000Y-8040000D02*
X6050000Y-8140000D01*
X6300000Y-4993000D02*
X6400000Y-5093000D01*
X6400000Y-4993000D02*
X6300000Y-5093000D01*
X6300000Y-5247000D02*
X6400000Y-5347000D01*
X6400000Y-5247000D02*
X6300000Y-5347000D01*
X6300000Y-5501000D02*
X6400000Y-5601000D01*
X6400000Y-5501000D02*
X6300000Y-5601000D01*
X6300000Y-6291000D02*
X6400000Y-6391000D01*
X6400000Y-6291000D02*
X6300000Y-6391000D01*
X6300000Y-6300000D02*
X6400000Y-6400000D01*
X6400000Y-6300000D02*
X6300000Y-6400000D01*
X6300000Y-8041000D02*
X6400000Y-8141000D01*
X6400000Y-8041000D02*
X6300000Y-8141000D01*
X6304000Y-8040000D02*
X6404000Y-8140000D01*
X6404000Y-8040000D02*
X6304000Y-8140000D01*
X6554000Y-4993000D02*
X6654000Y-5093000D01*
X6654000Y-4993000D02*
X6554000Y-5093000D01*
X6554000Y-5247000D02*
X6654000Y-5347000D01*
X6654000Y-5247000D02*
X6554000Y-5347000D01*
X6554000Y-5501000D02*
X6654000Y-5601000D01*
X6654000Y-5501000D02*
X6554000Y-5601000D01*
X6554000Y-6291000D02*
X6654000Y-6391000D01*
X6654000Y-6291000D02*
X6554000Y-6391000D01*
X6554000Y-6300000D02*
X6654000Y-6400000D01*
X6654000Y-6300000D02*
X6554000Y-6400000D01*
X6554000Y-8041000D02*
X6654000Y-8141000D01*
X6654000Y-8041000D02*
X6554000Y-8141000D01*
X6558000Y-8040000D02*
X6658000Y-8140000D01*
X6658000Y-8040000D02*
X6558000Y-8140000D01*
X6808000Y-4993000D02*
X6908000Y-5093000D01*
X6908000Y-4993000D02*
X6808000Y-5093000D01*
X6808000Y-5247000D02*
X6908000Y-5347000D01*
X6908000Y-5247000D02*
X6808000Y-5347000D01*
X6808000Y-5501000D02*
X6908000Y-5601000D01*
X6908000Y-5501000D02*
X6808000Y-5601000D01*
X6808000Y-6291000D02*
X6908000Y-6391000D01*
X6908000Y-6291000D02*
X6808000Y-6391000D01*
X6808000Y-6300000D02*
X6908000Y-6400000D01*
X6908000Y-6300000D02*
X6808000Y-6400000D01*
X6808000Y-8041000D02*
X6908000Y-8141000D01*
X6908000Y-8041000D02*
X6808000Y-8141000D01*
X6812000Y-8040000D02*
X6912000Y-8140000D01*
X6912000Y-8040000D02*
X6812000Y-8140000D01*
X6936500Y-9091500D02*
X7036500Y-9191500D01*
X7036500Y-9091500D02*
X6936500Y-9191500D01*
X7062000Y-4994500D02*
X7162000Y-5094500D01*
X7162000Y-4994500D02*
X7062000Y-5094500D01*
X7062000Y-5248500D02*
X7162000Y-5348500D01*
X7162000Y-5248500D02*
X7062000Y-5348500D01*
X7062000Y-5502500D02*
X7162000Y-5602500D01*
X7162000Y-5502500D02*
X7062000Y-5602500D01*
X7062000Y-6291000D02*
X7162000Y-6391000D01*
X7162000Y-6291000D02*
X7062000Y-6391000D01*
X7062000Y-6300000D02*
X7162000Y-6400000D01*
X7162000Y-6300000D02*
X7062000Y-6400000D01*
X7062000Y-8041000D02*
X7162000Y-8141000D01*
X7162000Y-8041000D02*
X7062000Y-8141000D01*
X7066000Y-8040000D02*
X7166000Y-8140000D01*
X7166000Y-8040000D02*
X7066000Y-8140000D01*
X7190500Y-9091500D02*
X7290500Y-9191500D01*
X7290500Y-9091500D02*
X7190500Y-9191500D01*
X7316000Y-4994500D02*
X7416000Y-5094500D01*
X7416000Y-4994500D02*
X7316000Y-5094500D01*
X7316000Y-5248500D02*
X7416000Y-5348500D01*
X7416000Y-5248500D02*
X7316000Y-5348500D01*
X7316000Y-5502500D02*
X7416000Y-5602500D01*
X7416000Y-5502500D02*
X7316000Y-5602500D01*
X7316000Y-6291000D02*
X7416000Y-6391000D01*
X7416000Y-6291000D02*
X7316000Y-6391000D01*
X7316000Y-6300000D02*
X7416000Y-6400000D01*
X7416000Y-6300000D02*
X7316000Y-6400000D01*
X7316000Y-8041000D02*
X7416000Y-8141000D01*
X7416000Y-8041000D02*
X7316000Y-8141000D01*
X7320000Y-8040000D02*
X7420000Y-8140000D01*
X7420000Y-8040000D02*
X7320000Y-8140000D01*
X7444500Y-9091500D02*
X7544500Y-9191500D01*
X7544500Y-9091500D02*
X7444500Y-9191500D01*
X7570000Y-4994500D02*
X7670000Y-5094500D01*
X7670000Y-4994500D02*
X7570000Y-5094500D01*
X7570000Y-5248500D02*
X7670000Y-5348500D01*
X7670000Y-5248500D02*
X7570000Y-5348500D01*
X7570000Y-5502500D02*
X7670000Y-5602500D01*
X7670000Y-5502500D02*
X7570000Y-5602500D01*
X7570000Y-6291000D02*
X7670000Y-6391000D01*
X7670000Y-6291000D02*
X7570000Y-6391000D01*
X7570000Y-6300000D02*
X7670000Y-6400000D01*
X7670000Y-6300000D02*
X7570000Y-6400000D01*
X7570000Y-8041000D02*
X7670000Y-8141000D01*
X7670000Y-8041000D02*
X7570000Y-8141000D01*
X7574000Y-8040000D02*
X7674000Y-8140000D01*
X7674000Y-8040000D02*
X7574000Y-8140000D01*
X7698500Y-9091500D02*
X7798500Y-9191500D01*
X7798500Y-9091500D02*
X7698500Y-9191500D01*
X7824000Y-6291000D02*
X7924000Y-6391000D01*
X7924000Y-6291000D02*
X7824000Y-6391000D01*
X7824000Y-6300000D02*
X7924000Y-6400000D01*
X7924000Y-6300000D02*
X7824000Y-6400000D01*
X7824000Y-8041000D02*
X7924000Y-8141000D01*
X7924000Y-8041000D02*
X7824000Y-8141000D01*
X7828000Y-8040000D02*
X7928000Y-8140000D01*
X7928000Y-8040000D02*
X7828000Y-8140000D01*
X7952500Y-9091500D02*
X8052500Y-9191500D01*
X8052500Y-9091500D02*
X7952500Y-9191500D01*
X8078000Y-6291000D02*
X8178000Y-6391000D01*
X8178000Y-6291000D02*
X8078000Y-6391000D01*
X8078000Y-6300000D02*
X8178000Y-6400000D01*
X8178000Y-6300000D02*
X8078000Y-6400000D01*
X8078000Y-8041000D02*
X8178000Y-8141000D01*
X8178000Y-8041000D02*
X8078000Y-8141000D01*
X8082000Y-8040000D02*
X8182000Y-8140000D01*
X8182000Y-8040000D02*
X8082000Y-8140000D01*
X8206500Y-9091500D02*
X8306500Y-9191500D01*
X8306500Y-9091500D02*
X8206500Y-9191500D01*
X8332000Y-5021000D02*
X8432000Y-5121000D01*
X8432000Y-5021000D02*
X8332000Y-5121000D01*
X8332000Y-5275000D02*
X8432000Y-5375000D01*
X8432000Y-5275000D02*
X8332000Y-5375000D01*
X8332000Y-5529000D02*
X8432000Y-5629000D01*
X8432000Y-5529000D02*
X8332000Y-5629000D01*
X8332000Y-5783000D02*
X8432000Y-5883000D01*
X8432000Y-5783000D02*
X8332000Y-5883000D01*
X8332000Y-6291000D02*
X8432000Y-6391000D01*
X8432000Y-6291000D02*
X8332000Y-6391000D01*
X8332000Y-6300000D02*
X8432000Y-6400000D01*
X8432000Y-6300000D02*
X8332000Y-6400000D01*
X8332000Y-8041000D02*
X8432000Y-8141000D01*
X8432000Y-8041000D02*
X8332000Y-8141000D01*
X8336000Y-8040000D02*
X8436000Y-8140000D01*
X8436000Y-8040000D02*
X8336000Y-8140000D01*
X8460500Y-9091500D02*
X8560500Y-9191500D01*
X8560500Y-9091500D02*
X8460500Y-9191500D01*
X8586000Y-6291000D02*
X8686000Y-6391000D01*
X8686000Y-6291000D02*
X8586000Y-6391000D01*
X8586000Y-6300000D02*
X8686000Y-6400000D01*
X8686000Y-6300000D02*
X8586000Y-6400000D01*
X8586000Y-8041000D02*
X8686000Y-8141000D01*
X8686000Y-8041000D02*
X8586000Y-8141000D01*
X8590000Y-8040000D02*
X8690000Y-8140000D01*
X8690000Y-8040000D02*
X8590000Y-8140000D01*
X8714500Y-9091500D02*
X8814500Y-9191500D01*
X8814500Y-9091500D02*
X8714500Y-9191500D01*
X9983000Y-7062000D02*
X10083000Y-7162000D01*
X10083000Y-7062000D02*
X9983000Y-7162000D01*
X9983000Y-7316000D02*
X10083000Y-7416000D01*
X10083000Y-7316000D02*
X9983000Y-7416000D01*
D11*
X2252619Y-10615476D02*
X2252619Y-10415476D01*
X2300238Y-10415476D01*
X2328810Y-10425000D01*
X2347857Y-10444048D01*
X2357381Y-10463095D01*
X2366905Y-10501190D01*
X2366905Y-10529762D01*
X2357381Y-10567857D01*
X2347857Y-10586905D01*
X2328810Y-10605952D01*
X2300238Y-10615476D01*
X2252619Y-10615476D01*
X2452619Y-10615476D02*
X2452619Y-10482143D01*
X2452619Y-10520238D02*
X2462143Y-10501190D01*
X2471667Y-10491667D01*
X2490714Y-10482143D01*
X2509762Y-10482143D01*
X2576429Y-10615476D02*
X2576429Y-10482143D01*
X2576429Y-10415476D02*
X2566905Y-10425000D01*
X2576429Y-10434524D01*
X2585952Y-10425000D01*
X2576429Y-10415476D01*
X2576429Y-10434524D01*
X2700238Y-10615476D02*
X2681190Y-10605952D01*
X2671667Y-10586905D01*
X2671667Y-10415476D01*
X2805000Y-10615476D02*
X2785952Y-10605952D01*
X2776429Y-10586905D01*
X2776429Y-10415476D01*
X3033571Y-10615476D02*
X3033571Y-10415476D01*
X3100238Y-10558333D01*
X3166905Y-10415476D01*
X3166905Y-10615476D01*
X3347857Y-10615476D02*
X3347857Y-10510714D01*
X3338333Y-10491667D01*
X3319286Y-10482143D01*
X3281190Y-10482143D01*
X3262143Y-10491667D01*
X3347857Y-10605952D02*
X3328809Y-10615476D01*
X3281190Y-10615476D01*
X3262143Y-10605952D01*
X3252619Y-10586905D01*
X3252619Y-10567857D01*
X3262143Y-10548810D01*
X3281190Y-10539286D01*
X3328809Y-10539286D01*
X3347857Y-10529762D01*
X3443095Y-10482143D02*
X3443095Y-10682143D01*
X3443095Y-10491667D02*
X3462143Y-10482143D01*
X3500238Y-10482143D01*
X3519286Y-10491667D01*
X3528809Y-10501190D01*
X3538333Y-10520238D01*
X3538333Y-10577381D01*
X3528809Y-10596429D01*
X3519286Y-10605952D01*
X3500238Y-10615476D01*
X3462143Y-10615476D01*
X3443095Y-10605952D01*
X3624048Y-10596429D02*
X3633571Y-10605952D01*
X3624048Y-10615476D01*
X3614524Y-10605952D01*
X3624048Y-10596429D01*
X3624048Y-10615476D01*
X3624048Y-10491667D02*
X3633571Y-10501190D01*
X3624048Y-10510714D01*
X3614524Y-10501190D01*
X3624048Y-10491667D01*
X3624048Y-10510714D01*
D10*
X1895000Y-10895000D02*
X1995000Y-10995000D01*
X1995000Y-10895000D02*
X1895000Y-10995000D01*
D11*
X2357381Y-11035476D02*
X2243095Y-11035476D01*
X2300238Y-11035476D02*
X2300238Y-10835476D01*
X2281190Y-10864048D01*
X2262143Y-10883095D01*
X2243095Y-10892619D01*
X2443095Y-11016429D02*
X2452619Y-11025952D01*
X2443095Y-11035476D01*
X2433571Y-11025952D01*
X2443095Y-11016429D01*
X2443095Y-11035476D01*
X2576429Y-10835476D02*
X2595476Y-10835476D01*
X2614524Y-10845000D01*
X2624048Y-10854524D01*
X2633571Y-10873571D01*
X2643095Y-10911667D01*
X2643095Y-10959286D01*
X2633571Y-10997381D01*
X2624048Y-11016429D01*
X2614524Y-11025952D01*
X2595476Y-11035476D01*
X2576429Y-11035476D01*
X2557381Y-11025952D01*
X2547857Y-11016429D01*
X2538333Y-10997381D01*
X2528810Y-10959286D01*
X2528810Y-10911667D01*
X2538333Y-10873571D01*
X2547857Y-10854524D01*
X2557381Y-10845000D01*
X2576429Y-10835476D01*
X2766905Y-10835476D02*
X2785952Y-10835476D01*
X2805000Y-10845000D01*
X2814524Y-10854524D01*
X2824048Y-10873571D01*
X2833571Y-10911667D01*
X2833571Y-10959286D01*
X2824048Y-10997381D01*
X2814524Y-11016429D01*
X2805000Y-11025952D01*
X2785952Y-11035476D01*
X2766905Y-11035476D01*
X2747857Y-11025952D01*
X2738333Y-11016429D01*
X2728810Y-10997381D01*
X2719286Y-10959286D01*
X2719286Y-10911667D01*
X2728810Y-10873571D01*
X2738333Y-10854524D01*
X2747857Y-10845000D01*
X2766905Y-10835476D01*
X2957381Y-10835476D02*
X2976428Y-10835476D01*
X2995476Y-10845000D01*
X3005000Y-10854524D01*
X3014524Y-10873571D01*
X3024048Y-10911667D01*
X3024048Y-10959286D01*
X3014524Y-10997381D01*
X3005000Y-11016429D01*
X2995476Y-11025952D01*
X2976428Y-11035476D01*
X2957381Y-11035476D01*
X2938333Y-11025952D01*
X2928809Y-11016429D01*
X2919286Y-10997381D01*
X2909762Y-10959286D01*
X2909762Y-10911667D01*
X2919286Y-10873571D01*
X2928809Y-10854524D01*
X2938333Y-10845000D01*
X2957381Y-10835476D01*
X3109762Y-11035476D02*
X3109762Y-10902143D01*
X3109762Y-10921190D02*
X3119286Y-10911667D01*
X3138333Y-10902143D01*
X3166905Y-10902143D01*
X3185952Y-10911667D01*
X3195476Y-10930714D01*
X3195476Y-11035476D01*
X3195476Y-10930714D02*
X3205000Y-10911667D01*
X3224048Y-10902143D01*
X3252619Y-10902143D01*
X3271667Y-10911667D01*
X3281190Y-10930714D01*
X3281190Y-11035476D01*
X3376428Y-11035476D02*
X3376428Y-10902143D01*
X3376428Y-10921190D02*
X3385952Y-10911667D01*
X3405000Y-10902143D01*
X3433571Y-10902143D01*
X3452619Y-10911667D01*
X3462143Y-10930714D01*
X3462143Y-11035476D01*
X3462143Y-10930714D02*
X3471667Y-10911667D01*
X3490714Y-10902143D01*
X3519286Y-10902143D01*
X3538333Y-10911667D01*
X3547857Y-10930714D01*
X3547857Y-11035476D01*
X3938333Y-10825952D02*
X3766905Y-11083095D01*
X4195476Y-10835476D02*
X4214524Y-10835476D01*
X4233571Y-10845000D01*
X4243095Y-10854524D01*
X4252619Y-10873571D01*
X4262143Y-10911667D01*
X4262143Y-10959286D01*
X4252619Y-10997381D01*
X4243095Y-11016429D01*
X4233571Y-11025952D01*
X4214524Y-11035476D01*
X4195476Y-11035476D01*
X4176428Y-11025952D01*
X4166905Y-11016429D01*
X4157381Y-10997381D01*
X4147857Y-10959286D01*
X4147857Y-10911667D01*
X4157381Y-10873571D01*
X4166905Y-10854524D01*
X4176428Y-10845000D01*
X4195476Y-10835476D01*
X4347857Y-11016429D02*
X4357381Y-11025952D01*
X4347857Y-11035476D01*
X4338333Y-11025952D01*
X4347857Y-11016429D01*
X4347857Y-11035476D01*
X4481190Y-10835476D02*
X4500238Y-10835476D01*
X4519286Y-10845000D01*
X4528810Y-10854524D01*
X4538333Y-10873571D01*
X4547857Y-10911667D01*
X4547857Y-10959286D01*
X4538333Y-10997381D01*
X4528810Y-11016429D01*
X4519286Y-11025952D01*
X4500238Y-11035476D01*
X4481190Y-11035476D01*
X4462143Y-11025952D01*
X4452619Y-11016429D01*
X4443095Y-10997381D01*
X4433571Y-10959286D01*
X4433571Y-10911667D01*
X4443095Y-10873571D01*
X4452619Y-10854524D01*
X4462143Y-10845000D01*
X4481190Y-10835476D01*
X4614524Y-10835476D02*
X4738333Y-10835476D01*
X4671667Y-10911667D01*
X4700238Y-10911667D01*
X4719286Y-10921190D01*
X4728810Y-10930714D01*
X4738333Y-10949762D01*
X4738333Y-10997381D01*
X4728810Y-11016429D01*
X4719286Y-11025952D01*
X4700238Y-11035476D01*
X4643095Y-11035476D01*
X4624048Y-11025952D01*
X4614524Y-11016429D01*
X4833571Y-11035476D02*
X4871667Y-11035476D01*
X4890714Y-11025952D01*
X4900238Y-11016429D01*
X4919286Y-10987857D01*
X4928810Y-10949762D01*
X4928810Y-10873571D01*
X4919286Y-10854524D01*
X4909762Y-10845000D01*
X4890714Y-10835476D01*
X4852619Y-10835476D01*
X4833571Y-10845000D01*
X4824048Y-10854524D01*
X4814524Y-10873571D01*
X4814524Y-10921190D01*
X4824048Y-10940238D01*
X4833571Y-10949762D01*
X4852619Y-10959286D01*
X4890714Y-10959286D01*
X4909762Y-10949762D01*
X4919286Y-10940238D01*
X4928810Y-10921190D01*
X5100238Y-10902143D02*
X5100238Y-11035476D01*
X5052619Y-10825952D02*
X5005000Y-10968810D01*
X5128810Y-10968810D01*
X5195476Y-10835476D02*
X5195476Y-10873571D01*
X5271667Y-10835476D02*
X5271667Y-10873571D01*
X5566905Y-11111667D02*
X5557381Y-11102143D01*
X5538333Y-11073571D01*
X5528810Y-11054524D01*
X5519286Y-11025952D01*
X5509762Y-10978333D01*
X5509762Y-10940238D01*
X5519286Y-10892619D01*
X5528810Y-10864048D01*
X5538333Y-10845000D01*
X5557381Y-10816429D01*
X5566905Y-10806905D01*
X5652619Y-11035476D02*
X5690714Y-11035476D01*
X5709762Y-11025952D01*
X5719286Y-11016429D01*
X5738333Y-10987857D01*
X5747857Y-10949762D01*
X5747857Y-10873571D01*
X5738333Y-10854524D01*
X5728809Y-10845000D01*
X5709762Y-10835476D01*
X5671667Y-10835476D01*
X5652619Y-10845000D01*
X5643095Y-10854524D01*
X5633571Y-10873571D01*
X5633571Y-10921190D01*
X5643095Y-10940238D01*
X5652619Y-10949762D01*
X5671667Y-10959286D01*
X5709762Y-10959286D01*
X5728809Y-10949762D01*
X5738333Y-10940238D01*
X5747857Y-10921190D01*
X5871667Y-10835476D02*
X5890714Y-10835476D01*
X5909762Y-10845000D01*
X5919286Y-10854524D01*
X5928809Y-10873571D01*
X5938333Y-10911667D01*
X5938333Y-10959286D01*
X5928809Y-10997381D01*
X5919286Y-11016429D01*
X5909762Y-11025952D01*
X5890714Y-11035476D01*
X5871667Y-11035476D01*
X5852619Y-11025952D01*
X5843095Y-11016429D01*
X5833571Y-10997381D01*
X5824048Y-10959286D01*
X5824048Y-10911667D01*
X5833571Y-10873571D01*
X5843095Y-10854524D01*
X5852619Y-10845000D01*
X5871667Y-10835476D01*
X6176428Y-11035476D02*
X6176428Y-10835476D01*
X6262143Y-11035476D02*
X6262143Y-10930714D01*
X6252619Y-10911667D01*
X6233571Y-10902143D01*
X6205000Y-10902143D01*
X6185952Y-10911667D01*
X6176428Y-10921190D01*
X6385952Y-11035476D02*
X6366905Y-11025952D01*
X6357381Y-11016429D01*
X6347857Y-10997381D01*
X6347857Y-10940238D01*
X6357381Y-10921190D01*
X6366905Y-10911667D01*
X6385952Y-10902143D01*
X6414524Y-10902143D01*
X6433571Y-10911667D01*
X6443095Y-10921190D01*
X6452619Y-10940238D01*
X6452619Y-10997381D01*
X6443095Y-11016429D01*
X6433571Y-11025952D01*
X6414524Y-11035476D01*
X6385952Y-11035476D01*
X6566905Y-11035476D02*
X6547857Y-11025952D01*
X6538333Y-11006905D01*
X6538333Y-10835476D01*
X6719286Y-11025952D02*
X6700238Y-11035476D01*
X6662143Y-11035476D01*
X6643095Y-11025952D01*
X6633571Y-11006905D01*
X6633571Y-10930714D01*
X6643095Y-10911667D01*
X6662143Y-10902143D01*
X6700238Y-10902143D01*
X6719286Y-10911667D01*
X6728809Y-10930714D01*
X6728809Y-10949762D01*
X6633571Y-10968810D01*
X6805000Y-11025952D02*
X6824048Y-11035476D01*
X6862143Y-11035476D01*
X6881190Y-11025952D01*
X6890714Y-11006905D01*
X6890714Y-10997381D01*
X6881190Y-10978333D01*
X6862143Y-10968810D01*
X6833571Y-10968810D01*
X6814524Y-10959286D01*
X6805000Y-10940238D01*
X6805000Y-10930714D01*
X6814524Y-10911667D01*
X6833571Y-10902143D01*
X6862143Y-10902143D01*
X6881190Y-10911667D01*
X6957381Y-11111667D02*
X6966905Y-11102143D01*
X6985952Y-11073571D01*
X6995476Y-11054524D01*
X7005000Y-11025952D01*
X7014524Y-10978333D01*
X7014524Y-10940238D01*
X7005000Y-10892619D01*
X6995476Y-10864048D01*
X6985952Y-10845000D01*
X6966905Y-10816429D01*
X6957381Y-10806905D01*
M02*
