%TF.GenerationSoftware,KiCad,Pcbnew,(6.0.9)*%
%TF.CreationDate,2023-02-14T12:36:15+03:00*%
%TF.ProjectId,kontrol_karti,6b6f6e74-726f-46c5-9f6b-617274692e6b,rev?*%
%TF.SameCoordinates,Original*%
%TF.FileFunction,Plated,1,2,PTH,Drill*%
%TF.FilePolarity,Positive*%
%FSLAX46Y46*%
G04 Gerber Fmt 4.6, Leading zero omitted, Abs format (unit mm)*
G04 Created by KiCad (PCBNEW (6.0.9)) date 2023-02-14 12:36:15*
%MOMM*%
%LPD*%
G01*
G04 APERTURE LIST*
%TA.AperFunction,ComponentDrill*%
%ADD10C,1.000000*%
%TD*%
G04 APERTURE END LIST*
D10*
%TO.C,U1*%
X50800000Y-63410000D03*
%TO.C,REF\u002A\u002A*%
X50800000Y-63500000D03*
%TO.C,U1*%
X53340000Y-63410000D03*
%TO.C,REF\u002A\u002A*%
X53340000Y-63500000D03*
%TO.C,J6*%
X53340000Y-91440000D03*
%TO.C,U1*%
X55880000Y-63410000D03*
%TO.C,REF\u002A\u002A*%
X55880000Y-63500000D03*
%TO.C,J6*%
X55880000Y-91440000D03*
%TO.C,U1*%
X58420000Y-63410000D03*
%TO.C,REF\u002A\u002A*%
X58420000Y-63500000D03*
%TO.C,U1*%
X58420000Y-80910000D03*
%TO.C,J6*%
X58420000Y-91440000D03*
%TO.C,REF\u002A\u002A*%
X58460000Y-80900000D03*
%TO.C,U1*%
X60960000Y-63410000D03*
%TO.C,REF\u002A\u002A*%
X60960000Y-63500000D03*
%TO.C,U1*%
X60960000Y-80910000D03*
%TO.C,J6*%
X60960000Y-91440000D03*
%TO.C,REF\u002A\u002A*%
X61000000Y-80900000D03*
%TO.C,J37*%
X63500000Y-50430000D03*
X63500000Y-52970000D03*
X63500000Y-55510000D03*
%TO.C,U1*%
X63500000Y-63410000D03*
%TO.C,REF\u002A\u002A*%
X63500000Y-63500000D03*
%TO.C,U1*%
X63500000Y-80910000D03*
%TO.C,REF\u002A\u002A*%
X63540000Y-80900000D03*
%TO.C,J35*%
X66040000Y-50430000D03*
X66040000Y-52970000D03*
X66040000Y-55510000D03*
%TO.C,U1*%
X66040000Y-63410000D03*
%TO.C,REF\u002A\u002A*%
X66040000Y-63500000D03*
%TO.C,U1*%
X66040000Y-80910000D03*
%TO.C,REF\u002A\u002A*%
X66080000Y-80900000D03*
%TO.C,J7*%
X68580000Y-50430000D03*
X68580000Y-52970000D03*
X68580000Y-55510000D03*
%TO.C,U1*%
X68580000Y-63410000D03*
%TO.C,REF\u002A\u002A*%
X68580000Y-63500000D03*
%TO.C,U1*%
X68580000Y-80910000D03*
%TO.C,REF\u002A\u002A*%
X68620000Y-80900000D03*
%TO.C,J2*%
X69865000Y-91415000D03*
%TO.C,J5*%
X71120000Y-50445000D03*
X71120000Y-52985000D03*
X71120000Y-55525000D03*
%TO.C,U1*%
X71120000Y-63410000D03*
%TO.C,REF\u002A\u002A*%
X71120000Y-63500000D03*
%TO.C,U1*%
X71120000Y-80910000D03*
%TO.C,REF\u002A\u002A*%
X71160000Y-80900000D03*
%TO.C,J2*%
X72405000Y-91415000D03*
%TO.C,J4*%
X73660000Y-50445000D03*
X73660000Y-52985000D03*
X73660000Y-55525000D03*
%TO.C,U1*%
X73660000Y-63410000D03*
%TO.C,REF\u002A\u002A*%
X73660000Y-63500000D03*
%TO.C,U1*%
X73660000Y-80910000D03*
%TO.C,REF\u002A\u002A*%
X73700000Y-80900000D03*
%TO.C,J2*%
X74945000Y-91415000D03*
%TO.C,J3*%
X76200000Y-50445000D03*
X76200000Y-52985000D03*
X76200000Y-55525000D03*
%TO.C,U1*%
X76200000Y-63410000D03*
%TO.C,REF\u002A\u002A*%
X76200000Y-63500000D03*
%TO.C,U1*%
X76200000Y-80910000D03*
%TO.C,REF\u002A\u002A*%
X76240000Y-80900000D03*
%TO.C,J2*%
X77485000Y-91415000D03*
%TO.C,U1*%
X78740000Y-63410000D03*
%TO.C,REF\u002A\u002A*%
X78740000Y-63500000D03*
%TO.C,U1*%
X78740000Y-80910000D03*
%TO.C,REF\u002A\u002A*%
X78780000Y-80900000D03*
%TO.C,J2*%
X80025000Y-91415000D03*
%TO.C,U1*%
X81280000Y-63410000D03*
%TO.C,REF\u002A\u002A*%
X81280000Y-63500000D03*
%TO.C,U1*%
X81280000Y-80910000D03*
%TO.C,REF\u002A\u002A*%
X81320000Y-80900000D03*
%TO.C,J2*%
X82565000Y-91415000D03*
%TO.C,J36*%
X83820000Y-50710000D03*
X83820000Y-53250000D03*
X83820000Y-55790000D03*
X83820000Y-58330000D03*
%TO.C,U1*%
X83820000Y-63410000D03*
%TO.C,REF\u002A\u002A*%
X83820000Y-63500000D03*
%TO.C,U1*%
X83820000Y-80910000D03*
%TO.C,REF\u002A\u002A*%
X83860000Y-80900000D03*
%TO.C,J2*%
X85105000Y-91415000D03*
%TO.C,U1*%
X86360000Y-63410000D03*
%TO.C,REF\u002A\u002A*%
X86360000Y-63500000D03*
%TO.C,U1*%
X86360000Y-80910000D03*
%TO.C,REF\u002A\u002A*%
X86400000Y-80900000D03*
%TO.C,J2*%
X87645000Y-91415000D03*
%TO.C,J1*%
X100330000Y-71120000D03*
X100330000Y-73660000D03*
M02*
